<svg xmlns="http://www.w3.org/2000/svg" width="108" height="108" viewBox="0 0 108 108"><defs><style>.a{fill:rgba(249,171,49,0.15);}.b{fill:#f9ab31;}</style></defs><g transform="translate(-177 -1071)"><circle class="a" cx="54" cy="54" r="54" transform="translate(177 1071)"/><path class="b" d="M5.989,54.377H42.234L39.893,48.86H6.517V20.8H47.024V37.842l5.517,2.341V12.569A4.994,4.994,0,0,0,47.553,7.58H5.989A4.994,4.994,0,0,0,1,12.569V49.388a4.994,4.994,0,0,0,4.989,4.989ZM20.836,12.529a2.085,2.085,0,1,1-1.483.619,2.085,2.085,0,0,1,1.483-.619Zm-6.193,0a2.08,2.08,0,1,1-.006,0Zm-6.193,0a2.085,2.085,0,1,1-1.483.619,2.085,2.085,0,0,1,1.483-.619ZM56.07,52.223a2.089,2.089,0,0,1-2.955,2.955l-2.636-2.642L48.9,54.11a1.813,1.813,0,0,1-2.955-.568L41.473,42.979a1.8,1.8,0,0,1,.153-1.7,1.818,1.818,0,0,1,2.273-.682l10.512,4.466a1.813,1.813,0,0,1,.568,2.955l-1.545,1.568ZM31.171,26.3a1.966,1.966,0,0,1,.165,1.557L26.762,43.7a2.034,2.034,0,0,1-.938,1.188,1.943,1.943,0,0,1-1.54.17l-.756-.21a2.011,2.011,0,0,1-1.182-.938,1.96,1.96,0,0,1-.165-1.557l4.574-15.841a2.034,2.034,0,0,1,.949-1.188,1.949,1.949,0,0,1,1.534-.17l.773.216a2.006,2.006,0,0,1,1.159.932ZM20.319,31.41,16.6,35.092l3.722,3.716a1.989,1.989,0,0,1,0,2.841l-.636.6a1.989,1.989,0,0,1-2.841,0l-5.716-5.727a1.989,1.989,0,0,1,0-2.841l5.727-5.716a2.034,2.034,0,0,1,2.841,0l.625.614a1.989,1.989,0,0,1,0,2.841ZM42.99,35.092a1.989,1.989,0,0,1-.568,1.415l-5.756,5.744a1.983,1.983,0,0,1-2.841,0l-.614-.614a1.989,1.989,0,0,1,0-2.841l3.71-3.7-3.7-3.7a1.989,1.989,0,0,1,0-2.841l.614-.614a2.034,2.034,0,0,1,2.841,0l5.716,5.756a1.989,1.989,0,0,1,.6,1.4Z" transform="translate(201.941 1093.685)"/></g></svg>