<svg xmlns="http://www.w3.org/2000/svg" width="536.552" height="539.25" viewBox="0 0 536.552 539.25"><defs><style>.a,.h{fill:#407bff;}.b,.d,.e,.g,.k,.m{fill:#fff;}.b{opacity:0.7;}.c,.i,.l,.n,.o,.p{fill:none;}.c,.e,.h,.i,.l,.n{stroke:#263238;}.c,.e,.l,.n,.o,.p{stroke-linecap:round;stroke-linejoin:round;}.c,.e,.h,.i,.k,.l,.o,.p{stroke-width:1.103px;}.c{stroke-dasharray:4.412;}.d{opacity:0.5;}.f{fill:#263238;}.g,.j,.o{opacity:0.2;}.h,.i,.k{stroke-miterlimit:10;}.k{stroke:#222221;}.n{stroke-width:2.206px;}.o,.p{stroke:#fff;}</style></defs><g transform="translate(0 26.6)"><g transform="translate(0 -26.6)"><path class="a" d="M46.316,279.431c59.5-118.691,220.892-76.421,253.852-134.146,16.883-29.516,35.768-63.824,63.161-81.639a132.543,132.543,0,0,1,82.778-20.8c94.253,8.033,134.208,106.251,116.1,214.108C538.041,400.824,428.541,547.795,298.46,548.818c-68.044.6-133.06-27.839-183.965-67.834l-1.135-.9C62.454,439.724.88,370.042,46.316,279.431Z" transform="translate(-30.46 -42.392)"/><path class="b" d="M46.316,279.431c59.5-118.691,220.892-76.421,253.852-134.146,16.883-29.516,35.768-63.824,63.161-81.639a132.543,132.543,0,0,1,82.778-20.8c94.253,8.033,134.208,106.251,116.1,214.108C538.041,400.824,428.541,547.795,298.46,548.818c-68.044.6-133.06-27.839-183.965-67.834l-1.135-.9C62.454,439.724.88,370.042,46.316,279.431Z" transform="translate(-30.46 -42.392)"/></g><g transform="translate(226.285 38.719)"><path class="c" d="M161.768,215.18h6.616a26.771,26.771,0,0,1,26.771,26.771v146.9a26.771,26.771,0,0,1-26.771,26.771H77.611A26.771,26.771,0,0,1,50.84,388.854h0" transform="translate(114.56 -46.154)"/><path class="c" d="M313.8,109.841V80.825A16.394,16.394,0,0,0,297.44,64.43H179.395A16.394,16.394,0,0,0,163,80.824h0" transform="translate(-163 -64.43)"/></g><g transform="translate(9.204 447.317)"><ellipse class="a" cx="250.398" cy="32.667" rx="250.398" ry="32.667"/><ellipse class="d" cx="250.398" cy="32.667" rx="250.398" ry="32.667"/></g><g transform="translate(48.608 80.958)"><path class="e" d="M69.46,138.42V358.226a27.35,27.35,0,0,0,27.58,27.1H490.672a27.35,27.35,0,0,0,27.58-27.1V138.42a14.218,14.218,0,0,0-.087-1.9,27.367,27.367,0,0,0-27.493-25.2H97.04a27.366,27.366,0,0,0-27.493,25.245A17.879,17.879,0,0,0,69.46,138.42Z" transform="translate(-69.46 -111.32)"/><path class="f" d="M504.064,140.28H80.26V343.325a25.639,25.639,0,0,0,25.88,25.391H478.171a25.639,25.639,0,0,0,25.88-25.391V140.28Z" transform="translate(-68.456 -104.927)"/><path class="g" d="M80.26,140.28V343.325a25.5,25.5,0,0,0,25.594,25.391H478.482a25.5,25.5,0,0,0,25.594-25.391V140.28Z" transform="translate(-68.468 -104.927)"/><path class="h" d="M69.53,136.556H518.152a27.367,27.367,0,0,0-27.494-25.2H97.024a27.368,27.368,0,0,0-27.494,25.2Z" transform="translate(-69.445 -111.311)"/><path class="f" d="M106.02,122.507a4.8,4.8,0,1,0,4.8-4.8,4.8,4.8,0,0,0-4.8,4.8Z" transform="translate(288.547 -109.909)"/><path class="f" d="M122.64,122.507a4.8,4.8,0,1,0,4.8-4.8,4.8,4.8,0,0,0-4.8,4.8Z" transform="translate(251.639 -109.909)"/><ellipse class="f" cx="4.797" cy="4.797" rx="4.797" ry="4.797" transform="translate(352.408 7.801)"/><path class="i" d="M80.29,140.28V343.325a25.639,25.639,0,0,0,25.88,25.391H478.2a25.76,25.76,0,0,0,25.382-20.455v-.078a25.166,25.166,0,0,0,.473-4.883V140.28Z" transform="translate(-68.485 -104.927)"/><path class="f" d="M381.466,168.265a25.564,25.564,0,0,1,5.64-2.332l2.283-10.193h9.693l2.258,10.193A24.721,24.721,0,0,1,407,168.265l8.753-5.6,6.848,6.824-5.506,8.753a24.84,24.84,0,0,1,2.332,5.664l10.193,2.258v9.693l-10.193,2.283a24.417,24.417,0,0,1-2.332,5.689l5.6,8.814-6.861,6.848-8.8-5.6a24.893,24.893,0,0,1-5.652,2.344l-2.271,10.181h-9.656l-2.271-10.181a25.367,25.367,0,0,1-5.64-2.344l-.452.293V168.021Zm12.745,35.4a12.525,12.525,0,1,0-12.525-12.513,12.525,12.525,0,0,0,12.525,12.513Z" transform="translate(-369.271 -101.515)"/><path class="f" d="M155.32,181.5V161.069L176.8,156.3a55.558,55.558,0,0,1,4.883-11.927l-2.6-4.089H280.531l-2.5,3.98a52.491,52.491,0,0,1,4.883,11.914l21.5,4.785v20.484l-21.5,4.8a53.287,53.287,0,0,1-4.883,12.012l11.8,18.567-14.466,14.454-18.555-11.817a54.176,54.176,0,0,1-11.927,4.944L240.1,245.825H219.714l-4.81-21.473a54.5,54.5,0,0,1-11.89-4.944l-18.567,11.817-14.454-14.454L181.725,198.2a56,56,0,0,1-4.883-11.9Zm74.465,16.187a26.4,26.4,0,1,0-26.4-26.4,26.4,26.4,0,0,0,26.4,26.4Z" transform="translate(36.694 -104.927)"/><path class="f" d="M81.127,301.8l-.867-16.224,16.81-4.736a45.422,45.422,0,0,1,3.442-9.644L90.355,256.941l10.889-12.073,15.21,8.545a44.567,44.567,0,0,1,9.265-4.431l2.905-17.237L144.837,231l4.688,16.858a42.727,42.727,0,0,1,9.644,3.418l14.246-10.144,12.1,10.877-8.618,15.223a42.726,42.726,0,0,1,4.443,9.253l4.883.806v21.973l-3.565,1a42.238,42.238,0,0,1-3.406,9.656l7.007,9.827-.464,8.411v.073l-7.239,8.02-15.235-8.606a42.313,42.313,0,0,1-9.29,4.48l-2.857,16.553h0l-.134.7-16.211.855-.427-1.55h0l-4.26-15.3a43.374,43.374,0,0,1-9.693-3.418L106.225,340.1,94.14,329.233,102.685,314a42.153,42.153,0,0,1-4.382-9.241Zm43.055-25.33a283.1,283.1,0,1,1,0,.049Z" transform="translate(249.352 -84.902)"/><path class="f" d="M222.407,278.726a33.265,33.265,0,0,1-.989-7.678l-11.658-6.1,3.223-11.829,13.16.61a33.292,33.292,0,0,1,4.724-6.1l-3.894-12.586,10.62-6.1,8.887,9.693a35.159,35.159,0,0,1,7.654-.977l6.1-11.658,11.817,3.211-.623,13.172a33.253,33.253,0,0,1,6.1,4.724l12.6-3.894,6.1,10.608-9.766,8.875a31.739,31.739,0,0,1,.964,7.654l11.682,6.1L295.9,288.26l-13.184-.623a31,31,0,0,1-4.7,6.1l3.919,12.525-10.633,6.1-8.838-9.619a31.883,31.883,0,0,1-7.678.964l-6.1,11.67-11.817-3.211.525-11.255.085-1.929a32.236,32.236,0,0,1-6.177-4.724l-12.586,3.906-5.2-9.082-.879-1.538Zm27.918,7.178a15.87,15.87,0,1,0-11.109-19.41A15.87,15.87,0,0,0,250.325,285.9Z" transform="translate(-25.498 -86.008)"/><path class="f" d="M289.006,300.423l-2.686-16.236,16.431-6.6a43.053,43.053,0,0,1,2.356-10.132L293.278,254.28l9.571-13.428,16.309,6.922a43.19,43.19,0,0,1,8.814-5.469l.952-17.689,16.236-2.686,6.653,16.358a45.353,45.353,0,0,1,10.1,2.38l13.208-11.829,13.367,9.571-6.934,16.3a44.24,44.24,0,0,1,4.944,7.678c.183.378.378.757.549,1.135l17.676.977,2.7,16.211-2.661,1.074-13.77,5.554a42.945,42.945,0,0,1-2.356,10.083l11.853,13.257L390.9,324.106l-16.3-6.958a42.8,42.8,0,0,1-8.8,5.518l-.915,17.6-16.224,2.686-6.641-16.236a42.886,42.886,0,0,1-10.108-2.368l-13.184,11.829L305.3,326.6l6.934-16.309a42.455,42.455,0,0,1-5.554-8.85Zm45.533-.732a15.23,15.23,0,1,1,.024,0Z" transform="translate(-231.362 -86.904)"/></g><g transform="translate(161.055 52.778)"><rect class="h" width="150.541" height="196.819" rx="13.11" transform="translate(196.405 118.683)"/><rect class="j" width="150.541" height="196.819" rx="13.11" transform="translate(196.405 118.683)"/><path class="e" d="M97.57,215.779V382.42a15.089,15.089,0,0,0,15.089,15.1H233.022a15.089,15.089,0,0,0,15.077-15.1V215.779a15.089,15.089,0,0,0-15.077-15.089H112.659A15.089,15.089,0,0,0,97.57,215.779Z" transform="translate(84.828 -67.137)"/><path class="h" d="M97.57,215.779v8.92H248.1v-8.92a15.089,15.089,0,0,0-15.077-15.089H112.659A15.089,15.089,0,0,0,97.57,215.779Z" transform="translate(84.828 -67.137)"/><rect class="a" width="37.037" height="6.215" transform="translate(281.734 167.896)"/><rect class="a" width="37.037" height="6.215" transform="translate(281.734 223.59)"/><rect class="a" width="37.037" height="6.215" transform="translate(281.734 274.092)"/><rect class="f" width="105.183" height="4.558" transform="translate(213.588 183.284)"/><rect class="f" width="86.216" height="4.443" transform="translate(232.555 191.997)"/><rect class="f" width="97.506" height="4.443" transform="translate(221.265 200.571)"/><rect class="f" width="97.506" height="4.443" transform="translate(221.265 209.134)"/><rect class="f" width="105.183" height="4.558" transform="translate(213.588 233.787)"/><rect class="f" width="86.216" height="4.443" transform="translate(232.555 242.499)"/><rect class="f" width="97.506" height="4.443" transform="translate(221.265 251.074)"/><rect class="f" width="105.183" height="4.558" transform="translate(213.588 289.238)"/><rect class="f" width="86.216" height="4.443" transform="translate(232.555 297.962)"/><rect class="f" width="97.506" height="4.443" transform="translate(221.265 306.536)"/><path class="k" d="M209.71,102.65V170a17.989,17.989,0,0,0,18,17.989H382.832a17.989,17.989,0,0,0,18-17.989V102.65a18.012,18.012,0,0,0-18-18H227.71a18,18,0,0,0-18,18Z" transform="translate(-196.969 -84.65)"/><path class="h" d="M209.71,102.65v1.542H400.832V102.65a18.012,18.012,0,0,0-18-18H227.71a18,18,0,0,0-18,18Z" transform="translate(-196.969 -84.65)"/><path class="f" d="M230.813,96.558a2.762,2.762,0,1,0,0-3.9A2.762,2.762,0,0,0,230.813,96.558Z" transform="translate(-55.032 -83.564)"/><path class="f" d="M241.933,96.558a2.762,2.762,0,1,0,0-3.9A2.762,2.762,0,0,0,241.933,96.558Z" transform="translate(-78.951 -83.564)"/><path class="f" d="M253.053,96.558a2.762,2.762,0,1,0,0-3.9A2.762,2.762,0,0,0,253.053,96.558Z" transform="translate(-102.869 -83.564)"/><rect class="c" width="62.472" height="54.001" transform="translate(129.203 31.927)"/><rect class="f" width="71.898" height="3.798" transform="translate(47.66 31.927)"/><rect class="f" width="55.152" height="3.787" transform="translate(64.406 39.787)"/><rect class="f" width="82.118" height="3.833" transform="translate(37.44 47.614)"/><rect class="f" width="69.93" height="3.833" transform="translate(49.628 55.244)"/><rect class="e" width="50.192" height="35.667" rx="6.53" transform="translate(0 185.16)"/><path class="l" d="M348.91,254.85l9.656,6.054-8.966,7.941" transform="translate(-314.912 -58.963)"/><path class="l" d="M380.1,269.339l-8.678-7.389,10.013-6.56" transform="translate(-363.686 -58.882)"/><line class="l" x1="7.124" y1="22.351" transform="translate(22.178 192.664)"/></g><g transform="translate(136.086 190.099)"><path class="a" d="M228.357,442.96s35.4,10.144,40.345,11.9c4.492,1.587,16.675,5.859,25.819,4.529a19.413,19.413,0,0,0,2.612-.562c9.265-2.759,13.428-5.335,14.649-11.158s-3.394-10.12-7.837-12.867S275.4,429.19,275.4,429.19l-5.823,1.709h0Z" transform="translate(-113.439 -159.094)"/><path class="m" d="M253.3,459.391a19.413,19.413,0,0,0,2.612-.562c9.265-2.759,13.428-5.335,14.649-11.158s-3.394-10.12-7.837-12.867-28.541-5.615-28.541-5.615l-5.823,1.709c5.274,2.441,24.9,3.772,29.188,6.238s6.348,7.1,3.821,13.428C260.011,453.861,256.4,457.1,253.3,459.391Z" transform="translate(-72.214 -159.094)"/><path class="l" d="M228.491,444.138s26.588,6.885,37.135,11.292,30.653,6.336,37.843-2.747.83-16.919-6.336-18.665-21.656-4.492-29.566-3.381" transform="translate(-108.251 -158.831)"/><path class="l" d="M256.206,458.606s13.526-7.422,9.033-17.823c-3.32-7.666-21.363-6.006-30.3-10.193" transform="translate(-75.649 -158.784)"/><path class="a" d="M324.8,461.154c.366,3.662,1.648,7.092,5.31,9.253,2.441,1.44,5.908,2.3,10.877,2.246,12.415-.159,35.755-9.033,35.755-9.033L398.6,451.534,387.23,433.553l-3.113-4.883-8.032,1.807s-6.653,3.772-13.343,6.775-22.938,3.662-28.663,8.264S324.179,455.123,324.8,461.154Z" transform="translate(-317.711 -159.208)"/><path class="m" d="M334.112,461.154c.366,3.662,1.648,7.092,5.31,9.253a16.346,16.346,0,0,1,.61-10.913c2.441-5.481,10.388-10.315,20.838-11.121s18.445-5.689,22.633-7.874c3.272-1.7,10.169-5.408,13.037-6.946l-3.113-4.883-8.032,1.807s-6.653,3.772-13.343,6.775-22.938,3.662-28.663,8.264S333.489,455.123,334.112,461.154Z" transform="translate(-327.021 -159.208)"/><path class="l" d="M391.153,453.624A137.773,137.773,0,0,1,340,471.093c-3.98.476-8.606.549-11.267-2.441a8.325,8.325,0,0,1-1.831-6.238c.476-5.615,5.2-10.059,10.376-12.293s10.877-2.747,16.382-3.98a65.165,65.165,0,0,0,15.748-5.762c3.955-2.063,7.776-4.566,12.134-5.493s9.546.2,11.878,4" transform="translate(-315.115 -157.904)"/><path class="l" d="M344.123,471.173a14.551,14.551,0,0,1-8-10.327c-.794-5.286,2.222-10.608,6.458-13.855s9.546-4.785,14.783-5.872,10.6-1.819,15.613-3.809c7.654-3,15.21-8.911,23.194-6.8" transform="translate(-329.037 -158.9)"/><path class="a" d="M277.924,300.661,314.9,286.6l.464-.183s-.134-.977-.244-2.442c-.232-2.954-.354-7.764,1.038-9.387,2.063-2.441,7.9-.391,13.6-3s16.236,2.063,16.236,2.063,7.617-1.4,10.987,4.089c1.709,4.431,1.123,10.987,1.123,10.987l.7.244c4.407,1.648,28.382,10.669,33.448,14.295,5.6,3.967,11.8,44.7,13.794,56.667s5.53,22.742,3.735,26.856S382.224,410.735,367.4,415.85s-67.373,3.662-67.373,3.662-.855-.232-2.38-.72c-8.887-2.857-40.419-14.649-57.155-42.335C240.472,376.506,256.684,323.367,277.924,300.661Zm99.905,68.52c2.722,1.929,1.221,9.4,1.221,9.4l4.627-4.077-11.621-28.577L367.1,367.9S375.107,367.265,377.83,369.181Zm-92.971,18.152c1.282.659-3.662-13.074-1.318-16.187s9.412-2.82,9.412-2.82l-.6-3.748-4.187-21.485-1.392-1.648s-14.38,24.647-16.956,33.338C269.819,374.809,285.493,387.334,284.858,387.334Z" transform="translate(-226.546 -194.058)"/><path class="m" d="M319.038,222.25l19.092,20.264s2.625,2.332,1.587,8.2-3.479,10.987-5.322,11.328a26.088,26.088,0,0,1-4.419.391s-4.089,8.863-6.995,12.342c0,0-1,13.684-.464,17.481,0,0-6.861,5.994-13.318,6.751s-16.431-9.131-16.431-9.131l-2.441-12.11s-5.86-8.887-6.25-11.255-3.076-1.758-4.395-2.93-4.358-6.384-4.883-11.316-.537-10.6,5.188-8.936c4.968-1.331,1.855-11.829,1.855-11.829l8.728-7.691Z" transform="translate(-197.845 -204.773)"/><path class="d" d="M282.68,286.583a21.584,21.584,0,0,0,.989,2.21c3.149,5.933,16.871,17.249,16.871,17.249l4.151-12.757,2.271,12.757c4.578-2,18.543-14.1,18.543-14.1s.476-1.135,1.05-2.905l-.7-.244s.586-6.6-1.123-10.987c-3.345-5.493-10.987-4.089-10.987-4.089s-10.535-4.675-16.236-2.063-11.536.586-13.6,3-.793,11.792-.793,11.792Z" transform="translate(-194.325 -194.043)"/><path class="j" d="M350.782,298.277l36.976-14.063.464-.183s-.134-.977-.244-2.441l.769,4.8,5.469,7.422a151.365,151.365,0,0,0-17.09,7.52,14.991,14.991,0,0,0-7.813,14.942l6.812,58.29,2.8,33.094-8.435,8.753c-8.887-2.857-40.419-14.649-57.155-42.335C313.33,374.122,329.541,320.983,350.782,298.277Zm6.934,86.672c1.282.659-3.662-13.074-1.318-16.187s9.412-2.82,9.412-2.82l-.6-3.748-4.187-21.485-1.392-1.648s-14.38,24.647-16.956,33.338C342.677,372.425,358.351,384.95,357.716,384.95Z" transform="translate(-299.403 -191.674)"/><path class="j" d="M247.05,364.4l5.75-19.214s10.315-35.169,17.383-43.837l-1.855,24.732s6.1,29.542,11.682,38.319,6.824,10.987,0,10.987-23.438,13.233-23.438,13.233l1.282-10.987Zm14.49,7.434,4.627-4.077-11.621-28.577-4.956,21.973s7.959-.6,10.681,1.318S261.541,371.835,261.541,371.835Z" transform="translate(-108.95 -187.313)"/><path class="l" d="M288.957,265.28s-1.05,10.364,0,15.1" transform="translate(-163.821 -195.274)"/><path class="l" d="M315.258,278.3a44.6,44.6,0,0,0-1.148-9.9" transform="translate(-221.397 -194.586)"/><path class="l" d="M287.909,228.58s-6.275,7.874-5.945,13.831.793,13.013.635,19.922S293.7,283.721,299.482,285s10.767,1.611,14.466-2.087,7.4-8.838,12.207-15.43,3.662-21.058,3.662-21.058" transform="translate(-196.82 -203.376)"/><path class="l" d="M306.464,247.71a32.741,32.741,0,0,1,.488,6.555,7.385,7.385,0,0,1-1.611,5.127c-.7.708-1.7,1.282-1.831,2.258a2.441,2.441,0,0,0,1.294,2.136,18.994,18.994,0,0,1,2.258,1.343" transform="translate(-200.262 -199.153)"/><path class="l" d="M302.853,262.6s-.72,4.675-6.983,5.652" transform="translate(-186.726 -195.866)"/><path class="f" d="M294.26,251.071c0,1.355.586,2.441,1.306,2.441s1.306-1.086,1.306-2.441-.586-2.441-1.306-2.441S294.26,249.729,294.26,251.071Z" transform="translate(-178.78 -198.95)"/><path class="f" d="M309.57,251.551c0,1.355.586,2.441,1.306,2.441s1.306-1.1,1.306-2.441-.586-2.441-1.306-2.441S309.57,250.2,309.57,251.551Z" transform="translate(-212.78 -198.844)"/><path class="n" d="M319.839,246.715s-6.1-6.1-11.219.708" transform="translate(-219.276 -199.928)"/><path class="n" d="M289.95,246.707s3.858-4.321,9.937,0" transform="translate(-176.533 -199.798)"/><path class="f" d="M319.875,271.033s-3.723,10.254-12.036,13.172S288.49,272,288.49,272l.574-1.965s7.239,9.4,15.284,7.8,15.992-12.513,15.992-12.513Z" transform="translate(-195.203 -195.266)"/><path class="l" d="M274.779,258.535s4.956,1.746,6.275-2.112,5.835-14.026,1.88-17.42-7.129,4.48-7.129,4.48" transform="translate(-142.648 -201.262)"/><path class="l" d="M330.109,260.4s-4.6.928-5.921-2.93-5.835-14.026-1.88-17.42,7.129,4.48,7.129,4.48" transform="translate(-244.317 -201.03)"/><path class="f" d="M330.073,260.055a6.861,6.861,0,0,1-4.346-2.564,10.67,10.67,0,0,1-1.221-3.894,45.885,45.885,0,0,1-.684-7.862,10.753,10.753,0,0,0-.281-3.064,8.057,8.057,0,0,0-1.66-2.722c-1.721-2.026-3.809-3.735-5.457-5.835a9.766,9.766,0,0,1-2.441-7.324,33.509,33.509,0,0,1-27.43,7.092c-8.728-1.709-17.09-9.363-16.077-18.982a7.776,7.776,0,0,1,6.1-6.69c4.309-1.074,8.179,1.221,12.085,2.7,7.117,2.686,14.087-1.929,21.277-2.7,6.1-.671,13.709.1,16.907,6.214,0,0,10.987,1.294,15.87,10.376s-4.358,21.644-4.358,21.644-3.662-4.492-8.46,4.59Z" transform="translate(-196.917 -207.933)"/><path class="f" d="M325.963,227.377s2.857,14.893-4.6,22.108c0,0-1.636-4.48-3.284-5.579a17.249,17.249,0,0,1,1.306-16.529C324.9,218.709,325.963,227.377,325.963,227.377Z" transform="translate(-235.63 -204.491)"/><path class="o" d="M280.86,212.8a14.026,14.026,0,0,0,8.545,8.875c10.352,4.224,20.4-.452,30.775-1.367,8.46-.757,17.8,6.885,18.4,15.577" transform="translate(-204.126 -206.859)"/><path class="o" d="M286.617,232.717A18.079,18.079,0,0,0,275.63,216.75" transform="translate(-145.782 -205.987)"/><path class="l" d="M321.345,276.731a47.254,47.254,0,0,1-16.126,10.987s-12.39-3.6-18.689-12.207" transform="translate(-193.817 -193.016)"/><ellipse class="l" cx="10.962" cy="10.962" rx="10.962" ry="10.962" transform="translate(124.827 66.632) rotate(-155.36)"/><ellipse class="l" cx="10.962" cy="10.962" rx="10.962" ry="10.962" transform="translate(104.503 64.363) rotate(-173)"/><path class="l" d="M319.577,273.16a8.545,8.545,0,0,1,5.286,4.09c1.941,3.418.769,14.173.769,14.173s-10.022,9.912-18.555,14.1l-2.515-14.148-3.906,14.148s-13.208-9.339-16.871-17.237c0,0-1.221-9.217,0-12.207a4.236,4.236,0,0,1,3.943-2.893" transform="translate(-194.442 -193.535)"/><path class="l" d="M268.15,357.382s3.919-26.246,9.131-36.952" transform="translate(-127.316 -183.101)"/><path class="l" d="M267.026,301.35a106.2,106.2,0,0,0-8.106,13.562" transform="translate(-105.793 -187.313)"/><path class="l" d="M347.539,319.716a75.8,75.8,0,0,0-4.309-12.806" transform="translate(-289.227 -186.085)"/><path class="l" d="M342.789,356.633s-2.82-17.994-6.189-32.813" transform="translate(-276.383 -182.353)"/><path class="l" d="M351.433,331.351a20.753,20.753,0,0,0-10.913-7.471" transform="translate(-289.813 -182.339)"/><path class="l" d="M393.118,283.59s-22.742,9.095-37.428,14.258c0,0-18.067,16.98-37.44,75.832,0,0,17.75,29.859,51.515,39.43" transform="translate(-304.311 -191.233)"/><path class="l" d="M376.1,370.245l-16.321-13.587s-8.631-6.555-17.6-2.075" transform="translate(-316.51 -175.908)"/><path class="l" d="M358.614,328.67S345.125,348.6,341.67,362.033" transform="translate(-298.397 -181.282)"/><path class="l" d="M249.86,360.551l4.773-4.529s7.08-1.221,15.113,4.138" transform="translate(-97.453 -175.271)"/><path class="l" d="M274.02,361.34s-5.933-19.532-11.78-29.53" transform="translate(-116.84 -180.589)"/><path class="l" d="M240.918,285.55s32.728,12.281,35.939,15.87,15.406,72.255,15.735,80.117c.281,7.031-25.208,22.816-37.843,29.469" transform="translate(-109.386 -190.8)"/><path class="f" d="M299.76,304.951a2.149,2.149,0,1,0,.629-1.531A2.161,2.161,0,0,0,299.76,304.951Z" transform="translate(-192.703 -186.995)"/><path class="f" d="M273.636,399.411H348.1a1.746,1.746,0,0,0,1.746-1.746h0a1.746,1.746,0,0,0-1.746-1.746H273.636a1.746,1.746,0,0,0-1.746,1.746h0a1.746,1.746,0,0,0,1.746,1.746Z" transform="translate(-204.446 -166.437)"/><path class="e" d="M275.334,403.565l-9.973-46.876a4.981,4.981,0,0,1,4.883-6.018h87.039a4.981,4.981,0,0,1,4.883,5.957l-8.948,45.314a4.981,4.981,0,0,1-4.773,4.016l-68.1,1.563a5.005,5.005,0,0,1-5.005-3.955Z" transform="translate(-208.757 -176.426)"/><path class="f" d="M299.06,374.088a6.946,6.946,0,1,0,2.03-4.919,6.946,6.946,0,0,0-2.03,4.919Z" transform="translate(-200.719 -172.792)"/><line class="l" x1="10.34" transform="translate(74.341 178.724)"/><line class="l" x1="39.247" transform="translate(94.813 178.724)"/><path class="f" d="M299.29,446.148l7.935,20.826s20.24-5.1,46.156-10.413c27.113-5.554,55.422-12.745,70.107-38.514,1.782-3.137,2.979-6.848,2.136-10.364-2.112-8.9-13.7-11.316-21.326-12.207a139.037,139.037,0,0,0-14.441-.806c-2.441,0-10.559-1.331-12.525.122a57.538,57.538,0,0,1-9.412,5.579c-4.334,1.843-67.592-1.648-67.592-1.648a22.692,22.692,0,0,1-1.99-7.605c-9.949-5.054-32.96-9.326-42.726-7.434-15.3,2.966-24.219,11.89-22.523,21.241S268.577,439.348,299.29,446.148Z" transform="translate(-232.884 -169.24)"/><path class="p" d="M267.06,441.363s19.251-5.1,34.974-15.723,28-22.95,49.916-20.4" transform="translate(-200.654 -164.455)"/><path class="p" d="M357.162,425.84c-9.937-2.857-17.225-9.29-25.2-15.455A170.437,170.437,0,0,0,305,392.66" transform="translate(-252.181 -167.157)"/><line class="l" x1="2.918" transform="translate(105.567 53.855)"/></g></g></svg>