<svg xmlns="http://www.w3.org/2000/svg" width="25" height="21.611" viewBox="0 0 25 21.611"><defs><style>.a{fill:#f9ab31;stroke:#f9ab31;}</style></defs><path class="a" d="M23.021,6.793H18.46V4.317a.636.636,0,0,0-.636-.636H9.488a.636.636,0,0,0-.636.636V6.793H4.292A2.638,2.638,0,0,0,1.657,9.429V21.656a2.638,2.638,0,0,0,2.635,2.636H23.022a2.639,2.639,0,0,0,2.635-2.636V9.43A2.64,2.64,0,0,0,23.021,6.793Zm-12.9-1.84h7.065v1.84H10.124ZM4.292,8.066H23.022A1.366,1.366,0,0,1,24.386,9.43v5.477H15.794v-.556a2.138,2.138,0,0,0-4.275,0v.556H2.928V9.43A1.365,1.365,0,0,1,4.292,8.066Zm10.23,6.286v2.384a.866.866,0,0,1-1.732,0V14.352a.866.866,0,0,1,1.732,0Zm8.5,8.669H4.292a1.365,1.365,0,0,1-1.365-1.365V16.179H11.52v.556a2.138,2.138,0,1,0,4.275,0v-.556h8.592v5.477A1.369,1.369,0,0,1,23.021,23.021Z" transform="translate(-1.157 -3.181)"/></svg>