<svg xmlns="http://www.w3.org/2000/svg" width="292.3" height="255.458" viewBox="0 0 292.3 255.458"><defs><style>.a{fill:#f5f5f5;}.b{fill:#e0e0e0;}.c{fill:#ebebeb;}.d{fill:#fafafa;}.e{fill:#455a64;}.f{fill:#ffbe9d;}.g{fill:#263238;}.h{fill:#eb996e;}.i{fill:#4285f2;}.j{opacity:0.3;}.k{fill:#fff;}.l{opacity:0.4;}</style></defs><g transform="translate(-17.71 -40.108)"><g transform="translate(28.462 40.108)"><path class="a" d="M373.69,369.121c-9.783-6.839-12-19.5-11.614-30.929.063-1.887-.145-3.913.761-5.581s3.02-2.812,4.725-2.013c1.409.667,2.026,2.309,2.819,3.674a11.149,11.149,0,0,0,4.467,4.259,4.238,4.238,0,0,0,3.907.359c1.642-.906,1.837-3.177,1.825-5.071q0-5.3-.063-10.589a17.741,17.741,0,0,1,.566-5.625,5.874,5.874,0,0,1,3.693-3.97,3.551,3.551,0,0,1,4.4,2.391,18.285,18.285,0,0,1,.057,2.353,2.009,2.009,0,0,0,1.164,1.887,2.281,2.281,0,0,0,2.076-.868A25.191,25.191,0,0,0,397,312.573a35.738,35.738,0,0,1,4.215-7.04,10.217,10.217,0,0,1,6.921-3.888c2.693-.151,5.6,1.516,6.292,4.178s-.868,5.379-2.567,7.55a42.153,42.153,0,0,1-8.808,8.387,3.511,3.511,0,0,0-1.472,1.586c-.409,1.258.786,2.517,2.032,2.932a22.437,22.437,0,0,0,4.4.5c1.46.176,3.077.824,3.63,2.221.78,1.932-.843,3.964-2.435,5.291a36.126,36.126,0,0,1-10.7,6.185,12.212,12.212,0,0,0-3.983,1.938,3.5,3.5,0,0,0-1.12,4.014,3.565,3.565,0,0,0,3.876,1.491,24.932,24.932,0,0,0,4.159-1.592c2.6-.981,5.964-.8,7.625,1.447a5.983,5.983,0,0,1,.629,5.3,13.841,13.841,0,0,1-2.869,4.675,36.441,36.441,0,0,1-15.546,10.928c-6.04,2.1-11.633,2.661-17.616.466" transform="translate(-156.153 -137.094)"/><path class="b" d="M380.33,378.536a83.165,83.165,0,0,1,3.089-15.609,170.343,170.343,0,0,1,6.738-18.246l2.013-4.7c.661-1.541,1.321-3.064,2.057-4.524a84.527,84.527,0,0,1,4.706-8.1c1.623-2.517,3.253-4.832,4.794-6.99s3.026-4.14,4.454-5.889a66.692,66.692,0,0,1,7.33-7.751c.931-.849,1.68-1.479,2.19-1.887l.585-.472a.949.949,0,0,1,.208-.151,1.538,1.538,0,0,1-.182.176l-.56.5c-.5.44-1.258,1.082-2.152,1.944a71.25,71.25,0,0,0-7.229,7.808c-1.409,1.755-2.875,3.737-4.4,5.9s-3.146,4.486-4.756,7a85.64,85.64,0,0,0-4.675,8.091c-.73,1.447-1.378,2.963-2.045,4.511l-2.007,4.694a173.79,173.79,0,0,0-6.751,18.245,84.611,84.611,0,0,0-3.146,15.54" transform="translate(-162.938 -138.052)"/><path class="b" d="M400.948,341.541a3.731,3.731,0,0,1-.189-.805c-.1-.522-.214-1.258-.352-2.227-.264-1.887-.547-4.5-.843-7.386s-.629-5.493-.912-7.367c-.145-.944-.271-1.7-.365-2.221a3.945,3.945,0,0,1-.107-.824,3.648,3.648,0,0,1,.239.793c.132.516.3,1.258.472,2.208.359,1.887.717,4.48,1.019,7.374s.547,5.423.742,7.393c.094.887.176,1.636.245,2.24A4.743,4.743,0,0,1,400.948,341.541Z" transform="translate(-169.557 -144.168)"/><path class="b" d="M426.922,346.569a5.46,5.46,0,0,1-.969.12c-.629.05-1.529.126-2.643.258-2.233.239-5.3.679-8.663,1.315s-6.386,1.346-8.557,1.925c-1.082.277-1.957.529-2.561.7a4.615,4.615,0,0,1-.95.233,5.442,5.442,0,0,1,.906-.365c.629-.208,1.46-.5,2.517-.805,2.158-.629,5.178-1.39,8.557-2.032a85.409,85.409,0,0,1,8.7-1.214c1.12-.1,2.032-.138,2.661-.151A4.88,4.88,0,0,1,426.922,346.569Z" transform="translate(-171.189 -153.744)"/><path class="b" d="M378.507,378.493a1.944,1.944,0,0,1-.164-.3l-.422-.881c-.359-.768-.843-1.887-1.434-3.284-1.17-2.787-2.674-6.694-4.272-11.023s-3.064-8.242-4.178-11.054l-1.309-3.322c-.145-.365-.264-.661-.359-.906a1.214,1.214,0,0,1-.1-.327,1.139,1.139,0,0,1,.164.3l.422.881c.352.768.843,1.887,1.428,3.284,1.176,2.793,2.68,6.694,4.278,11.023s3.058,8.248,4.178,11.054l1.328,3.322c.145.365.258.667.359.912a1.3,1.3,0,0,1,.082.321Z" transform="translate(-157.724 -154.065)"/><path class="b" d="M418.071,380.25a1.193,1.193,0,0,1-.321.132l-.937.315-3.467,1.126c-2.926.944-6.952,2.3-11.394,3.806s-8.487,2.825-11.432,3.718c-1.479.44-2.668.793-3.5,1.013l-.963.252a1.057,1.057,0,0,1-.34.063,1.334,1.334,0,0,1,.321-.132l.937-.315,3.467-1.12c2.926-.95,6.921-2.309,11.394-3.813s8.487-2.825,11.432-3.712c1.479-.447,2.674-.793,3.5-1.019l.956-.252a1.342,1.342,0,0,1,.34-.063Z" transform="translate(-164.937 -166.248)"/><path class="b" d="M457.661,329.4a2.518,2.518,0,0,1-.252-.371l-.629-1.013c-.529-.868-1.258-2.089-2.139-3.555l.2.05-4.977,2.913c0,.044.113-.428.057-.227h0v.044l.05.082.094.176.2.34.384.667.742,1.3,1.353,2.372-.2-.05c1.485-.837,2.737-1.529,3.63-2.013l1.051-.56a2.084,2.084,0,0,1,.4-.2,2.94,2.94,0,0,1-.321.22l-.988.629c-.856.529-2.108,1.29-3.63,2.183l-.126.069-.069-.12c-.428-.73-.893-1.523-1.378-2.359l-.755-1.29-.384-.667-.2-.34-.094-.176-.05-.082v-.044h0c-.05.2.075-.271.063-.22l5.033-2.875.12-.069.069.12c.875,1.535,1.579,2.825,2.057,3.706.22.409.4.742.547,1.026a1.592,1.592,0,0,1,.138.333Z" transform="translate(-188.634 -145.469)"/><rect class="b" width="6.084" height="30.275" transform="matrix(1, -0.005, 0.005, 1, 73.226, 15.378)"/><rect class="c" width="15.76" height="16.717" transform="matrix(1, -0.005, 0.005, 1, 20.51, 15.506)"/><rect class="a" width="15.76" height="16.717" transform="matrix(1, -0.005, 0.005, 1, 36.188, 15.422)"/><path class="b" d="M67.355,71.806c10.469.088,20.97,0,31.458-.145a.17.17,0,0,0,0-.333q-15.7-.085-31.458.189a.145.145,0,1,0,0,.289Z" transform="translate(-46.819 -51.678)"/><rect class="c" width="28.627" height="13.621" transform="matrix(1, -0.005, 0.005, 1, 10.69, 32.012)"/><rect class="a" width="28.627" height="13.621" transform="matrix(1, -0.005, 0.005, 1, 39.183, 31.858)"/><path class="b" d="M51.725,96.606c19.019.214,38.108,0,57.121-.283a.17.17,0,0,0,0-.333c-19.019-.1-38.108-.088-57.121.327a.145.145,0,1,0,0,.289Z" transform="translate(-41.023 -60.812)"/><rect class="b" width="110.914" height="4.882" transform="translate(0 45.64)"/><rect class="b" width="4.505" height="16.654" transform="translate(18.157 47.987)"/><rect class="b" width="4.505" height="16.654" transform="translate(85.37 47.987)"/><rect class="c" width="6.084" height="41.644" transform="matrix(1, -0.005, 0.005, 1, 79.167, 4.084)"/><rect class="a" width="9.456" height="33.748" transform="matrix(1, -0.005, 0.005, 1, 85.299, 11.859)"/><path class="b" d="M179.726,69.1a33.5,33.5,0,0,1-4.725.164,33.63,33.63,0,0,1-4.731-.164A34.812,34.812,0,0,1,175,68.938a34.681,34.681,0,0,1,4.725.164Z" transform="translate(-85.038 -50.792)"/><path class="b" d="M179.726,66.891a34.679,34.679,0,0,1-4.725.164,34.812,34.812,0,0,1-4.731-.164A33.626,33.626,0,0,1,175,66.727a33.5,33.5,0,0,1,4.725.164Z" transform="translate(-85.038 -49.971)"/><path class="b" d="M179.726,104.332a32.9,32.9,0,0,1-4.725.17,33.019,33.019,0,0,1-4.731-.17,34.811,34.811,0,0,1,4.731-.164A34.679,34.679,0,0,1,179.726,104.332Z" transform="translate(-85.038 -63.857)"/><path class="b" d="M179.726,102.082a33.5,33.5,0,0,1-4.725.164,33.629,33.629,0,0,1-4.731-.164,34.813,34.813,0,0,1,4.731-.164,34.679,34.679,0,0,1,4.725.164Z" transform="translate(-85.038 -63.023)"/><path class="b" d="M177.9,88.313c-.088,0-.164-3.41-.164-7.607s.076-7.606.164-7.606.164,3.4.164,7.606S178.011,88.313,177.9,88.313Z" transform="translate(-87.808 -52.343)"/><rect class="c" width="10.293" height="25.475" transform="translate(94.789 20.097)"/><path class="d" d="M192.751,99.634a2.215,2.215,0,0,1-2.3-2.3,1.994,1.994,0,0,1,.831-1.718l.239.321a1.667,1.667,0,0,0-.68,1.4,1.91,1.91,0,1,0,3.819,0,1.648,1.648,0,0,0-.68-1.4l.239-.321a2.013,2.013,0,0,1,.83,1.718,2.215,2.215,0,0,1-2.3,2.3Z" transform="translate(-92.52 -60.694)"/><path class="d" d="M194.459,92.524l-.352-.2a2.624,2.624,0,0,0,.547-1.63c0-.956-.333-1.34-.849-1.34-1.315,0-.346,3.007-2.127,3.007-.686,0-1.258-.573-1.258-1.724a2.793,2.793,0,0,1,.44-1.548l.352.2a2.315,2.315,0,0,0-.409,1.365c0,.887.365,1.258.849,1.258,1.359,0,.4-3.007,2.127-3.007.736,0,1.258.629,1.258,1.787a2.875,2.875,0,0,1-.579,1.837Z" transform="translate(-92.511 -58.202)"/><path class="d" d="M194.459,85.938l-.352-.2a2.63,2.63,0,0,0,.547-1.636c0-.95-.333-1.334-.849-1.334-1.315,0-.346,3-2.127,3-.686,0-1.258-.573-1.258-1.718a2.831,2.831,0,0,1,.44-1.554l.352.2a2.3,2.3,0,0,0-.409,1.365c0,.881.365,1.258.849,1.258,1.359,0,.4-3,2.127-3,.736,0,1.258.629,1.258,1.787a2.875,2.875,0,0,1-.579,1.831Z" transform="translate(-92.511 -55.762)"/><circle class="b" cx="1.749" cy="1.749" r="1.749" transform="translate(80.362 9.42)"/><rect class="b" width="1.082" height="24.77" transform="translate(81.57 15.976)"/><path class="b" d="M383.48,291.708a64.221,64.221,0,0,1,4.568-4.8,65.966,65.966,0,0,1,4.8-4.568c.063.063-1.982,2.215-4.574,4.8S383.543,291.771,383.48,291.708Z" transform="translate(-164.106 -129.938)"/><path class="b" d="M392.848,291.707a65.984,65.984,0,0,1-4.8-4.568,64.2,64.2,0,0,1-4.568-4.8c.063-.063,2.208,1.982,4.8,4.568A65.82,65.82,0,0,1,392.848,291.707Z" transform="translate(-164.106 -129.937)"/><path class="b" d="M247.28,210.948a65.839,65.839,0,0,1,4.568-4.8,64.217,64.217,0,0,1,4.8-4.568c.063.063-1.982,2.208-4.568,4.8A65.82,65.82,0,0,1,247.28,210.948Z" transform="translate(-113.597 -99.989)"/><path class="b" d="M256.648,210.948c-.063.063-2.215-1.982-4.8-4.568a65.676,65.676,0,0,1-4.568-4.8,65.7,65.7,0,0,1,4.8,4.568C254.654,208.765,256.711,210.885,256.648,210.948Z" transform="translate(-113.597 -99.989)"/><path class="b" d="M226.293,79.465a50.192,50.192,0,0,1-.629-5.662,49.535,49.535,0,0,1-.333-5.662,49.264,49.264,0,0,1,.661,5.662,48.616,48.616,0,0,1,.3,5.662Z" transform="translate(-105.457 -50.503)"/><path class="b" d="M228.425,76.33a49.7,49.7,0,0,1-5.662.629,51.44,51.44,0,0,1-5.662.333,47.641,47.641,0,0,1,5.662-.661,48.584,48.584,0,0,1,5.662-.3Z" transform="translate(-102.405 -53.54)"/><path class="b" d="M134.585,179.4a1.044,1.044,0,0,1-.12-.176l-.308-.5-1.139-1.887-3.945-6.682.2.05-9.311,5.423c0,.05.113-.422.057-.22h0v.038l.05.082.088.157.189.321.365.629.717,1.258,1.384,2.416,2.517,4.4-.2-.057,6.757-3.819,1.932-1.07.516-.277.2-.094a6.3,6.3,0,0,1-.629.4l-1.887,1.114-6.763,3.989-.126.076-.069-.126-2.554-4.4-1.4-2.41-.717-1.258-.371-.629-.182-.321-.088-.157-.05-.082v-.038h0c-.05.2.075-.277.063-.226l9.374-5.36.12-.069.069.12,3.869,6.87,1.051,1.887Q134.427,179.073,134.585,179.4Z" transform="translate(-66.278 -88.237)"/><path class="b" d="M467.876,280.139a3.843,3.843,0,0,0-.283-.547,2.567,2.567,0,0,0-1.258-1.044,2.435,2.435,0,0,0-2.278.271,2.391,2.391,0,1,0,3.246,3.448,2.516,2.516,0,0,0,.566-1.51c0-.4-.044-.629,0-.629a1.158,1.158,0,0,1,.145.629,2.516,2.516,0,0,1-.51,1.648,2.636,2.636,0,0,1-2.328,1.038,2.674,2.674,0,0,1-1.258-4.876,2.642,2.642,0,0,1,2.517-.233,2.516,2.516,0,0,1,1.258,1.2A1.152,1.152,0,0,1,467.876,280.139Z" transform="translate(-193.501 -128.372)"/><path class="b" d="M280.968,42.129c-.031,0-.088-.214-.289-.547a2.517,2.517,0,0,0-1.258-1.044,2.441,2.441,0,0,0-2.278.271,2.391,2.391,0,1,0,3.246,3.448,2.517,2.517,0,0,0,.566-1.51c0-.4-.044-.629,0-.629a1.328,1.328,0,0,1,.145.629,2.517,2.517,0,0,1-.516,1.648,2.636,2.636,0,0,1-2.328,1.038A2.674,2.674,0,0,1,277,40.556a2.642,2.642,0,0,1,2.517-.233,2.517,2.517,0,0,1,1.258,1.2,1.321,1.321,0,0,1,.2.61Z" transform="translate(-124.183 -40.108)"/><path class="b" d="M94.981,156.574a4.5,4.5,0,0,0-.289-.547,2.517,2.517,0,0,0-1.258-1.044,2.435,2.435,0,0,0-2.278.271,2.384,2.384,0,0,0,1.126,4.329,2.435,2.435,0,0,0,2.12-.881,2.573,2.573,0,0,0,.566-1.51c0-.39-.05-.629,0-.629a1.328,1.328,0,0,1,.145.629,2.517,2.517,0,0,1-.51,1.655,2.623,2.623,0,0,1-2.309,1.019,2.664,2.664,0,1,1,1.258-5.109,2.567,2.567,0,0,1,1.258,1.2A1.34,1.34,0,0,1,94.981,156.574Z" transform="translate(-55.218 -82.546)"/><path class="b" d="M447.362,139.33c-.038,0-.138-.459-.554-1.2a5.335,5.335,0,0,0-5.033-2.68,5.259,5.259,0,0,0-2.6.931,4.845,4.845,0,0,0-1.1,1.026,5.152,5.152,0,0,0-.786,1.353,5.209,5.209,0,0,0,1.56,5.977,4.977,4.977,0,0,0,1.346.8,5.108,5.108,0,0,0,1.46.359,5.278,5.278,0,0,0,2.724-.466,5.165,5.165,0,0,0,1.888-1.5,5.361,5.361,0,0,0,1.17-3.29c0-.849-.145-1.309-.1-1.315a2.005,2.005,0,0,1,.1.333,4.787,4.787,0,0,1,.132.981,5.436,5.436,0,0,1-3.089,5.033,5.493,5.493,0,0,1-2.869.516,5.228,5.228,0,0,1-1.548-.365,5.033,5.033,0,0,1-1.434-.843,5.5,5.5,0,0,1-1.655-6.342,5.064,5.064,0,0,1,.843-1.428,5.14,5.14,0,0,1,1.17-1.082,5.461,5.461,0,0,1,5.253-.516,5.373,5.373,0,0,1,2.655,2.454,4.306,4.306,0,0,1,.365.919A2.254,2.254,0,0,1,447.362,139.33Z" transform="translate(-183.796 -75.362)"/><path class="b" d="M424.036,263.234a5.871,5.871,0,0,1-.327-.579l-.937-1.73c-.8-1.491-1.957-3.637-3.265-6.159l-.126-.245h.277l4.662.289,4.838.321h.264l-.145.22c-1.523,2.347-2.85,4.335-3.775,5.713l-1.076,1.6a5.466,5.466,0,0,1-.384.535s.132-.239.378-.629.629-.994,1.038-1.68c.881-1.428,2.108-3.41,3.567-5.7l.12.239-4.838-.3-4.668-.308.151-.227c1.258,2.46,2.29,4.587,3.045,6.122.365.736.661,1.34.887,1.806A6.144,6.144,0,0,1,424.036,263.234Z" transform="translate(-177.419 -119.621)"/><path class="b" d="M354.291,74.4s-.113-.189-.333-.585L353,72.095c-.8-1.491-1.957-3.643-3.265-6.166l-.126-.239h.271l4.668.3,4.838.321h.264l-.145.22c-1.523,2.34-2.856,4.329-3.775,5.706l-1.076,1.6a5.455,5.455,0,0,1-.384.535s.132-.239.378-.629l1.032-1.68c.887-1.428,2.108-3.4,3.574-5.662l.12.239-4.838-.3-4.668-.315.151-.22c1.258,2.454,2.29,4.58,3.045,6.115q.541,1.114.887,1.812A6.378,6.378,0,0,1,354.291,74.4Z" transform="translate(-151.545 -49.595)"/><path class="b" d="M236.1,297.748a4.987,4.987,0,0,1,.352-.566l1.082-1.636c.925-1.409,2.265-3.448,3.876-5.807l.126-.189.126.189,3,4.4L247,297.628l.17.245h-.3c-3.146,0-5.9-.057-7.8-.088l-2.215-.044H236.1c.019,0,.315,0,.849-.031l2.265-.038c1.925-.031,4.58-.082,7.657-.088l-.132.245-2.347-3.479c-1.057-1.567-2.064-3.07-2.982-4.448h.252c-1.579,2.278-2.951,4.2-3.945,5.593l-1.17,1.636C236.269,297.528,236.112,297.742,236.1,297.748Z" transform="translate(-109.45 -132.612)"/></g><g transform="translate(105.899 154.754)"><path class="e" d="M306.5,297.41h0a39.391,39.391,0,0,1,39.391,39.379v45.677H267.11V336.789A39.391,39.391,0,0,1,306.5,297.41Z" transform="translate(-198.387 -250.173)"/><path class="f" d="M166.248,397.4l-3.964,2.806-4.4,10.576a1.79,1.79,0,0,0,2.12-.05c.925-.856,4.461-7,4.461-7v3.637a2.919,2.919,0,0,0,2.586,2.882l6.531,2.038L181.593,410l.686-9.538Z" transform="translate(-157.88 -287.254)"/><path class="g" d="M281.179,265.632c-1.963-.566-2.926-2.812-3.1-4.844s.157-4.134-.4-6.1c-.4-1.4-1.227-2.68-1.334-4.127-.113-1.56.629-3.064.679-4.624.057-2.183-1.258-4.209-1.258-6.392-.044-3.02.5-8.009,3.517-7.839s7.858,5.461,7.474,8.456" transform="translate(-201.597 -225.806)"/><path class="f" d="M311.751,244.66l-.063,3.02-.629,45.148c-.069,5.241-4.631,9.356-10.243,9.236h0c-5.662-.12-10.274-4.5-10.287-9.8,0-5.562-.138-11.413-.138-11.413s-7.16-1.189-8.645-10.532c-.736-4.643-.5-12.262-.113-18.491a9.872,9.872,0,0,1,10.884-9.2Z" transform="translate(-203.637 -229.838)"/><path class="g" d="M284.93,265.073a1.208,1.208,0,0,0,1.158,1.214,1.145,1.145,0,0,0,1.258-1.082A1.189,1.189,0,0,0,286.169,264a1.145,1.145,0,0,0-1.239,1.076Z" transform="translate(-204.996 -237.781)"/><path class="g" d="M284.508,262.853c.145.157,1.057-.516,2.347-.51s2.233.629,2.372.491-.082-.352-.5-.629a3.322,3.322,0,0,0-1.887-.585,3.145,3.145,0,0,0-1.887.629C284.571,262.488,284.433,262.784,284.508,262.853Z" transform="translate(-204.832 -236.901)"/><path class="g" d="M305.45,265.072a1.2,1.2,0,0,0,1.151,1.214,1.158,1.158,0,0,0,1.258-1.082A1.2,1.2,0,0,0,306.7,264a1.139,1.139,0,0,0-1.252,1.076Z" transform="translate(-212.605 -237.78)"/><path class="g" d="M304.65,263.273c.151.157,1.057-.51,2.347-.51s2.233.629,2.378.491-.082-.352-.5-.629a3.353,3.353,0,0,0-1.887-.585,3.177,3.177,0,0,0-1.887.629C304.713,262.9,304.58,263.179,304.65,263.273Z" transform="translate(-212.302 -237.057)"/><path class="g" d="M295.305,272.826a9.091,9.091,0,0,0-2.1-.378c-.333-.031-.629-.1-.7-.321a1.7,1.7,0,0,1,.22-.975l.975-2.517a42.72,42.72,0,0,0,2.183-6.556,43.41,43.41,0,0,0-2.705,6.367c-.327.881-.629,1.718-.937,2.517a1.95,1.95,0,0,0-.17,1.258.83.83,0,0,0,.541.478,2.183,2.183,0,0,0,.56.082A8.261,8.261,0,0,0,295.305,272.826Z" transform="translate(-207.632 -237.071)"/><path class="h" d="M295.81,301.445a23.751,23.751,0,0,0,12.514-3.335s-3.039,6.417-12.388,5.543Z" transform="translate(-209.031 -250.433)"/><path class="h" d="M298.014,283.583a2.328,2.328,0,0,1,2.083-.862,2.12,2.12,0,0,1,1.466.786,1.34,1.34,0,0,1,.1,1.535,1.548,1.548,0,0,1-1.686.428,4.907,4.907,0,0,1-1.648-.981,1.435,1.435,0,0,1-.371-.384.428.428,0,0,1,0-.478" transform="translate(-209.8 -244.721)"/><path class="g" d="M300.838,280.58c-.214,0-.214,1.39-1.409,2.378s-2.693.843-2.7,1.038c0,.088.327.271.956.289a3.5,3.5,0,0,0,2.259-.786,3.02,3.02,0,0,0,1.088-1.994C301.09,280.92,300.933,280.574,300.838,280.58Z" transform="translate(-209.372 -243.932)"/><path class="g" d="M304.127,255.363c.132.352,1.416.189,2.932.371s2.737.591,2.932.277c.094-.151-.12-.478-.629-.818a5.121,5.121,0,0,0-4.467-.491C304.353,254.923,304.076,255.2,304.127,255.363Z" transform="translate(-212.112 -234.224)"/><path class="g" d="M285.25,256.877c.226.3,1.114,0,2.183,0s1.976.2,2.183-.107c.088-.151-.05-.447-.447-.724a3.051,3.051,0,0,0-1.774-.478,3.014,3.014,0,0,0-1.743.591C285.276,256.43,285.15,256.732,285.25,256.877Z" transform="translate(-205.102 -234.656)"/><path class="g" d="M335.19,235.1c1.944-5.279,10.035-13.212,16.257-9.689,6.814,3.876,4.4,6.568,6.864,8.355.585.422,3.353-.5,3.737.12,1.013,1.63.151,3.737-.711,5.449a2.939,2.939,0,0,0,.629-.164,1.139,1.139,0,0,1,1.554,1.1,10.627,10.627,0,0,1-2.108,5.782,3.366,3.366,0,0,0,1.3.044.805.805,0,0,1,.887,1.063,6.4,6.4,0,0,1-4.687,3.989,9.542,9.542,0,0,1-7.462-2,22.3,22.3,0,0,1-5.153-6.021,12.664,12.664,0,0,0-2.907-3.555,3.893,3.893,0,0,0-4.316-.4" transform="translate(-223.634 -223.151)"/><path class="i" d="M339.506,244.465v-.245a2.089,2.089,0,0,0-.157-.629,10.1,10.1,0,0,0-1.013-1.887,11.846,11.846,0,0,0-1.328-1.724c-.377-.4-.661-.629-.629-.629a1.825,1.825,0,0,1,.793.484,8.582,8.582,0,0,1,1.441,1.711,7.279,7.279,0,0,1,.956,2.026,1.711,1.711,0,0,1,.069.7C339.594,244.4,339.518,244.478,339.506,244.465Z" transform="translate(-224.074 -228.642)"/><path class="g" d="M357.207,260.966a1.467,1.467,0,0,1-.226.17,3.9,3.9,0,0,1-.717.384,5.921,5.921,0,0,1-2.944.39,6.185,6.185,0,0,1-3.9-2,6.336,6.336,0,0,1-1.258-2.328,12.41,12.41,0,0,1-.459-2.775,39.561,39.561,0,0,0-.384-5.329,7.549,7.549,0,0,0-.774-2.158,4.932,4.932,0,0,0-1.309-1.479,4.052,4.052,0,0,0-2.68-.906,6.294,6.294,0,0,0-1.044.22.95.95,0,0,1,.245-.138,3.006,3.006,0,0,1,.786-.214,4.121,4.121,0,0,1,2.831.849,5.115,5.115,0,0,1,1.4,1.535,7.644,7.644,0,0,1,.837,2.227,36.746,36.746,0,0,1,.415,5.373,12.46,12.46,0,0,0,.44,2.705,5.836,5.836,0,0,0,7.739,3.907C356.868,261.161,357.189,260.935,357.207,260.966Z" transform="translate(-225.978 -230.66)"/><path class="g" d="M361.862,227.238a1.549,1.549,0,0,1,.183.352,3.574,3.574,0,0,1,.239,1.12,4.052,4.052,0,0,1-.3,1.787,3.775,3.775,0,0,1-1.541,1.843,4.052,4.052,0,0,1-2.863.459,3.9,3.9,0,0,1-2.686-1.944,11.024,11.024,0,0,1-1.082-3.517,7.83,7.83,0,0,0-1.321-3.555,3.064,3.064,0,0,0-1.573-.994,4.115,4.115,0,0,0-1.837-.031,9.847,9.847,0,0,0-3.284,1.4,29.7,29.7,0,0,0-4.882,3.731,32.162,32.162,0,0,0-2.825,3.039l-.7.887a1.4,1.4,0,0,1-.258.3,1.977,1.977,0,0,1,.208-.34c.138-.22.365-.528.629-.925a26.805,26.805,0,0,1,2.768-3.146,28.364,28.364,0,0,1,4.876-3.819,10.149,10.149,0,0,1,3.385-1.46,4.341,4.341,0,0,1,1.988.031,3.429,3.429,0,0,1,1.793,1.107,8.015,8.015,0,0,1,1.384,3.706,10.866,10.866,0,0,0,1.026,3.429,3.637,3.637,0,0,0,2.479,1.831,3.863,3.863,0,0,0,2.693-.4,3.63,3.63,0,0,0,1.491-1.711,4.1,4.1,0,0,0,.34-1.711A4.882,4.882,0,0,0,361.862,227.238Z" transform="translate(-224.354 -222.331)"/><path class="g" d="M338.119,226.6a2.579,2.579,0,0,1,.686,1.038,5.228,5.228,0,0,1-.982,5.706,2.617,2.617,0,0,1-.994.755c-.031-.044.352-.327.824-.906a5.587,5.587,0,0,0,.937-5.467C338.339,227.022,338.068,226.625,338.119,226.6Z" transform="translate(-224.241 -223.914)"/><path class="g" d="M316.521,237.211a11.809,11.809,0,0,0-8.487-7.191,10.985,10.985,0,0,0-6.839.925,10.826,10.826,0,0,1-2.12-1.793,18.554,18.554,0,0,0-7.99-4.75,13.244,13.244,0,0,0-9.173.711,10.343,10.343,0,0,0-5.662,7.078,8.519,8.519,0,0,0,3.045,8.368,7.247,7.247,0,0,0,8.714-.063,2.861,2.861,0,0,0,2.4,2.913,5.1,5.1,0,0,0,3.882-1.132,29.333,29.333,0,0,0,2.995-2.875c.371-.359.755-.7,1.145-1.038a11.275,11.275,0,0,0,7.864,6.292c-1.082,1.177-.988,3.02-.541,4.555s1.17,3.033,1.139,4.631a21.021,21.021,0,0,1-.856,3.932,8.588,8.588,0,0,0,.761,5.449c.321.629.717,1.548,1.076,2.171.629,1.12.629,1.12,1.56,1.4,1.925.6,5.247-6.392,6.1-9.167.717-2.315.994-6.468,1.831-8.739C318.843,244.811,317.93,240.81,316.521,237.211Z" transform="translate(-201.713 -222.911)"/><path class="e" d="M331.421,253.133a.892.892,0,0,1-.132.208,1.925,1.925,0,0,1-.529.459,2.668,2.668,0,0,1-2.517.094,2.278,2.278,0,0,1-.7-.541,3.365,3.365,0,0,1-.491-.805,9.9,9.9,0,0,0-.856-1.787,2.668,2.668,0,0,0-1.812-.969,17.965,17.965,0,0,0-2.366-.1,10.349,10.349,0,0,1-2.4-.333,11,11,0,0,1-2.1-.83,10.419,10.419,0,0,1-2.988-2.347,8.965,8.965,0,0,1-1.422-2.133,5.468,5.468,0,0,1-.271-.629.8.8,0,0,1-.069-.239,13.533,13.533,0,0,0,1.931,2.85,10.7,10.7,0,0,0,2.957,2.24,11.6,11.6,0,0,0,2.045.786,10.339,10.339,0,0,0,2.328.315,16.989,16.989,0,0,1,2.41.113,2.963,2.963,0,0,1,2,1.1,9.48,9.48,0,0,1,.862,1.887,3.266,3.266,0,0,0,.44.755,2.19,2.19,0,0,0,.629.5,2.6,2.6,0,0,0,2.366,0A3.7,3.7,0,0,0,331.421,253.133Z" transform="translate(-215.316 -230.063)"/><path class="e" d="M333.78,262a1.82,1.82,0,0,1-.4.384,4.134,4.134,0,0,1-1.334.667,4.328,4.328,0,0,1-2.221.076,4.58,4.58,0,0,1-2.359-1.365,11.235,11.235,0,0,1-1.422-2.3,5.793,5.793,0,0,0-1.258-1.718,2.989,2.989,0,0,0-1.221-.7,4.49,4.49,0,0,1-.529-.107,1.163,1.163,0,0,1,.554,0,2.769,2.769,0,0,1,1.346.629,5.858,5.858,0,0,1,1.365,1.749,11.436,11.436,0,0,0,1.4,2.221,4.4,4.4,0,0,0,2.183,1.3,4.316,4.316,0,0,0,2.089,0A6.919,6.919,0,0,0,333.78,262Z" transform="translate(-219.129 -235.153)"/><path class="e" d="M364.456,241.192a.912.912,0,0,1-.088.352,2.655,2.655,0,0,1-.566.9,3.46,3.46,0,0,1-1.422.9,3.775,3.775,0,0,1-2.221.088,6.868,6.868,0,0,1-4.159-3.85c-.95-1.963-1.548-4.3-3-6.292a6.336,6.336,0,0,0-2.756-2.152,7.425,7.425,0,0,0-3.246-.472,8.45,8.45,0,0,0-5.033,2.24,12.035,12.035,0,0,0-2.391,2.976c-.453.786-.629,1.258-.673,1.258a1.158,1.158,0,0,1,.12-.352,9.912,9.912,0,0,1,.447-.95,11.4,11.4,0,0,1,2.34-3.083A8.613,8.613,0,0,1,347,230.383a7.613,7.613,0,0,1,3.391.478,6.506,6.506,0,0,1,2.894,2.252c1.51,2.07,2.038,4.454,3.014,6.342a7.041,7.041,0,0,0,3.945,3.775,3.612,3.612,0,0,0,2.108-.038,3.184,3.184,0,0,0,2.133-1.976Z" transform="translate(-225.01 -225.306)"/><path class="e" d="M364.273,247.336a2.731,2.731,0,0,1-.226.271,7.234,7.234,0,0,1-.774.667,6.139,6.139,0,0,1-1.409.786,4.586,4.586,0,0,1-2.12.321,7.022,7.022,0,0,1-4.637-2.907,10.583,10.583,0,0,1-1.472-2.944c-.377-1.07-.673-2.2-1.076-3.322a9.689,9.689,0,0,0-1.629-3.007,5.146,5.146,0,0,0-2.611-1.692,7.386,7.386,0,0,0-5.247.667,14.373,14.373,0,0,0-3,2.127l-.749.68a1.542,1.542,0,0,1-.271.233,1.258,1.258,0,0,1,.226-.277c.151-.176.384-.422.7-.73a13.091,13.091,0,0,1,2.982-2.234,7.55,7.55,0,0,1,5.436-.755,5.436,5.436,0,0,1,2.775,1.774,10.018,10.018,0,0,1,1.692,3.1c.409,1.139.7,2.271,1.07,3.335a10.657,10.657,0,0,0,1.409,2.863,6.864,6.864,0,0,0,4.4,2.856,4.454,4.454,0,0,0,2.032-.258,6.362,6.362,0,0,0,1.4-.724C363.921,247.676,364.254,247.317,364.273,247.336Z" transform="translate(-225.066 -227.034)"/><path class="i" d="M240.834,371.133l1.063,2.655L239.8,398h53.447l-2.384-7.242,6.644.34c10.249.516,18.623-8.638,16.629-18.7-.063-.3-.126-.629-.208-.906-3.316-12.954-7.827-30.369-9.393-35.51a24.971,24.971,0,0,0-8.38-12.539h-.088c-8-6.524-18.875-7.1-18.875-7.1l-4.008,2.693a13.967,13.967,0,0,1-13.546,1.114,6.065,6.065,0,0,1-3.3-3.806h0a47.052,47.052,0,0,0-13.659,3.561,20.007,20.007,0,0,0-10.564,11.8l-13.961,40.9-23.77-3.215L189.3,383.257l24.084,5.738a19.661,19.661,0,0,0,22.882-9.437l4.568-8.4m44.456,3.272h0s2.284-8.758,3.674-13.47l3.372,13.212Z" transform="translate(-169.532 -257.194)"/><path class="g" d="M337.1,396.57h-4.228l-11.771.044-40.964.057H280v-.157c.208-5,.434-10.236.661-15.647v-.151h.151l15.219-.478,29.942-.9-.145.2c-1.12-4.083-2.032-8.06-2.913-11.853s-1.667-7.43-2.441-10.853q-.554-2.567-1.088-4.983a35.991,35.991,0,0,1-.856-4.7,24.1,24.1,0,0,1,0-4.4,20.513,20.513,0,0,1,.73-3.983,12.275,12.275,0,0,1,3.561-5.813,8.965,8.965,0,0,1,4.6-2.139,7.448,7.448,0,0,1,3.177.176,5.986,5.986,0,0,1,.774.283c.17.069.252.113.252.113a7.626,7.626,0,0,0-4.184-.478,8.922,8.922,0,0,0-4.517,2.158,12.148,12.148,0,0,0-3.479,5.75,20.678,20.678,0,0,0-.7,3.951,23.741,23.741,0,0,0,0,4.4,35.354,35.354,0,0,0,.868,4.668c.359,1.6.724,3.265,1.107,4.977.774,3.423,1.6,7.047,2.46,10.84s1.806,7.77,2.932,11.841l.05.189h-.2l-29.91.919-15.226.478.157-.157c-.233,5.411-.459,10.652-.673,15.647l-.157-.164,40.964.063,11.771.044h3.951A2.341,2.341,0,0,1,337.1,396.57Z" transform="translate(-203.167 -262.522)"/><path class="g" d="M272.529,346.85a1.494,1.494,0,0,1,.031.39v1.126a18.431,18.431,0,0,1-.724,4.071,58.113,58.113,0,0,1-2.089,5.757,39.472,39.472,0,0,0-2.3,7.084,21.347,21.347,0,0,0-.038,7.4,41.778,41.778,0,0,0,1.447,5.914c.528,1.655,1,2.982,1.328,3.9l.365,1.057a1.529,1.529,0,0,1,.107.378,1.6,1.6,0,0,1-.17-.352c-.107-.27-.252-.629-.422-1.038-.365-.906-.868-2.221-1.428-3.876a38.936,38.936,0,0,1-1.523-5.939,21.177,21.177,0,0,1,0-7.506,38.727,38.727,0,0,1,2.322-7.135c.881-2.127,1.655-4.045,2.145-5.706a20.189,20.189,0,0,0,.824-4.014C272.5,347.391,272.5,346.85,272.529,346.85Z" transform="translate(-198.264 -268.508)"/><path class="g" d="M353.07,408.179a2.63,2.63,0,0,1,1.12-.145,6.6,6.6,0,0,1,2.649.629,4.92,4.92,0,0,1,2.108,1.73,1.988,1.988,0,0,1,.409,1.051c-.057,0-.189-.39-.6-.919a5.417,5.417,0,0,0-2.057-1.567,7.966,7.966,0,0,0-2.517-.673A8.177,8.177,0,0,1,353.07,408.179Z" transform="translate(-230.265 -291.194)"/><path class="g" d="M345.59,320.1a6.54,6.54,0,0,1,1,.378c.321.132.711.289,1.158.491l1.491.73c.554.271,1.139.629,1.774.963s1.258.78,1.963,1.221a30.95,30.95,0,0,1,4.121,3.347,21.1,21.1,0,0,1,5.2,8.053,13.693,13.693,0,0,1,.478,1.6,11.672,11.672,0,0,1,.264,1.258,7.811,7.811,0,0,1,.138,1.063,6.122,6.122,0,0,1-.264-1.038c-.057-.34-.182-.736-.315-1.208s-.308-.988-.516-1.567a22.02,22.02,0,0,0-5.209-7.9,31.943,31.943,0,0,0-4.064-3.328c-.673-.44-1.315-.875-1.932-1.258s-1.2-.711-1.743-.994l-1.466-.768-1.126-.541A7.383,7.383,0,0,1,345.59,320.1Z" transform="translate(-227.491 -258.588)"/><g class="j" transform="translate(110.787 87.874)"><path d="M339.2,362s-5.31,23.449-5.228,25.745a12.871,12.871,0,0,0,.547,3.561l4.4.038.038-.434,3.712-13.269Z" transform="translate(-333.968 -362)"/></g><path class="k" d="M293.013,360.024a15.531,15.531,0,0,0-1.453.919,8.179,8.179,0,0,0-2.724,3.706,7.84,7.84,0,0,0-.434,3.146,7.664,7.664,0,0,0,1.057,3.479,7.827,7.827,0,0,0,2.831,2.831,7.356,7.356,0,0,0,1.969.818,7.659,7.659,0,0,0,2.183.252,8.071,8.071,0,0,0,2.171-.352,8.632,8.632,0,0,0,1.931-.912,7.927,7.927,0,0,0,2.982-9.632,8.128,8.128,0,0,0-2.907-3.567,14.607,14.607,0,0,0-1.5-.849,3.144,3.144,0,0,1,.428.151,7.468,7.468,0,0,1,1.145.591,8.072,8.072,0,0,1,3.706,6.82,8.279,8.279,0,0,1-.893,3.662,8.178,8.178,0,0,1-2.781,3.1,9.079,9.079,0,0,1-2.007.963,8.526,8.526,0,0,1-2.265.365,8.1,8.1,0,0,1-4.964-14.672,7.426,7.426,0,0,1,1.114-.629A3.593,3.593,0,0,1,293.013,360.024Z" transform="translate(-206.177 -273.333)"/><path class="k" d="M300.941,357.84a102.03,102.03,0,0,1,0,11.551,102.03,102.03,0,0,1,0-11.551Z" transform="translate(-210.865 -272.584)"/><path class="f" d="M256.333,405.339l-3.46-1.4s-4.02-6.82-4.844-6.493-.944,2.41.692,5.549l-4.549-1.025s-9.437,5.033-8.991,5.606a2.246,2.246,0,0,0,3.391.768c2.057-1.2,4.75-2.624,4.75-2.624l5.316,1.2-6.7,1.258-6.021,6.122a3.108,3.108,0,0,0,3.876-.308l16.673,2.624h7.059l.378-9.33Z" transform="translate(-186.541 -287.266)"/><path class="h" d="M242.52,421.408c.076.038.352-.466.912-1.145a4.946,4.946,0,0,1,1.145-.994,5.034,5.034,0,0,1,1.755-.56,24.826,24.826,0,0,0,4.895-1.12,24.085,24.085,0,0,0-4.989.629,4.789,4.789,0,0,0-1.919.673,4.511,4.511,0,0,0-1.177,1.17A2.932,2.932,0,0,0,242.52,421.408Z" transform="translate(-189.268 -294.728)"/><path class="h" d="M246.638,423.625c.063,0,.094-.346.547-.472s1.214-.239,1.988-.365a16.2,16.2,0,0,0,2.882-.459,5.653,5.653,0,0,0-2.957-.05,8.431,8.431,0,0,0-2.051.541.824.824,0,0,0-.472.541C246.544,423.544,246.606,423.632,246.638,423.625Z" transform="translate(-190.769 -296.429)"/><path class="h" d="M261.371,407.848a11.886,11.886,0,0,1-1.667-.472c-1.019-.315-2.435-.711-4.014-1.107l-4.045-1.019a8.678,8.678,0,0,1-1.655-.51,9.753,9.753,0,0,1,1.711.289c1.044.214,2.517.522,4.071.925a40.667,40.667,0,0,1,4.008,1.2A7.476,7.476,0,0,1,261.371,407.848Z" transform="translate(-192.038 -289.976)"/></g><g transform="translate(46.318 63.948)"><path class="g" d="M354.867,125.239a5.077,5.077,0,0,1-.038-.679q0-.7-.038-1.887c0-1.623-.038-3.869-.069-6.549l.138.145h-9.1c0,.038.315-.308.164-.164h0v9.079l-.145-.138,6.556.069,1.887.038a2.46,2.46,0,0,1,.686.031,3.845,3.845,0,0,1-.629.038h-1.831l-6.644.075h-.138v-9.223h0c-.145.151.2-.2.164-.164h9.242v.138c0,2.718-.057,5-.069,6.644q0,1.132-.038,1.831A6.055,6.055,0,0,1,354.867,125.239Z" transform="translate(-167.926 -92.057)"/><path class="g" d="M354.97,116.43c.063.063-1.919,2.139-4.4,4.637a62.988,62.988,0,0,1-4.656,4.4,62.561,62.561,0,0,1,4.4-4.637A60.182,60.182,0,0,1,354.97,116.43Z" transform="translate(-168.029 -92.252)"/><path class="g" d="M354.847,125.377a57.874,57.874,0,0,1-4.555-4.354,60.67,60.67,0,0,1-4.322-4.593,61.576,61.576,0,0,1,4.555,4.36,63.013,63.013,0,0,1,4.322,4.587Z" transform="translate(-168.051 -92.252)"/><path class="g" d="M445.93,207.377a2.84,2.84,0,0,1,.484-.554c.384-.378.856-.856,1.409-1.409,1.2-1.183,2.882-2.8,4.744-4.574l.044-.038v.239c-1.887-1.743-3.567-3.328-4.775-4.486l-1.416-1.384a2.764,2.764,0,0,1-.491-.541,3.493,3.493,0,0,1,.573.447l1.491,1.309c1.258,1.114,2.963,2.674,4.844,4.4l.126.12-.126.12-.044.044c-1.888,1.768-3.567,3.36-4.807,4.5l-1.485,1.34a3.261,3.261,0,0,1-.573.466Z" transform="translate(-205.121 -121.252)"/><path class="g" d="M418.724,194.63a2.845,2.845,0,0,1-.484.554l-1.416,1.409c-1.2,1.183-2.875,2.8-4.738,4.574l-.044.038v-.239c1.887,1.743,3.561,3.328,4.775,4.486l1.416,1.384a2.762,2.762,0,0,1,.491.541,3.087,3.087,0,0,1-.573-.447c-.409-.352-.906-.793-1.491-1.309-1.258-1.114-2.963-2.674-4.845-4.4l-.126-.12.126-.12.044-.044c1.887-1.768,3.567-3.36,4.807-4.5l1.485-1.34a3.692,3.692,0,0,1,.573-.466Z" transform="translate(-192.423 -121.252)"/><path class="g" d="M428.788,208.5c-.082,0,1.441-4.3,3.4-9.519s3.624-9.437,3.712-9.406-1.441,4.3-3.4,9.519S428.87,208.536,428.788,208.5Z" transform="translate(-198.762 -119.379)"/><path class="g" d="M444.255,211.479v-2.768c0-1.8,0-4.4-.038-7.764,0-6.688-.044-16.239-.069-27.758l.132.132-47.187.031h0l.164-.164v38.29l-.151-.151,34.069.076,9.658.038h.082l-9.626.038-34.163.075h-.145V173h47.495v.138c0,11.551-.05,21.14-.069,27.846,0,3.328,0,5.939-.038,7.732v2.026A2.072,2.072,0,0,1,444.255,211.479Z" transform="translate(-186.968 -113.23)"/><path class="g" d="M444.67,182.234c0,.088-10.652.164-23.782.164s-23.788-.076-23.788-.164,10.645-.164,23.788-.164S444.67,182.139,444.67,182.234Z" transform="translate(-187.012 -116.594)"/><path class="g" d="M402.508,177.509a.629.629,0,1,1-.629-.629A.629.629,0,0,1,402.508,177.509Z" transform="translate(-188.551 -114.669)"/><path class="g" d="M406.188,177.509a.629.629,0,1,1-.629-.629A.629.629,0,0,1,406.188,177.509Z" transform="translate(-189.916 -114.669)"/><path class="g" d="M409.868,177.509a.629.629,0,1,1-.629-.629A.629.629,0,0,1,409.868,177.509Z" transform="translate(-191.281 -114.669)"/><rect class="e" width="37.277" height="26.576" transform="translate(124.044 2.083)"/><path class="k" d="M297.906,87.484c0,.088-8.418.164-18.793.164s-18.793-.075-18.793-.164,8.412-.164,18.793-.164S297.906,87.389,297.906,87.484Z" transform="translate(-136.288 -81.456)"/><path class="k" d="M264.582,84.23a.51.51,0,1,1-.5-.44A.478.478,0,0,1,264.582,84.23Z" transform="translate(-137.493 -80.147)"/><path class="k" d="M267.492,84.23a.51.51,0,1,1-.5-.44A.478.478,0,0,1,267.492,84.23Z" transform="translate(-138.572 -80.147)"/><ellipse class="k" cx="0.503" cy="0.44" rx="0.503" ry="0.44" transform="translate(129.745 3.643)"/><path class="k" d="M278.8,102.907c0,1.6-1.158,2.561-3.064,2.561h-2.013v2.366h-.793V100.34h2.806C277.642,100.34,278.8,101.3,278.8,102.907Zm-.793,0c0-1.2-.793-1.887-2.29-1.887h-1.994v3.743h1.994C277.215,104.769,278.007,104.083,278.007,102.907Z" transform="translate(-140.965 -86.285)"/><path class="k" d="M291.247,100.34v7.493h-.78v-3.46h-4.693v3.46H285V100.34h.793v3.341h4.693V100.34Z" transform="translate(-145.441 -86.285)"/><path class="k" d="M304.664,102.907c0,1.6-1.151,2.561-3.058,2.561h-2.013v2.366H298.8V100.34h2.806C303.512,100.34,304.664,101.3,304.664,102.907Zm-.786,0c0-1.2-.793-1.887-2.29-1.887h-1.994v3.743h1.994C303.085,104.769,303.877,104.083,303.877,102.907Z" transform="translate(-150.558 -86.285)"/><path class="i" d="M200,166.326l.491-.541a2.913,2.913,0,0,0,2.466,1.4c1.479,0,2.208-.843,2.208-2.624V157.43h-4.1v-.73h4.914v7.846c0,2.24-1.038,3.353-3.02,3.353A3.479,3.479,0,0,1,200,166.326Z" transform="translate(-113.919 -107.185)"/><path class="i" d="M213.2,168.448l.365-.629a4.813,4.813,0,0,0,2.982,1c1.749,0,2.447-.629,2.447-1.554,0-2.416-5.493-.629-5.493-3.895,0-1.258,1.044-2.271,3.146-2.271a5.077,5.077,0,0,1,2.844.812l-.365.629a4.266,4.266,0,0,0-2.517-.749c-1.617,0-2.334.667-2.334,1.56,0,2.517,5.5.73,5.5,3.888,0,1.353-1.164,2.271-3.278,2.271A5.184,5.184,0,0,1,213.2,168.448Z" transform="translate(-118.814 -108.817)"/><path class="i" d="M218.115,167.884v-1.95c0-1.258,0-3.114-.038-5.449,0-4.687-.038-11.356-.069-19.378l.138.138H189.287c-.038.038.308-.308.164-.157h0v26.777l-.145-.145,20.856.069,5.9.038h.025l-5.857.038-20.951.069h-.145V141.12h0l.164-.17h29v.138c0,8.059-.05,14.76-.069,19.466,0,2.322,0,4.152-.038,5.417v1.416A1.4,1.4,0,0,1,218.115,167.884Z" transform="translate(-109.888 -101.345)"/><path class="i" d="M218.115,147.42c0,.088-6.449.164-14.408.164s-14.408-.075-14.408-.164,6.449-.17,14.408-.17S218.115,147.325,218.115,147.42Z" transform="translate(-109.951 -103.681)"/><ellipse class="i" cx="0.503" cy="0.447" rx="0.503" ry="0.447" transform="translate(81.425 41.336)"/><path class="i" d="M196.531,144.146a.51.51,0,1,1-.5-.447A.478.478,0,0,1,196.531,144.146Z" transform="translate(-112.256 -102.364)"/><path class="i" d="M199.462,144.146a.51.51,0,1,1-.5-.447A.478.478,0,0,1,199.462,144.146Z" transform="translate(-113.343 -102.364)"/><path class="i" d="M402.47,98.793a4.649,4.649,0,0,1,4.826-4.725,4.436,4.436,0,0,1,3.309,1.29l-.422.44a3.888,3.888,0,0,0-2.856-1.1,4.1,4.1,0,1,0,0,8.179,3.894,3.894,0,0,0,2.856-1.114l.422.44a4.448,4.448,0,0,1-3.309,1.3,4.65,4.65,0,0,1-4.826-4.712Z" transform="translate(-189.003 -83.957)"/><path class="i" d="M417.43,102.249l.308-.5a4.442,4.442,0,0,0,3.07,1.17c1.887,0,2.686-.812,2.686-1.825,0-2.793-5.807-1.114-5.807-4.549,0-1.315,1.007-2.473,3.3-2.473a5.033,5.033,0,0,1,2.806.837l-.258.547a4.605,4.605,0,0,0-2.548-.8c-1.812,0-2.624.837-2.624,1.887,0,2.793,5.813,1.145,5.813,4.524,0,1.315-1.051,2.46-3.353,2.46a4.782,4.782,0,0,1-3.391-1.277Z" transform="translate(-194.552 -83.959)"/><path class="i" d="M430.3,102.249l.308-.5a4.4,4.4,0,0,0,3.07,1.17c1.887,0,2.686-.812,2.686-1.825,0-2.793-5.813-1.114-5.813-4.549,0-1.315,1.013-2.473,3.3-2.473a5.033,5.033,0,0,1,2.8.837l-.252.547a4.605,4.605,0,0,0-2.517-.8c-1.812,0-2.624.837-2.624,1.887,0,2.793,5.813,1.145,5.813,4.524,0,1.315-1.051,2.46-3.353,2.46A4.782,4.782,0,0,1,430.3,102.249Z" transform="translate(-199.324 -83.959)"/><path class="i" d="M429.108,104.934v-1.913c0-1.258,0-3.064-.038-5.386,0-4.649-.038-11.325-.069-19.5l.132.132-41.455.031h0l.164-.164v26.777l-.151-.151,29.822.076,8.55.038h2.875a1.3,1.3,0,0,1,.208,0h-3.014l-8.519.038-29.923.076h-.151V78h.164l41.455.038h.132v.126c-.031,8.179-.057,14.892-.069,19.56v6.751A2.2,2.2,0,0,0,429.108,104.934Z" transform="translate(-183.467 -78)"/><path class="i" d="M429.134,84.474c0,.088-9.286.164-20.762.164s-20.762-.076-20.762-.164,9.286-.164,20.762-.164S429.134,84.379,429.134,84.474Z" transform="translate(-183.493 -80.34)"/><path class="i" d="M391.991,81.2a.51.51,0,1,1-.5-.447A.478.478,0,0,1,391.991,81.2Z" transform="translate(-184.741 -79.019)"/><path class="i" d="M394.921,81.2a.51.51,0,1,1-.5-.447.478.478,0,0,1,.5.447Z" transform="translate(-185.828 -79.019)"/><path class="i" d="M397.851,81.2a.51.51,0,1,1-.5-.447A.478.478,0,0,1,397.851,81.2Z" transform="translate(-186.914 -79.019)"/><rect class="i" width="52.056" height="37.108" transform="translate(140.126 40.807)"/><path class="k" d="M309.827,170.24v7.4h-1.705v-3.02h-3.347v3.02h-1.7v-7.4h1.7v2.907h3.347V170.24Z" transform="translate(-152.142 -112.207)"/><path class="k" d="M317.609,171.63H315.25v-1.39h6.424v1.39h-2.359v6.008h-1.7Z" transform="translate(-156.659 -112.207)"/><path class="k" d="M326.92,170.24h1.705v5.977h3.693v1.422h-5.4Z" transform="translate(-160.986 -112.207)"/><path class="k" d="M343.719,177.639v-4.4l-2.171,3.637h-.774l-2.158-3.542v4.31H337v-7.4h1.409l2.762,4.58,2.712-4.58h1.4v7.367Z" transform="translate(-164.725 -112.207)"/><path class="k" d="M338.36,151.514c0,.088-11.753.164-26.248.164s-26.242-.075-26.242-.164,11.746-.164,26.242-.164S338.36,151.419,338.36,151.514Z" transform="translate(-145.763 -105.201)"/><path class="k" d="M291.832,146.928a.7.7,0,1,1-.7-.629.667.667,0,0,1,.7.629Z" transform="translate(-147.453 -103.328)"/><path class="k" d="M295.892,146.928a.7.7,0,1,1-.7-.629.667.667,0,0,1,.7.629Z" transform="translate(-148.959 -103.328)"/><path class="k" d="M299.952,146.928a.7.7,0,1,1-.7-.629.667.667,0,0,1,.7.629Z" transform="translate(-150.464 -103.328)"/><path class="g" d="M100.621,244.235a.5.5,0,0,1,0-.126v-1.692c0-1.189,0-2.9-.038-5.071,0-4.36-.044-10.564-.076-17.994l.145.138H75.77c-.038.031.308-.308.164-.157h0V244.2l-.138-.145,17.994.075,5.071.038H98.9l-5.033.038-18.082.075h-.145V219.358h0c-.151.145.2-.208.164-.17h25.022v.145c0,7.468-.05,13.7-.069,18.082,0,2.158,0,3.863-.038,5.033V244.1A.629.629,0,0,1,100.621,244.235Z" transform="translate(-67.786 -130.358)"/><path class="g" d="M100.74,219.84c.063.063-5.442,5.662-12.294,12.489S75.97,244.654,75.92,244.591s5.436-5.662,12.294-12.5S100.677,219.777,100.74,219.84Z" transform="translate(-67.904 -130.6)"/><path class="g" d="M100.432,244.32c-.063.063-5.549-5.367-12.25-12.124S76.1,219.9,76.16,219.84s5.549,5.367,12.256,12.124S100.5,244.251,100.432,244.32Z" transform="translate(-67.993 -130.6)"/><path class="g" d="M171.79,229.954c0,.088-9.89.164-22.083.164s-22.077-.076-22.077-.164,9.884-.164,22.077-.164S171.79,229.866,171.79,229.954Z" transform="translate(-87.081 -134.29)"/><path class="g" d="M171.79,236.264c0,.088-9.89.164-22.083.164s-22.077-.076-22.077-.164,9.884-.164,22.077-.164S171.79,236.169,171.79,236.264Z" transform="translate(-87.081 -136.63)"/><path class="g" d="M171.79,242.564c0,.094-9.89.164-22.083.164s-22.077-.069-22.077-.164,9.884-.164,22.077-.164S171.79,242.476,171.79,242.564Z" transform="translate(-87.081 -138.967)"/><path class="g" d="M171.79,248.9c0,.088-9.89.164-22.083.164s-22.077-.076-22.077-.164,9.884-.164,22.077-.164S171.79,248.79,171.79,248.9Z" transform="translate(-87.081 -141.318)"/><path class="g" d="M147.417,223.644c0,.094-4.549.17-10.148.17s-10.148-.076-10.148-.17,4.543-.164,10.148-.164S147.417,223.555,147.417,223.644Z" transform="translate(-86.892 -131.95)"/><path class="g" d="M63.293,207.51H91.417l71.913.126h.157v39.719h-9.148l.164-.164v8.55l-.277-.277-8.179-8.179.113.044-82.866-.063H63.18v-.107c0-12.357.05-22.278.063-29.117v.063c0,6.826.038,16.723.063,29.054l-.113-.113,82.885-.05h.069l.044.044,8.179,8.179-.283.12V247h9.154l-.164.164V207.787l.157.157-71.806-.277-20.762-.1H63.69Z" transform="translate(-63.18 -126.028)"/></g><g transform="translate(17.71 199.846)"><rect class="e" width="54.611" height="13.703" transform="translate(229.05 73.511)"/><rect class="g" width="33.282" height="4.756" transform="translate(242.546 77.984)"/><path class="g" d="M393.413,420.605a2.655,2.655,0,1,1-.78-1.88A2.661,2.661,0,0,1,393.413,420.605Z" transform="translate(-155.063 -339.966)"/><rect class="g" width="43.619" height="7.411" transform="translate(234.807 66.042)"/><rect class="i" width="54.611" height="13.703" transform="translate(234.807 52.346)"/><path class="k" d="M417.35,385.586a3.536,3.536,0,0,1,6.122-2.183l-.95.881a2.089,2.089,0,0,0-1.617-.749,2.054,2.054,0,1,0,1.617,3.347l.95.881a3.523,3.523,0,0,1-6.122-2.177Z" transform="translate(-165.914 -326.735)"/><path class="k" d="M436.853,386.854h-1.6v1.56h-1.189v-1.56H432.48v-1.12h1.586V384.18h1.183v1.554h1.6Z" transform="translate(-171.525 -327.443)"/><path class="k" d="M445.676,386.854h-1.6v1.56H442.9v-1.56H441.31v-1.12H442.9V384.18h1.183v1.554h1.6Z" transform="translate(-174.8 -327.443)"/><path class="d" d="M403.724,390.512c-.088,0-.164-2.982-.164-6.663s.076-6.669.164-6.669.164,2.988.164,6.669A60.338,60.338,0,0,1,403.724,390.512Z" transform="translate(-160.8 -324.847)"/><path class="d" d="M399.9,390.512c-.088,0-.164-2.982-.164-6.663s.076-6.669.164-6.669a135.9,135.9,0,0,1,0,13.332Z" transform="translate(-159.384 -324.847)"/><path class="d" d="M463.791,390.512a135.9,135.9,0,0,1,0-13.332c.088,0,.164,2.988.164,6.669S463.854,390.512,463.791,390.512Z" transform="translate(-183.068 -324.847)"/><path class="d" d="M460.024,390.512c-.088,0-.164-2.982-.164-6.663s.076-6.669.164-6.669.164,2.988.164,6.669S460.112,390.512,460.024,390.512Z" transform="translate(-181.679 -324.847)"/><path class="c" d="M419.6,403.851a1.428,1.428,0,0,1,1.5-1.472,1.258,1.258,0,0,1,1.139.573l-.289.2a.988.988,0,0,0-.849-.434,1.132,1.132,0,1,0,0,2.265.994.994,0,0,0,.849-.422l.289.2a1.258,1.258,0,0,1-1.139.579,1.435,1.435,0,0,1-1.5-1.485Z" transform="translate(-166.748 -334.191)"/><path class="c" d="M424.37,404.978l.182-.315a1.711,1.711,0,0,0,1.032.327c.554,0,.78-.189.78-.472,0-.761-1.887-.164-1.887-1.315,0-.472.409-.824,1.151-.824a1.887,1.887,0,0,1,1.026.271l-.17.315a1.5,1.5,0,0,0-.856-.252c-.529,0-.755.208-.755.484,0,.786,1.887.189,1.887,1.309,0,.5-.44.831-1.2.831A1.982,1.982,0,0,1,424.37,404.978Z" transform="translate(-168.517 -334.192)"/><path class="c" d="M428.67,404.978l.182-.315a1.692,1.692,0,0,0,1.032.327c.554,0,.78-.189.78-.472,0-.761-1.887-.164-1.887-1.315,0-.472.409-.824,1.151-.824a1.887,1.887,0,0,1,1.026.271l-.17.315a1.5,1.5,0,0,0-.856-.252c-.529,0-.755.208-.755.484,0,.786,1.887.189,1.887,1.309,0,.5-.44.831-1.2.831A1.982,1.982,0,0,1,428.67,404.978Z" transform="translate(-170.112 -334.192)"/><circle class="c" cx="1.321" cy="1.321" r="1.321" transform="translate(239.903 68.427)"/><circle class="c" cx="1.321" cy="1.321" r="1.321" transform="translate(273.016 68.427)"/><rect class="g" width="106.843" height="72.8" rx="12" transform="translate(8.77)"/><path class="e" d="M84.694,381.806,78.78,415.3h27.758l5.027-34.176Z" transform="translate(-40.357 -326.308)"/><rect class="e" width="106.843" height="72.8" rx="12" transform="translate(4.53)"/><path class="g" d="M126.69,399.108l2.642-17.988.736,17.988Z" transform="translate(-58.125 -326.308)"/><path class="g" d="M86.453,379.25c.088,0-.585,4.473-1.5,9.953s-1.73,9.915-1.825,9.9.585-4.473,1.5-9.953S86.365,379.237,86.453,379.25Z" transform="translate(-41.965 -325.614)"/><path class="d" d="M111.259,345.784a3.5,3.5,0,1,1-1.025-2.48,3.5,3.5,0,0,1,1.025,2.48Z" transform="translate(-49.803 -311.904)"/><path class="g" d="M107.747,349.294a3.517,3.517,0,1,1,3.517-3.517A3.517,3.517,0,0,1,107.747,349.294Zm0-7a3.486,3.486,0,1,0,3.486,3.486A3.485,3.485,0,0,0,107.747,342.291Z" transform="translate(-49.795 -311.897)"/><path class="g" d="M58.138,321.876a6.921,6.921,0,0,0,1.088-4.914h0a4.885,4.885,0,0,0-1.258-2.479,9.171,9.171,0,0,0-1.346-1.428,10,10,0,0,0-1.428-1.038c-.17-.107-.277-.164-.277-.164h0a8.619,8.619,0,0,0-6.09-.912,7.94,7.94,0,0,0-4.159,2.309,6.128,6.128,0,0,0-.95,1.3,9.142,9.142,0,0,0-.937,7.3c.05.164.107.327.17.484v.057a.415.415,0,0,0,.069.164l.05.113c.057.132.107.258.17.384a8.733,8.733,0,0,0,.516.912,4.663,4.663,0,0,0,.7.95h0a4.87,4.87,0,0,0,4.3,1.7,2.749,2.749,0,0,0,1.466,1.258c1.214.277,3.19-.333,4.624-1.1s3.492-2.233,3.46-3.486a5.945,5.945,0,0,0-.22-1.39Z" transform="translate(-26.869 -300.208)"/><path class="i" d="M46.674,310.941a7.9,7.9,0,0,0-4.121,2.309,6.154,6.154,0,0,0-.956,1.3,8.938,8.938,0,0,0-.434,8.5c1.843,3.788,4.574,3.693,5.807,3.517s9.047-4.694,9.047-4.694,2.391-3.366.447-6.5A9.326,9.326,0,0,0,46.674,310.941Z" transform="translate(-26.075 -300.208)"/><path class="a" d="M49.54,331.135s.843,2.064,2.057,2.334a7.977,7.977,0,0,0,4.618-1.1c1.434-.768,3.492-2.234,3.46-3.486a5.239,5.239,0,0,0-.837-2.756,7.229,7.229,0,0,0-5.776.912,7.669,7.669,0,0,0-3.523,4.1Z" transform="translate(-29.514 -305.824)"/><g class="l" transform="translate(16.444 11.184)"><path class="k" d="M51.656,313.962a4.153,4.153,0,1,1-2.466-2.011A4.152,4.152,0,0,1,51.656,313.962Z" transform="translate(-43.846 -311.777)"/></g><g class="l" transform="translate(14.25 18.164)"><path class="k" d="M42.411,329.413a5.279,5.279,0,0,0,.277-3.706,5.153,5.153,0,0,0-2.309-2.837,10.067,10.067,0,0,0,.629,4.184,7.632,7.632,0,0,0,1.4,2.359Z" transform="translate(-40.359 -322.87)"/></g><g class="l" transform="translate(26.681 11.646)"><path class="k" d="M64.486,317.625a5.31,5.31,0,0,1-3.246-1.806,4.7,4.7,0,0,1-1.114-3.309,11.489,11.489,0,0,1,3.108,2.636A5,5,0,0,1,64.486,317.625Z" transform="translate(-60.118 -312.51)"/></g><path class="b" d="M49.56,331.051a1.372,1.372,0,0,0,.151.478.422.422,0,0,0,.428.208c.182-.044.283-.22.365-.384a9.746,9.746,0,0,1,3.819-3.92,4.813,4.813,0,0,1,2.127-.686c.679,0,1.34.17,2.02.208a1,1,0,0,0,.51-.076c.151-.076.145-.252.107-.415a.585.585,0,0,0-.239-.4,6.719,6.719,0,0,0-5.662.768,9.437,9.437,0,0,0-3.618,4.215" transform="translate(-29.521 -305.765)"/><rect class="e" width="60.783" height="4.285" transform="translate(90.951 82.929)"/><path class="e" d="M136.3,423.19h3.045a4.882,4.882,0,0,1,4.882,4.882v1.051H131.46v-1.051a4.882,4.882,0,0,1,4.845-4.882Z" transform="translate(-59.894 -341.909)"/><path class="g" d="M144.153,430.391a58.761,58.761,0,0,1-6.153.164,58.84,58.84,0,0,1-6.159-.164,56.827,56.827,0,0,1,6.159-.164,56.766,56.766,0,0,1,6.153.164Z" transform="translate(-60.034 -344.511)"/><path class="g" d="M141.627,423.11a7.727,7.727,0,0,1,.107,2.259,8.071,8.071,0,0,1-.227,2.246,7.865,7.865,0,0,1-.1-2.252,8.141,8.141,0,0,1,.22-2.252Z" transform="translate(-63.568 -341.88)"/><rect class="g" width="292.3" height="8.506" transform="translate(0 87.214)"/></g></g></svg>