<svg xmlns="http://www.w3.org/2000/svg" width="79.85" height="79.85" viewBox="0 0 79.85 79.85"><defs><style>.a{fill:#fff;}</style></defs><g transform="translate(7.123 76.731)"><path class="a" d="M48.332,492.457a1.558,1.558,0,1,0,.457,1.1A1.57,1.57,0,0,0,48.332,492.457Z" transform="translate(-45.67 -492)"/></g><g transform="translate(55.52 65.709)"><path class="a" d="M358.662,421.787a1.558,1.558,0,1,0,.457,1.1A1.57,1.57,0,0,0,358.662,421.787Z" transform="translate(-356 -421.33)"/></g><g transform="translate(0 12.788)"><path class="a" d="M74.82,94.417A6.53,6.53,0,0,0,76.731,89.8V88.55a6.55,6.55,0,0,0-13.1,0V89.8a6.53,6.53,0,0,0,1.911,4.62,9.7,9.7,0,0,0-4.9,6.921H53.493a4.677,4.677,0,0,0-4.41,6.238H30.767a4.677,4.677,0,0,0-4.41-6.238H19.213a9.694,9.694,0,0,0-4.9-6.921,6.53,6.53,0,0,0,1.911-4.62V88.55a6.55,6.55,0,0,0-13.1,0V89.8A6.53,6.53,0,0,0,5.03,94.417,9.677,9.677,0,0,0,0,102.9v17.493a8.873,8.873,0,0,0,8.863,8.863H21.21v14.894a4.886,4.886,0,0,0,.34,1.794H15.388a1.56,1.56,0,1,0,0,3.119h55.78a1.56,1.56,0,1,0,0-3.119H58.3a4.886,4.886,0,0,0,.34-1.794v-1.793a1.56,1.56,0,1,0-3.119,0v1.793a1.794,1.794,0,1,1-3.587,0V124.459a4.411,4.411,0,0,1,4.406-4.406H76.731v.338a5.751,5.751,0,0,1-5.744,5.744H57.08a1.56,1.56,0,0,0-1.56,1.56v2.5a1.56,1.56,0,0,0,3.119,0v-.936H70.986a8.873,8.873,0,0,0,8.863-8.863V102.9A9.677,9.677,0,0,0,74.82,94.417Zm-8.07-5.867a3.431,3.431,0,0,1,6.862,0V89.8a3.431,3.431,0,1,1-6.862,0Zm-60.511,0a3.431,3.431,0,0,1,6.862,0V89.8a3.431,3.431,0,1,1-6.862,0ZM3.119,102.9a6.55,6.55,0,1,1,13.1,0,1.56,1.56,0,0,0,1.56,1.56h8.578a1.56,1.56,0,0,1,0,3.119H17.275a6.7,6.7,0,0,1-5.919-3.544,1.56,1.56,0,0,0-2.749,1.473,9.816,9.816,0,0,0,7.7,5.143,1.557,1.557,0,0,0-.087.515v5.77H3.119Zm19.242,14.036H19.339v-5.77a1.556,1.556,0,0,0-.071-.468h3.094a6.215,6.215,0,0,0,0,6.238Zm5.555,27.214a1.793,1.793,0,1,1-3.587,0V127.7a1.56,1.56,0,0,0-1.56-1.56H8.863a5.751,5.751,0,0,1-5.744-5.744v-.338H23.51a4.411,4.411,0,0,1,4.406,4.406Zm7.33,1.794H30.695a4.883,4.883,0,0,0,.34-1.794V124.459a7.482,7.482,0,0,0-1.43-4.406h5.641Zm6.238,0H38.365V120.053h3.119Zm7.67,0H44.6V120.053h5.641a7.483,7.483,0,0,0-1.43,4.406v19.689A4.886,4.886,0,0,0,49.155,145.942Zm2.935-29.008H27.76a3.119,3.119,0,0,1,0-6.238H52.089a3.119,3.119,0,0,1,0,6.238Zm8.422-5.77v5.77H57.488a6.215,6.215,0,0,0,0-6.238h3.094A1.556,1.556,0,0,0,60.511,111.164Zm16.219,5.77H63.63v-5.77a1.557,1.557,0,0,0-.087-.515,9.816,9.816,0,0,0,7.7-5.143,1.56,1.56,0,0,0-2.749-1.473,6.7,6.7,0,0,1-5.919,3.544H53.493a1.56,1.56,0,1,1,0-3.119h8.578a1.56,1.56,0,0,0,1.56-1.56,6.55,6.55,0,1,1,13.1,0Z" transform="translate(0 -82)"/></g><g transform="translate(24.017)"><path class="a" d="M181.136,0H158.679A4.684,4.684,0,0,0,154,4.679V19.962a4.684,4.684,0,0,0,4.679,4.679h5.436l4.69,4.69a1.56,1.56,0,0,0,2.206,0l4.69-4.69h5.436a4.684,4.684,0,0,0,4.679-4.679V4.679A4.684,4.684,0,0,0,181.136,0Zm1.56,19.962a1.561,1.561,0,0,1-1.56,1.56h-6.082a1.56,1.56,0,0,0-1.1.457l-4.044,4.044-4.044-4.044a1.561,1.561,0,0,0-1.1-.457h-6.082a1.561,1.561,0,0,1-1.56-1.56V4.679a1.561,1.561,0,0,1,1.56-1.56h22.458a1.561,1.561,0,0,1,1.56,1.56Z" transform="translate(-154 0)"/></g><g transform="translate(31.035 10.164)"><path class="a" d="M201.662,65.627a1.558,1.558,0,1,0,.457,1.1A1.564,1.564,0,0,0,201.662,65.627Z" transform="translate(-199 -65.17)"/></g><g transform="translate(38.365 10.164)"><path class="a" d="M248.662,65.627a1.558,1.558,0,1,0,.457,1.1A1.571,1.571,0,0,0,248.662,65.627Z" transform="translate(-246 -65.17)"/></g><g transform="translate(45.695 10.164)"><path class="a" d="M295.662,65.627a1.558,1.558,0,1,0,.457,1.1A1.564,1.564,0,0,0,295.662,65.627Z" transform="translate(-293 -65.17)"/></g></svg>