<svg xmlns="http://www.w3.org/2000/svg" width="122" height="122" viewBox="0 0 122 122"><defs><style>.a{fill:#fff;}.b{fill:#1a73e8;}</style></defs><g transform="translate(-140 -1692)"><circle class="a" cx="61" cy="61" r="61" transform="translate(140 1692)"/><g transform="translate(167.477 1707.478)"><path class="b" d="M37.772,134.357a7.413,7.413,0,1,0-7.413-7.413A7.421,7.421,0,0,0,37.772,134.357Z" transform="translate(-24.531 -90.707)"/><path class="b" d="M28.264,256.979h-.23a8.613,8.613,0,0,0-8.6,8.6v19.88H36.868v-19.88A8.613,8.613,0,0,0,28.264,256.979Z" transform="translate(-14.908 -211.74)"/><path class="b" d="M312.977,125.056a6.317,6.317,0,1,0,6.317-6.317A6.324,6.324,0,0,0,312.977,125.056Z" transform="translate(-272.711 -90.01)"/><path class="b" d="M293.964,251.054a.8.8,0,0,0,.8.8h15.671a.8.8,0,0,0,.8-.8v-5.521a8.626,8.626,0,0,0-3.008-6.545.8.8,0,0,0-1.222.229l-3.795,7.106a.688.688,0,0,1-1.214,0l-3.8-7.106a.8.8,0,0,0-1.222-.229,8.625,8.625,0,0,0-3.008,6.545v5.521Z" transform="translate(-255.969 -195.728)"/><path class="b" d="M174.372,33.016H162.029l.843-1.061a1.2,1.2,0,0,0,.259-.743V19.776a.865.865,0,0,1,.864-.864h16.23a.865.865,0,0,1,.864.864v6.85h2.39v-6.85a3.258,3.258,0,0,0-3.254-3.254h-16.23a3.258,3.258,0,0,0-3.254,3.254V30.8l-2.123,2.673a1.195,1.195,0,0,0,.936,1.938h14.819v-2.39Z" transform="translate(-136.859 0)"/><circle class="b" cx="1.093" cy="1.093" r="1.093" transform="translate(29.106 24.871)"/><circle class="b" cx="1.093" cy="1.093" r="1.093" transform="translate(34.056 24.871)"/><circle class="b" cx="1.093" cy="1.093" r="1.093" transform="translate(39.005 24.871)"/><path class="b" d="M266.521,361.879H243.5a3.578,3.578,0,0,0-3.574,3.574v12.381H270.1V365.453A3.578,3.578,0,0,0,266.521,361.879Z" transform="translate(-208.382 -304.112)"/><path class="b" d="M357.813,247.457l.953-1.793a.216.216,0,0,0,.014-.171l-.953-2.84a.217.217,0,0,0-.411,0l-.953,2.84a.217.217,0,0,0,.014.171l.953,1.793A.217.217,0,0,0,357.813,247.457Z" transform="translate(-311.162 -198.995)"/></g></g></svg>