<svg xmlns="http://www.w3.org/2000/svg" width="552" height="400.347" viewBox="0 0 552 400.347"><defs><style>.a{fill:#f2f2f2;}.b{fill:#1a73e8;}.c{fill:#3f3d56;}.d{fill:#fff;}.e,.k{fill:none;stroke-miterlimit:10;stroke-width:2px;}.e{stroke:#3f3d56;}.f{fill:#fbbebe;}.g{opacity:0.1;}.h{fill:#2f2e41;}.i{fill:#d0cde1;}.j{fill:#ffb8b8;}.k{stroke:#d0cde1;}.l{fill:#a0616a;}</style></defs><g transform="translate(-1090 -10398)"><g transform="translate(1090 10398)"><path class="a" d="M258.471,64.911l-82.054,44.445a20.874,20.874,0,1,1-36.692,19.874l-27.978,15.154,72.471,133.8,146.723-79.474Z" transform="translate(-107.944 -64.911)"/><circle class="b" cx="16.939" cy="16.939" r="16.939" transform="translate(32.237 37.988)"/><path class="a" d="M746.795,572.538,835.512,543.6a20.874,20.874,0,1,1,39.671-12.94l30.25-9.867L858.246,376.13,699.608,427.877Z" transform="translate(-390.228 -214.355)"/><circle class="b" cx="16.939" cy="16.939" r="16.939" transform="translate(449.215 305.47)"/><rect class="c" width="409.611" height="186.092" transform="translate(60.038 79.364)"/><rect class="d" width="396.096" height="168.938" transform="translate(66.796 86.121)"/><rect class="c" width="38.466" height="12.995" transform="translate(384.14 247.003)"/><rect class="b" width="28.07" height="3.639" transform="translate(353.991 256.879)"/><path class="e" d="M190.5,273.792H341.765l23.452,11.425,37.366,18.2,24.431-45.743h69.135" transform="translate(-91.476 -123.734)"/><path class="e" d="M304.925,288.678l11.215,26.51h27.55" transform="translate(-146.422 -138.62)"/><path class="e" d="M385.807,269.47l38.306-20.792h27.03" transform="translate(-185.26 -119.413)"/><circle class="b" cx="4.678" cy="4.678" r="4.678" transform="translate(153.604 145.38)"/><circle class="b" cx="4.678" cy="4.678" r="4.678" transform="translate(197.268 145.38)"/><path class="e" d="M526.5,310.678l3.119,46.263h27.03" transform="translate(-252.82 -149.184)"/><path class="e" d="M599.207,271.7,569.5,248.678h28.07" transform="translate(-273.468 -119.413)"/><path class="e" d="M721.051,257.678l28.823,22.872H776.9" transform="translate(-346.241 -123.734)"/><circle class="b" cx="4.678" cy="4.678" r="4.678" transform="translate(269.002 156.815)"/><circle class="b" cx="4.678" cy="4.678" r="4.678" transform="translate(369.845 129.266)"/><circle class="b" cx="4.678" cy="4.678" r="4.678" transform="translate(320.983 147.459)"/><line class="e" x2="27.03" transform="translate(170.238 180.727)"/><path class="e" d="M615.93,322.589Z" transform="translate(-350.047 -188.645)"/><path class="e" d="M727.93,321.589Z" transform="translate(-403.828 -188.165)"/><path class="e" d="M727.93,329.589Z" transform="translate(-403.828 -192.007)"/><path class="e" d="M932.93,374.589Z" transform="translate(-502.267 -213.615)"/><path class="e" d="M913.93,382.589Z" transform="translate(-493.143 -217.457)"/><path class="e" d="M688.93,472.589Z" transform="translate(-385.101 -260.674)"/><ellipse class="e" cx="7.67" cy="7.67" rx="7.67" ry="7.67" transform="translate(413.139 31.591)"/><ellipse class="a" cx="79.011" cy="14.555" rx="79.011" ry="14.555" transform="translate(0 371.237)"/><path class="b" d="M243.368,493.658l-14.1,7.112.912,1.817,14.1-7.112Z" transform="translate(-110.094 -237.049)"/><path class="f" d="M346.76,532.537l-.633,3.8s.95,26.28-6.016,18.048-2.216-19.314-2.216-19.314l1.9-3.166Z" transform="translate(-215.778 -289.156)"/><path class="f" d="M276.662,299.221s-1.266,13.3-1.9,13.932,9.5,12.665,9.5,12.665l8.866-8.232s-.633-12.032,1.266-14.565S276.662,299.221,276.662,299.221Z" transform="translate(-186.208 -177.424)"/><path class="g" d="M276.662,299.221s-1.266,13.3-1.9,13.932,9.5,12.665,9.5,12.665l8.866-8.232s-.633-12.032,1.266-14.565S276.662,299.221,276.662,299.221Z" transform="translate(-186.208 -177.424)"/><path class="c" d="M118.994,699.139v11.4l-4.433.634-6.332-1.9,1.9-12.032Z" transform="translate(-51.97 -334.807)"/><path class="h" d="M204.312,772.623s-1.9-5.066-5.066-4.433-3.8,4.433-3.8,4.433-2.533,9.5-6.332,12.665-7.6,11.4,0,12.665,13.931-1.9,13.931-2.533,1.9-4.433,5.066-5.066,5.7-1.266,5.7-3.8a9.992,9.992,0,0,0-1.9-5.066s-.633-12.012-1.9-10.439a12.6,12.6,0,0,0-1.9,4.106Z" transform="translate(-142.987 -402.592)"/><path class="c" d="M178.983,689.345l-2.533,9.5,6.332,1.267,3.166-3.166.633-8.232Z" transform="translate(-84.729 -330.712)"/><path class="h" d="M279.269,764.828s2.533-1.9,3.8-1.9h1.9s0-4.433,3.166-4.433,2.533,3.166,2.533,3.166,6.966,10.765,8.866,12.665,12.032,7.6,3.8,10.132-13.932,2.533-17.731-1.9c0,0-3.8-1.9-6.333-1.9s-5.7-1.266-5.7-3.166,1.9-5.7,1.9-5.7,1.267-11.4,1.9-10.132S279.269,764.828,279.269,764.828Z" transform="translate(-185.649 -397.963)"/><path class="h" d="M219.2,474.647v20.9s-6.966,40.528-6.966,53.826-10.765,76.623-5.7,77.89,17.1,3.166,17.731,1.266,5.066-62.059,5.7-62.692,13.932-50.66,13.932-50.66l2.533.633,1.266,56.993s-6.332,51.293-3.166,51.293,16.465-.633,16.465-4.433,6.966-74.09,6.966-74.09,8.232-55.726,5.066-61.426-3.166-8.866-3.166-8.866Z" transform="translate(-152.808 -261.662)"/><ellipse class="f" cx="12.665" cy="12.665" rx="12.665" ry="12.665" transform="translate(88.238 106.282)"/><path class="i" d="M253.283,327.287s-7.916-6.649-8.549-9.182c0,0-4.116,4.116-4.116,4.749s-17.731,2.533-22.164,7.6-8.232,15.831-8.232,15.831l10.765,20.264s.633,11.4.633,12.665-3.166,21.531-1.9,22.164,13.932,6.966,24.7,5.7,21.531-3.166,24.7-3.166,5.7,1.266,5.7,0-1.9-3.8-1.9-5.066-.633-4.433-.633-6.332-1.267-5.066-1.267-7.6,13.932-36.729,13.932-36.729-.633-10.765-10.765-15.831-11.4-6.966-11.4-6.966-.2-3.8-.732-3.8-2.434,5.7-7.5,6.333Z" transform="translate(-155.23 -186.492)"/><path class="f" d="M122.847,428.2l4.433,6.965,11.4-2.533-8.232-9.5Z" transform="translate(-58.99 -203.186)"/><path class="i" d="M333.795,366.224l3.8,5.066s7.6,36.729,6.332,50.027-2.533,23.43-2.533,23.43,2.533,9.5.633,9.5-13.3.633-13.3-1.267S330,439.048,330,439.048l-3.166-27.863-6.966-9.5Z" transform="translate(-207.879 -209.598)"/><path class="h" d="M272.459,264.371a10.974,10.974,0,0,1,2.505-.2c.976-.165,1.85-.888,2.836-.8a5.446,5.446,0,0,1,1.35.438,1.763,1.763,0,0,0,1.383.05.786.786,0,0,0,.3-1.181,3.91,3.91,0,0,0,2.249-.968,1.679,1.679,0,0,1,.429-.322,1.4,1.4,0,0,1,1.1.172l1.449.668a1.833,1.833,0,0,1,.828.592c.172.269.206.63.45.836.311.263.777.134,1.184.16a1.514,1.514,0,0,1,1.367,1.476c-.006.425-.16.947.176,1.207.2.151.472.127.7.22.592.24.595,1.065.507,1.7s-.044,1.469.565,1.664c.429.137.867-.155,1.312-.221a3.235,3.235,0,0,1,1.892.643,1.756,1.756,0,0,0,1.911.1,1.8,1.8,0,0,0,.319-1.773,9.766,9.766,0,0,0-.929-2.54,1.612,1.612,0,0,1-.269-.791,1.432,1.432,0,0,1,.664-.967,4.4,4.4,0,0,0,1.813-2.066,8.826,8.826,0,0,0-.007-2.048,12.048,12.048,0,0,0,.195-2.484c-.282-1.486-1.935-2.2-3-3.272-1.467-1.472-1.943-3.826-3.674-4.976-1.385-.92-3.2-.81-4.773-1.336-1.732-.578-3.127-1.906-4.835-2.551a6.738,6.738,0,0,0-5.728.5,5.733,5.733,0,0,1-1.684.86,6.056,6.056,0,0,1-1.533-.018,5.916,5.916,0,0,0-2.923.6,1.634,1.634,0,0,0-.819.718c-.306.679.138,1.742-.532,2.066-.313.151-.682.006-1.029.014a1.97,1.97,0,0,0-1.516,1.2,5.735,5.735,0,0,1-1.063,1.71c-.826.723-2.326.843-2.541,1.919a10.462,10.462,0,0,0,.077,1.363c-.062.954-1.083,1.678-1.03,2.633.061,1.1,1.46,1.638,1.834,2.675a3.885,3.885,0,0,1-.348,2.442,2.115,2.115,0,0,0,.33,2.334c.261.2.6.283.863.476.689.5.68,1.512.6,2.36a1.11,1.11,0,0,0,.25,1.011.935.935,0,0,0,.765.092,3.124,3.124,0,0,0,1.977-1.488c.222-.367.266-.69.669-.884.273-.132.605-.014.884-.186C271.29,267.385,270.834,265.06,272.459,264.371Z" transform="translate(-180.159 -151.573)"/><path class="i" d="M204.386,368.661l-1.9,1.9s-11.4,34.2-7.6,41.794,11.4,26.6,13.932,25.963,11.4-6.333,11.4-6.966-10.765-18.364-10.765-18.364-1.266-3.8-.633-4.433.633,0,0-1.267-.633,0,.633-1.266,1.267-1.267,1.267-1.9,3.8-16.465,3.8-16.465Z" transform="translate(-147.494 -210.769)"/><path class="h" d="M128.329,442.8l13.932-4.432,1.9,4.432-15.2,3.166Z" transform="translate(-61.622 -210.498)"/><path class="g" d="M128.329,442.8l13.932-4.432,1.9,4.432-15.2,3.166Z" transform="translate(-61.622 -210.498)"/><path class="g" d="M164.876,262.939l10.765,8.865,1.267-1.9Z" transform="translate(-79.172 -126.26)"/><path class="g" d="M199.277,267.812l-7.6,4.432.633,1.9Z" transform="translate(-92.042 -128.6)"/></g><g transform="translate(1218.801 10552.002)"><ellipse class="j" cx="20.786" cy="20.786" rx="20.786" ry="20.786" transform="translate(316.695 12.683)"/><path class="j" d="M844.481,301.692s3.916,29.523-2.109,32.837,35.849,3.615,35.849,3.615-9.339-25.607-5.121-33.439Z" transform="translate(-522.515 -257.829)"/><path class="i" d="M873.318,365.09l-3.482,15.858-7.364,33.55-.221,1.837-2.541,21.271-1.69,14.131-1.133,9.492c-6.892,3.542-11.886,5.987-11.886,5.987s-.43-2.154-1.122-4.91c-4.837,1.45-13.786,3.856-21.37,4.336,2.762,3.078,4.031,5.97,2.309,8.1-5.2,6.434-26.645-7.044-34.147-12.07a20.309,20.309,0,0,0-.2,3.635l-5.741-4.415.568-10.159.958-17.189,1.2-21.556a22.647,22.647,0,0,1-.953-2.835c-1.758-6.253-3.892-18.738-5.529-29.208-1.317-8.426-2.307-15.547-2.516-17.062-.028-.2-.042-.3-.042-.3L810.2,349.543c2.258,5.238,12.8,6.812,12.8,6.812a35.372,35.372,0,0,0,15.586-5.21Z" transform="translate(-487.034 -284.626)"/><path class="j" d="M886.73,590.982s-1.345.461-3.533,1.114c-4.836,1.45-13.786,3.856-21.37,4.336-6.53.418-12.047-.588-13.057-4.848a4.5,4.5,0,0,1,1.518-4.576c3.991-3.7,14.416-5.026,22.684-5.481,2.335-.127,4.495-.187,6.292-.209,3.053-.04,5.054.023,5.054.023l.048.187Z" transform="translate(-526.353 -414.416)"/><path class="h" d="M836.876,215.808l-3.887-1.556s8.126-8.947,19.433-8.169l-3.18-3.5s7.773-3.112,14.84,5.057c3.715,4.294,8.013,9.342,10.692,15.028h4.162l-1.737,3.825,6.08,3.825-6.241-.687a21.373,21.373,0,0,1,.169,6.345,8.209,8.209,0,0,1-3.006,5.37h0s-4.82-9.977-4.82-11.533v3.89s-3.886-3.5-3.886-5.835l-2.12,2.723-1.06-4.279-13.073,4.279,2.12-3.5-8.126,1.167,3.18-4.279s-9.186,5.057-9.54,9.336a20.543,20.543,0,0,1-3.042,8.333S826.63,221.642,836.876,215.808Z" transform="translate(-516.687 -202)"/><path class="i" d="M972.6,457.782c-2.117,2.3-7.364,5.752-13.724,9.495-2.366,1.391-4.885,2.824-7.454,4.249-6.131,3.4-12.551,6.77-17.848,9.492-6.891,3.542-11.886,5.987-11.886,5.987s-.43-2.154-1.122-4.91c-.927-3.689-2.324-8.457-3.779-10.569-.051-.073-.1-.141-.153-.209-.424-.557-.851-.882-1.272-.882l21.037-13.04,9.091-5.636-6.549-15.635-8.214-19.612,4.958-15.776,4.983-15.858H950s3.092,6.75,7.047,16.163c.591,1.408,1.2,2.875,1.823,4.39C967.01,425.218,977.151,452.849,972.6,457.782Z" transform="translate(-563.721 -304.414)"/><path class="j" d="M837.09,601.131c-5.2,6.434-26.645-7.044-34.147-12.07-1.634-1.094-2.606-1.786-2.606-1.786l6.863-9.153,2.174-2.9s1.945,1.032,4.82,2.711c.1.062.209.124.317.187,2.479,1.456,5.591,3.358,8.732,5.481a65.892,65.892,0,0,1,11.539,9.424C837.542,596.1,838.811,599,837.09,601.131Z" transform="translate(-499.306 -411.011)"/><path class="i" d="M768.694,469.806a13.51,13.51,0,0,0-2.29.187c-6.5,1.117-8.415,7-8.961,10.939a20.3,20.3,0,0,0-.2,3.635l-5.741-4.415-2.092-1.608A38.122,38.122,0,0,1,736,469.993a67.4,67.4,0,0,1-9.031-10.711,94.453,94.453,0,0,1-6.988-11.985,8.815,8.815,0,0,1-.122-7.477l7.109-15.844,10.391-23.156q.114-.827.252-1.617c2.061-11.816,7.581-17.062,7.581-17.062h4.217l2.821,17.062,3.505,21.2-2.456,8.011-5.676,18.5,5.424,5.891Z" transform="translate(-453.807 -302.882)"/><path class="b" d="M830.554,456.054l3.605,4.206c1.34-.255,2.738-.556,4.179-.893l-1.036-3.314,2.532,2.954c15.263-3.754,34.182-11.053,34.182-11.053s-20.425,1.5-35.675-1.834a14.512,14.512,0,0,0-16.459,8.2c-1.609,3.678-1.357,6.864,4.352,6.864a37.7,37.7,0,0,0,5.753-.541Z" transform="translate(-510.893 -338.518)"/><path class="c" d="M859.163,620.215v1.716a3.771,3.771,0,0,1-.257,1.377,3.866,3.866,0,0,1-.274.565,3.8,3.8,0,0,1-3.265,1.854H729.139a3.8,3.8,0,0,1-3.265-1.854,3.86,3.86,0,0,1-.274-.565,3.769,3.769,0,0,1-.257-1.377v-1.716a3.8,3.8,0,0,1,3.8-3.8h7.276v-.8a.158.158,0,0,1,.158-.158h3.8a.158.158,0,0,1,.158.158v.8H742.9v-.8a.158.158,0,0,1,.158-.158h3.8a.158.158,0,0,1,.158.158v.8h2.374v-.8a.158.158,0,0,1,.158-.158h3.8a.158.158,0,0,1,.158.158v.8h2.372v-.8a.158.158,0,0,1,.158-.158h3.8a.158.158,0,0,1,.158.158v.8h2.372v-.8a.158.158,0,0,1,.158-.158h3.8a.158.158,0,0,1,.158.158v.8h2.374v-.8a.158.158,0,0,1,.158-.158h3.8a.158.158,0,0,1,.158.158v.8h2.372v-.8a.158.158,0,0,1,.158-.158h29.737a.158.158,0,0,1,.158.158v.8h2.374v-.8a.158.158,0,0,1,.158-.158h3.8a.16.16,0,0,1,.158.158v.8h2.372v-.8a.158.158,0,0,1,.158-.158h3.8a.158.158,0,0,1,.158.158v.8h2.372v-.8a.158.158,0,0,1,.158-.158h3.8a.158.158,0,0,1,.158.158v.8h2.375v-.8a.158.158,0,0,1,.158-.158h3.8a.157.157,0,0,1,.155.158v.8H833.7v-.8a.158.158,0,0,1,.158-.158h3.8a.158.158,0,0,1,.158.158v.8h2.372v-.8a.158.158,0,0,1,.158-.158h3.8a.158.158,0,0,1,.158.158v.8h11.072A3.8,3.8,0,0,1,859.163,620.215Z" transform="translate(-457.309 -433.544)"/><path class="c" d="M855.171,460.8h-47.05v-.97H786.788v.97H739.545a3.183,3.183,0,0,0-3.182,3.182v64.424a3.183,3.183,0,0,0,3.182,3.183H855.17a3.183,3.183,0,0,0,3.182-3.183V463.985A3.182,3.182,0,0,0,855.171,460.8Z" transform="translate(-463.48 -346.39)"/><ellipse class="k" cx="7.067" cy="7.067" rx="7.067" ry="7.067" transform="translate(326.903 129.838)"/><ellipse class="i" cx="7.067" cy="7.067" rx="7.067" ry="7.067" transform="translate(324.642 132.382)"/><circle class="h" cx="10.288" cy="10.288" r="10.288" transform="translate(113.925 62.62)"/><path class="h" d="M394.757,343.01a10.289,10.289,0,0,1,9.057,15.171,10.286,10.286,0,1,0-17.089-11.3,10.263,10.263,0,0,1,8.032-3.869Z" transform="translate(-267.678 -280.107)"/><ellipse class="h" cx="30.221" cy="30.221" rx="30.221" ry="30.221" transform="translate(74.767 12.444)"/><path class="h" d="M289.2,241.711a30.216,30.216,0,0,1,41.883-3.169c-.247-.235-.492-.472-.748-.7a30.221,30.221,0,1,0-40.158,45.173c.257.228.521.443.783.661a30.216,30.216,0,0,1-1.759-41.965Z" transform="translate(-207.928 -217.797)"/><ellipse class="l" cx="19.464" cy="19.464" rx="19.464" ry="19.464" transform="translate(85.268 33.701)"/><path class="l" d="M320.275,336.805s2.561,23.562-1.537,26.123,23.562,6.147,23.562,6.147-4.1-25.611,6.147-32.27Z" transform="translate(-229.373 -277.493)"/><path class="i" d="M295.188,377.576s7.627-3.562-3.358-2.293a39.759,39.759,0,0,1-20.462-3.6s-3.328-3.329-3.84.256,1.537,10.244-9.732,11.269-21.513-2.049-25.611,5.634-2.049,40.978-2.049,40.978,7.683,27.66,13.83,31.758,59.93-1.537,59.93-1.537l15.367-27.66v-32.27s-2.049-11.269-16.391-8.2c0,0-9.22-2.049-8.708-6.659S295.188,377.576,295.188,377.576Z" transform="translate(-179.699 -296.239)"/><path class="h" d="M264.253,575.2c.317-1.379.529-2.16.529-2.16l-.164-1.122-1.688-11.459-.71-4.834c6.145-2.561,7.683-14.343,7.683-14.343l.232-.139,1.049-.628v0l3.765-2.259.076-.045,1.521,1.012,3.09,2.061a36.331,36.331,0,0,0,28.609,6.555,31.5,31.5,0,0,0,6.733-1.945l7.451-2.485.232-.076.229.034,4.37.661.079.014.362.054-1.012,7-1.467,10.168c3.875,2.052,7.321,5.908,10.334,10.66q1,1.577,1.939,3.282c.814,1.47,1.591,3,2.332,4.565.09.187.178.376.266.565.285.613.568,1.232.842,1.854H262.9c.1-.625.2-1.221.3-1.8a.435.435,0,0,0,.011-.059c.037-.192.071-.379.1-.565C263.657,577.9,263.991,576.339,264.253,575.2Z" transform="translate(-197.954 -390.28)"/><path class="h" d="M259.892,396.767a39.3,39.3,0,0,1,3.585,23.05c-2.049,12.805,6.147,44.563,6.147,44.563l6.147-1.537s-4.1-26.636-3.073-32.782,1.024-30.221-4.1-33.294S259.892,396.767,259.892,396.767Z" transform="translate(-196.65 -310.308)"/><path class="h" d="M395.277,418.931l2.153,56.711,4.1,2.561s5.891-62.235,2.817-62.235h-6.253a2.818,2.818,0,0,0-2.815,2.962Z" transform="translate(-272.465 -321.826)"/><circle class="b" cx="2.561" cy="2.561" r="2.561" transform="translate(73.231 147.67)"/><circle class="b" cx="2.561" cy="2.561" r="2.561" transform="translate(124.453 150.232)"/><path class="h" d="M200.2,65.536V85h4.508l5.737-6.147L209.676,85H229.6l-1.229-6.147L230.831,85h3.175V65.536Z" transform="translate(-112.115 -36.701)"/><ellipse class="l" cx="1.537" cy="2.817" rx="1.537" ry="2.817" transform="translate(83.475 46.25)"/><ellipse class="l" cx="1.537" cy="2.817" rx="1.537" ry="2.817" transform="translate(122.916 46.25)"/><path class="l" d="M391.178,547.121s-23.306-4.354-24.843,3.33S392.2,554.8,392.2,554.8Z" transform="translate(-256.225 -394.584)"/><path class="i" d="M417.148,428.775s55.832,44.563,45.588,55.32-49.173,7.683-49.173,7.683l2.561-12.806,22.538-2.561-11.269-11.269-10.244,1.024Z" transform="translate(-282.708 -328.997)"/><path class="l" d="M234.28,588.453l7.171,5.634s5.122,15.879,12.806,11.269-7.171-21-7.171-21l-8.708-3.073Z" transform="translate(-182.307 -414.403)"/><path class="i" d="M175.3,410.148l-7.152,2.152s-49.705,36.776-51.754,47.021,9.732,15.879,9.732,15.879l44.563,21,4.61-12.293-21-10.757s1.537-3.073-4.61-3.586-7.171-7.171-7.171-7.171,12.293-18.952,18.952-14.854,8.708,7.171,8.708,7.171Z" transform="translate(-116.155 -318.566)"/><path class="c" d="M312.091,620.215v1.716a3.771,3.771,0,0,1-.257,1.377,3.862,3.862,0,0,1-.274.565,3.8,3.8,0,0,1-3.265,1.854H182.068a3.8,3.8,0,0,1-3.265-1.854,3.861,3.861,0,0,1-.274-.565,3.771,3.771,0,0,1-.257-1.377v-1.716a3.8,3.8,0,0,1,3.8-3.8h7.276v-.8a.158.158,0,0,1,.158-.158h3.8a.158.158,0,0,1,.158.158v.8h2.372v-.8a.158.158,0,0,1,.158-.158h3.8a.158.158,0,0,1,.158.158v.8h2.374v-.8a.158.158,0,0,1,.158-.158h3.8a.158.158,0,0,1,.158.158v.8H208.8v-.8a.158.158,0,0,1,.158-.158h3.8a.158.158,0,0,1,.158.158v.8h2.372v-.8a.158.158,0,0,1,.158-.158h3.8a.158.158,0,0,1,.158.158v.8h2.374v-.8a.158.158,0,0,1,.158-.158h3.8a.158.158,0,0,1,.158.158v.8h2.372v-.8a.158.158,0,0,1,.158-.158h29.737a.158.158,0,0,1,.158.158v.8h2.374v-.8a.158.158,0,0,1,.158-.158h3.8a.16.16,0,0,1,.158.158v.8h2.372v-.8a.158.158,0,0,1,.158-.158h3.8a.158.158,0,0,1,.158.158v.8h2.372v-.8a.158.158,0,0,1,.158-.158h3.8a.158.158,0,0,1,.158.158v.8h2.374v-.8a.158.158,0,0,1,.158-.158h3.8a.157.157,0,0,1,.155.158v.8h2.374v-.8a.158.158,0,0,1,.158-.158h3.8a.158.158,0,0,1,.158.158v.8h2.372v-.8a.158.158,0,0,1,.158-.158h3.8a.158.158,0,0,1,.158.158v.8h11.072A3.8,3.8,0,0,1,312.091,620.215Z" transform="translate(-150.941 -433.544)"/><path class="c" d="M308.1,460.8H261.049v-.97H239.715v.97H192.472a3.182,3.182,0,0,0-3.182,3.183v64.424a3.182,3.182,0,0,0,3.182,3.182H308.1a3.183,3.183,0,0,0,3.182-3.182V463.982A3.183,3.183,0,0,0,308.1,460.8Z" transform="translate(-157.112 -346.388)"/><ellipse class="k" cx="7.067" cy="7.067" rx="7.067" ry="7.067" transform="translate(86.199 129.837)"/><ellipse class="i" cx="7.067" cy="7.067" rx="7.067" ry="7.067" transform="translate(83.938 132.381)"/><rect class="c" width="417.987" height="0.88" transform="translate(5.212 190.074)"/></g></g></svg>