<svg xmlns="http://www.w3.org/2000/svg" xmlns:xlink="http://www.w3.org/1999/xlink" width="480.018" height="392.199" viewBox="0 0 480.018 392.199"><defs><style>.a{fill:#d0d2d5;}.b,.d,.k{opacity:0.1;}.c,.l{fill:#444053;}.d,.e,.g{fill:#1a73e8;}.f{fill:#fff;}.g{opacity:0.3;}.h,.m{fill:#3f3d56;}.h{opacity:0.2;}.i{fill:#ee8e9e;}.j{fill:#454b69;}.l{opacity:0.6;}.n{fill:url(#a);}.o{fill:#a26565;}.p{fill:#efb7b9;}</style><linearGradient id="a" x1="0.5" y1="1" x2="0.5" gradientUnits="objectBoundingBox"><stop offset="0" stop-color="gray" stop-opacity="0.251"/><stop offset="0.54" stop-color="gray" stop-opacity="0.122"/><stop offset="1" stop-color="gray" stop-opacity="0.102"/></linearGradient></defs><g transform="translate(-96.983 -79.753)"><path class="a" d="M582.057,717.987,469.18,716.54l.33-2.894,5.459-47.756H574.1l7.294,47.756.556,3.618Z" transform="translate(-209.028 -289.837)"/><path class="b" d="M581.947,752.008H525.619l-56.439-.724.33-2.894H581.392Z" transform="translate(-209.028 -324.581)"/><rect class="a" width="149.779" height="3.618" transform="translate(241.339 424.532)"/><path class="c" d="M659.337,197.7a9.418,9.418,0,0,0-9.372-9.464H231.677A9.418,9.418,0,0,0,222.3,197.7v253.54H659.337Z" transform="translate(-125.317 -108.487)"/><path class="a" d="M222.3,638.24v29.7a9.378,9.378,0,0,0,9.378,9.378H649.966a9.378,9.378,0,0,0,9.372-9.378v-29.7Z" transform="translate(-125.317 -298.001)"/><rect class="d" width="403.03" height="227.925" transform="translate(115.073 95.672)"/><path class="e" d="M596.46,672.093a9.777,9.777,0,0,0,7.687-3.728h0a9.951,9.951,0,0,0,.758-1.117l-5.36-.88,5.789.046a9.754,9.754,0,0,0,.185-7.745l-7.774,4.052,7.172-5.268a9.765,9.765,0,1,0-16.133,10.929h0A9.766,9.766,0,0,0,596.46,672.093Z" transform="translate(-278.788 -304.051)"/><path class="b" d="M585.43,671.52l45.029,45.22-6.906-45.22Z" transform="translate(-257.986 -292.208)"/><rect class="f" width="264.538" height="158.607" rx="2.6" transform="translate(126.91 136.794)"/><rect class="f" width="402.885" height="13.314" transform="translate(115.333 95.695)"/><rect class="e" width="11.577" height="8.104" rx="0.78" transform="translate(117.07 98.01)"/><rect class="g" width="121.56" height="8.104" rx="0.58" transform="translate(254.838 98.01)"/><path class="c" d="M695.409,225.276h-.3l-.11-.093a2.46,2.46,0,0,0,.579-1.574,2.4,2.4,0,1,0-2.391,2.414,2.472,2.472,0,0,0,1.574-.579l.11.093v.3l1.852,1.852.579-.579Zm-2.223,0a1.673,1.673,0,1,1,1.667-1.667,1.656,1.656,0,0,1-1.667,1.667Z" transform="translate(-322.618 -122.38)"/><circle class="e" cx="4.052" cy="4.052" r="4.052" transform="translate(508.377 98.01)"/><rect class="f" width="37.626" height="25.47" rx="2.43" transform="translate(410.551 123.48)"/><rect class="f" width="48.624" height="4.052" rx="0.61" transform="translate(458.017 123.48)"/><rect class="f" width="48.624" height="4.052" rx="0.61" transform="translate(458.017 132.163)"/><rect class="f" width="48.624" height="4.052" rx="0.61" transform="translate(458.017 140.846)"/><rect class="f" width="37.626" height="25.47" rx="2.43" transform="translate(410.551 163.421)"/><rect class="f" width="48.624" height="4.052" rx="0.61" transform="translate(458.017 163.421)"/><rect class="f" width="48.624" height="4.052" rx="0.61" transform="translate(458.017 172.104)"/><rect class="f" width="48.624" height="4.052" rx="0.66" transform="translate(458.017 180.787)"/><rect class="f" width="37.626" height="25.47" rx="2.43" transform="translate(410.551 203.362)"/><rect class="f" width="48.624" height="4.052" rx="0.66" transform="translate(458.017 203.362)"/><rect class="f" width="48.624" height="4.052" rx="0.66" transform="translate(458.017 212.045)"/><rect class="f" width="48.624" height="4.052" rx="0.66" transform="translate(458.017 220.728)"/><rect class="f" width="37.626" height="25.47" rx="2.43" transform="translate(410.551 243.304)"/><rect class="f" width="48.624" height="4.052" rx="0.66" transform="translate(458.017 243.304)"/><rect class="f" width="48.624" height="4.052" rx="0.66" transform="translate(458.017 251.986)"/><rect class="f" width="48.624" height="4.052" rx="0.66" transform="translate(458.017 260.669)"/><rect class="f" width="37.626" height="25.47" rx="2.43" transform="translate(410.551 283.245)"/><rect class="f" width="48.624" height="4.052" rx="0.66" transform="translate(458.017 283.245)"/><rect class="f" width="48.624" height="4.052" rx="0.66" transform="translate(458.017 291.928)"/><rect class="f" width="48.624" height="4.052" rx="0.66" transform="translate(458.017 300.611)"/><rect class="d" width="59.524" height="3.085" transform="translate(165.069 178.825)"/><rect class="d" width="5.731" height="16.312" transform="translate(170.359 162.512)"/><rect class="d" width="5.731" height="16.312" transform="translate(178.735 162.512)"/><rect class="d" width="5.731" height="16.312" transform="translate(187.112 162.512)"/><rect class="d" width="5.731" height="16.312" transform="translate(195.488 162.512)"/><rect class="d" width="5.731" height="16.312" transform="translate(203.864 162.512)"/><rect class="d" width="5.731" height="16.312" transform="translate(212.246 162.512)"/><rect class="d" width="5.731" height="1.766" transform="translate(170.359 165.598)"/><rect class="d" width="5.731" height="1.766" transform="translate(178.735 165.598)"/><rect class="d" width="5.731" height="1.766" transform="translate(187.112 165.598)"/><rect class="d" width="5.731" height="1.766" transform="translate(195.488 165.598)"/><rect class="d" width="5.731" height="1.766" transform="translate(203.864 165.598)"/><rect class="d" width="5.731" height="1.766" transform="translate(212.246 165.598)"/><rect class="d" width="5.731" height="1.766" transform="translate(170.359 173.534)"/><rect class="d" width="5.731" height="1.766" transform="translate(178.735 173.534)"/><rect class="d" width="5.731" height="1.766" transform="translate(187.112 173.534)"/><rect class="d" width="5.731" height="1.766" transform="translate(195.488 173.534)"/><rect class="d" width="5.731" height="1.766" transform="translate(203.864 173.534)"/><rect class="d" width="5.731" height="1.766" transform="translate(212.246 173.534)"/><rect class="d" width="59.524" height="3.085" transform="translate(295.572 186.761)"/><rect class="d" width="5.731" height="16.312" transform="translate(300.863 170.449)"/><rect class="d" width="5.731" height="16.312" transform="translate(309.239 170.449)"/><rect class="d" width="5.731" height="16.312" transform="translate(317.615 170.449)"/><rect class="d" width="5.731" height="16.312" transform="translate(325.997 170.449)"/><rect class="d" width="5.731" height="16.312" transform="translate(334.373 170.449)"/><rect class="d" width="5.731" height="16.312" transform="translate(342.749 170.449)"/><rect class="d" width="5.731" height="1.766" transform="translate(300.863 173.534)"/><rect class="d" width="5.731" height="1.766" transform="translate(309.239 173.534)"/><rect class="d" width="5.731" height="1.766" transform="translate(317.615 173.534)"/><rect class="d" width="5.731" height="1.766" transform="translate(325.997 173.534)"/><rect class="d" width="5.731" height="1.766" transform="translate(334.373 173.534)"/><rect class="d" width="5.731" height="1.766" transform="translate(342.749 173.534)"/><rect class="d" width="5.731" height="1.766" transform="translate(300.863 181.47)"/><rect class="d" width="5.731" height="1.766" transform="translate(309.239 181.47)"/><rect class="d" width="5.731" height="1.766" transform="translate(317.615 181.47)"/><rect class="d" width="5.731" height="1.766" transform="translate(325.997 181.47)"/><rect class="d" width="5.731" height="1.766" transform="translate(334.373 181.47)"/><rect class="d" width="5.731" height="1.766" transform="translate(342.749 181.47)"/><rect class="d" width="59.524" height="3.085" transform="translate(295.572 209.244)"/><rect class="d" width="5.731" height="16.312" transform="translate(300.863 192.931)"/><rect class="d" width="5.731" height="16.312" transform="translate(309.239 192.931)"/><rect class="d" width="5.731" height="16.312" transform="translate(317.615 192.931)"/><rect class="d" width="5.731" height="16.312" transform="translate(325.997 192.931)"/><rect class="d" width="5.731" height="16.312" transform="translate(334.373 192.931)"/><rect class="d" width="5.731" height="16.312" transform="translate(342.749 192.931)"/><rect class="d" width="5.731" height="1.766" transform="translate(300.863 196.017)"/><rect class="d" width="5.731" height="1.766" transform="translate(309.239 196.017)"/><rect class="d" width="5.731" height="1.766" transform="translate(317.615 196.017)"/><rect class="d" width="5.731" height="1.766" transform="translate(325.997 196.017)"/><rect class="d" width="5.731" height="1.766" transform="translate(334.373 196.017)"/><rect class="d" width="5.731" height="1.766" transform="translate(342.749 196.017)"/><rect class="d" width="5.731" height="1.766" transform="translate(300.863 203.953)"/><rect class="d" width="5.731" height="1.766" transform="translate(309.239 203.953)"/><rect class="d" width="5.731" height="1.766" transform="translate(317.615 203.953)"/><rect class="d" width="5.731" height="1.766" transform="translate(325.997 203.953)"/><rect class="d" width="5.731" height="1.766" transform="translate(334.373 203.953)"/><rect class="d" width="5.731" height="1.766" transform="translate(342.749 203.953)"/><path class="d" d="M400.557,401.193a16.477,16.477,0,0,1-1.216-1.789L407.914,398l-9.262.069a15.664,15.664,0,0,1-.3-12.376l12.417,6.437L399.3,383.7a15.629,15.629,0,1,1,25.8,17.482,15.19,15.19,0,0,1,1.783,2.848l-11.126,5.789,11.861-3.977a15.629,15.629,0,0,1-2.518,14.651,15.629,15.629,0,1,1-24.544,0,15.629,15.629,0,0,1,0-19.316Z" transform="translate(-198.974 -187.48)"/><path class="d" d="M428.446,436.172a15.567,15.567,0,0,1-3.347,9.645,15.629,15.629,0,1,1-24.542,0C398.455,443.171,428.446,434.418,428.446,436.172Z" transform="translate(-198.973 -212.805)"/><path class="h" d="M424.275,500.641a1.474,1.474,0,0,1,.075.127h-5.3c.029-.041.046-.087.075-.127a5.134,5.134,0,0,1-.683-2.611,5.359,5.359,0,0,1,.318-1.841h0c.3.046.66.1,1.082.145a18.578,18.578,0,0,0,3.7,0q.533-.052,1.094-.139a.053.053,0,0,0,0,.029,5.209,5.209,0,0,1,.313,1.812A5.134,5.134,0,0,1,424.275,500.641Z" transform="translate(-207.919 -238.178)"/><path class="d" d="M365.192,462.051H335.67c-.064-.168-.122-.347-.174-.521a15.542,15.542,0,0,1,.341-10.211,15.629,15.629,0,0,1-5.7-18.46,14.951,14.951,0,0,1-1.684-1.349l7.768-3.873-8.833,2.8a15.629,15.629,0,0,1-3.936-11.733l13.783,2.489-13.441-4.671a15.629,15.629,0,1,1,29.805,9.088,15.837,15.837,0,0,1,2.564,2.229l-8.926,8.8,10.159-7.305a15.629,15.629,0,0,1,1.922,14.761,15.629,15.629,0,0,1,5.875,17.95Z" transform="translate(-167.892 -199.459)"/><path class="d" d="M373.485,483.5H343.964c-.064-.168-.122-.347-.174-.521a15.542,15.542,0,0,1,.342-10.211c-2.779-1.922,23.287-19.143,23.8-17.464a15.56,15.56,0,0,1-.342,10.217,15.629,15.629,0,0,1,5.893,17.979Z" transform="translate(-176.186 -220.911)"/><path class="d" d="M591.083,450.37a15.571,15.571,0,0,1-7.82,6.576,15.857,15.857,0,0,1,.064,3.357l-12.509-.753,12.22,2.651a15.63,15.63,0,0,1-1.864,4.724,15.38,15.38,0,0,1-4.168,4.573h-17.03v.446H542.61c.035-.151.069-.3.11-.446a15.629,15.629,0,0,1,9.522-10.6,15.629,15.629,0,0,1,9.916-16.578,15.821,15.821,0,0,1-.127-2.159l8.075,3.19-7.988-4.695a15.63,15.63,0,0,1,6.13-10.755l7.357,11.913L570.088,428.7a15.629,15.629,0,0,1,21,21.672Z" transform="translate(-260.213 -208.931)"/><path class="d" d="M581.173,491.21a15.378,15.378,0,0,1-4.168,4.573h-17.03v.446H542.61c.035-.151.069-.3.11-.446a15.629,15.629,0,0,1,9.522-10.6c-.145-1.158,3.219-.984,7.7-.232C568.74,486.429,581.77,490.215,581.173,491.21Z" transform="translate(-260.213 -233.192)"/><path class="i" d="M478.84,423.55s2.142,11.577-2.64,15.357,4.052,26.436,18.628,23.791,20.515-21.649,20.515-21.649-14.6-3.022-9.186-18.379Z" transform="translate(-231.695 -207.215)"/><path class="b" d="M478.84,423.55s2.142,11.577-2.64,15.357,4.052,26.436,18.628,23.791,20.515-21.649,20.515-21.649-14.6-3.022-9.186-18.379Z" transform="translate(-231.695 -207.215)"/><circle class="i" cx="24.167" cy="24.167" r="24.167" transform="translate(235.88 176.498)"/><path class="e" d="M514.551,463.919v16.428h-79.8V464.665a10.119,10.119,0,0,1,6.177-9.32l2.286-.972c5.789-2.466,12.822-5.528,15.12-6.8a3.78,3.78,0,0,0,.706-.457c1.256-1.256,1.007.376,1.007.376s-.035.313-.058.851c-.139,3.7.394,18.234,17.429,17.024,16.619-1.158,17.366-12.4,17.2-15.7a8.958,8.958,0,0,0-.075-.915,21.477,21.477,0,0,1,3.363,1.1c3.473,1.285,8.6,3.346,9.974,4.318.428.3.949.614,1.517.932a9.975,9.975,0,0,1,1.794,1.279A10.136,10.136,0,0,1,514.551,463.919Z" transform="translate(-214.788 -217.31)"/><path class="b" d="M515.051,449.847c-1.407,6.518-5.823,18.726-21.742,19.044-16.961.336-17.945-16.532-17.835-21.319a3.422,3.422,0,0,0,.712-.457c1.262-1.256,1.007.376,1.007.376s-2.136,19.259,17.366,17.875,17.105-16.613,17.105-16.613A23.774,23.774,0,0,1,515.051,449.847Z" transform="translate(-231.936 -217.31)"/><path class="j" d="M453.39,370.494a4.139,4.139,0,0,1,4.359,1.592,7.9,7.9,0,0,1,1.123,4.145c1.048.22,1.638-.967,1.737-1.864.388-3.653.417-7.375,1.644-10.906a13.018,13.018,0,0,1,8.023-8.3,9.308,9.308,0,0,1,4.382-.417c.874.145,1.7.452,2.564.579,3.01.5,6.281-.926,9.1.064a7.256,7.256,0,0,1,3.722,3.508,7.571,7.571,0,0,0,1.447,2.1c1.2,1.077,3.074,1.355,4.793,1.69s3.595.92,4.33,2.246c.66,1.2.174,2.582-.046,3.878a9.5,9.5,0,0,0,.978,6c.318.579.967,1.279,1.737,1.088a1.522,1.522,0,0,0,.822-.666c1.974-2.767,1.922-6.367,4.4-8.862.828-.834,1.9-1.482,2.7-2.315a5.256,5.256,0,0,0,1.4-4.77c-.446-1.91-1.974-3.473-3.207-5.152a20.258,20.258,0,0,1-3.433-7.126,1.291,1.291,0,0,1,0-.932,2.483,2.483,0,0,1,.88-.718,3.323,3.323,0,0,0,1.123-4.243,7.074,7.074,0,0,0-3.977-3.166,25.934,25.934,0,0,0-5.424-1.158,2.95,2.95,0,0,1-3.016-1.488c-.168-.434-.168-.9-.336-1.337a3.068,3.068,0,0,0-2.315-1.621,6.772,6.772,0,0,0-3.1.22c-1.158.324-2.472.81-3.473.243-.527-.3-.816-.834-1.383-1.077-1.158-.486-2.35.5-3.178,1.308a7.734,7.734,0,0,1-2.865,1.928,4.266,4.266,0,0,1-3.554-.237,11.219,11.219,0,0,1-1.823-1.957,6.865,6.865,0,0,0-4.312-1.737,15.184,15.184,0,0,0-4.868.533,29.4,29.4,0,0,0-8.55,3.589,9.186,9.186,0,0,0-3.282,3.051,6.946,6.946,0,0,0-.735,3.143,11.343,11.343,0,0,0,3.965,9.418c-1.806.753-2.414,2.6-2.836,4.237a23.192,23.192,0,0,0-1.1,7.936,17.427,17.427,0,0,1,.3,4.127,8.891,8.891,0,0,0-.266,1.974,1.893,1.893,0,0,0,1.546,1.441Z" transform="translate(-221.95 -168.619)"/><g class="k" transform="translate(229.842 171.12)"><path d="M547.638,378a5.648,5.648,0,0,1-1.042,1.54c-.8.845-1.875,1.5-2.7,2.315-2.478,2.478-2.425,6.1-4.4,8.868a1.488,1.488,0,0,1-.822.66c-.753.2-1.4-.486-1.737-1.088a9.957,9.957,0,0,1-.862-2.315l-.116.579a9.5,9.5,0,0,0,.978,6c.318.579.967,1.279,1.737,1.088a1.522,1.522,0,0,0,.822-.666c1.974-2.767,1.922-6.367,4.4-8.862.828-.834,1.9-1.482,2.7-2.315a5.256,5.256,0,0,0,1.4-4.77,6.212,6.212,0,0,0-.359-1.036Z" transform="translate(-487.2 -359.523)"/><path d="M546.207,347.937a2.426,2.426,0,0,0-.88.718,1.28,1.28,0,0,0,0,.926,19.577,19.577,0,0,0,.874,2.64h0a3.323,3.323,0,0,0,1.123-4.243,4.053,4.053,0,0,0-.405-.677A3.333,3.333,0,0,1,546.207,347.937Z" transform="translate(-491.163 -346.594)"/><path d="M455.813,352.789a10.732,10.732,0,0,1-3.791-6.709,9.044,9.044,0,0,0-.174,1.574,12.052,12.052,0,0,0,1.9,7.16,4.052,4.052,0,0,1,2.061-2.026Z" transform="translate(-451.824 -346.08)"/><path d="M500.675,378.635c.22-1.3.706-2.686.046-3.878-.735-1.331-2.611-1.91-4.33-2.246s-3.595-.619-4.793-1.69a7.573,7.573,0,0,1-1.447-2.1,7.167,7.167,0,0,0-3.722-3.508c-2.819-.99-6.09.428-9.1-.064-.868-.145-1.69-.446-2.564-.579a9.263,9.263,0,0,0-4.382.417,13.044,13.044,0,0,0-8.023,8.3c-1.227,3.525-1.256,7.247-1.644,10.906-.1.891-.689,2.084-1.737,1.864a7.963,7.963,0,0,0-1.123-4.15,4.139,4.139,0,0,0-4.359-1.586,2.119,2.119,0,0,1-1.221-.781,6.708,6.708,0,0,1,0,1.6,8.89,8.89,0,0,0-.266,1.974,1.893,1.893,0,0,0,1.511,1.488,4.139,4.139,0,0,1,4.359,1.592A7.9,7.9,0,0,1,459,390.328c1.048.22,1.638-.967,1.737-1.864.388-3.653.417-7.375,1.644-10.906a13.018,13.018,0,0,1,8.023-8.3,9.307,9.307,0,0,1,4.382-.417c.874.145,1.7.452,2.564.579,3.01.5,6.281-.926,9.1.064A7.256,7.256,0,0,1,490.174,373a7.572,7.572,0,0,0,1.447,2.1c1.2,1.077,3.074,1.355,4.793,1.69s3.473.88,4.243,2.107A.5.5,0,0,1,500.675,378.635Z" transform="translate(-451.9 -353.826)"/><path d="M452.173,383.484a11,11,0,0,0-.191-3.224,14.367,14.367,0,0,0-.11,3.38,6.155,6.155,0,0,0,.1.863C452.04,384.162,452.127,383.826,452.173,383.484Z" transform="translate(-451.819 -360.475)"/></g><path class="c" d="M403.49,537.4V526.953a.3.3,0,0,1,.3-.3h1.187a.3.3,0,0,1,.3.3V531.3l4.816-4.463a.787.787,0,0,1,1.291.579v9.464a.787.787,0,0,1-1.291.579l-4.816-4.434v4.324a.3.3,0,0,1-.3.3h-1.187A.3.3,0,0,1,403.49,537.4Z" transform="translate(-201.623 -251.008)"/><path class="c" d="M598.8,526.967v10.448a.3.3,0,0,1-.3.3h-1.158a.3.3,0,0,1-.3-.3v-4.347l-4.816,4.457a.793.793,0,0,1-1.3-.579v-9.5a.793.793,0,0,1,1.3-.579l4.816,4.434v-4.318a.3.3,0,0,1,.3-.3H598.5a.3.3,0,0,1,.3.278Z" transform="translate(-280.562 -251.021)"/><path class="c" d="M498.054,538.024H495.7a1.158,1.158,0,0,1-1.158-1.158v-8.648a1.158,1.158,0,0,1,1.158-1.158h2.356a1.158,1.158,0,0,1,1.158,1.158v8.648A1.158,1.158,0,0,1,498.054,538.024Zm7.467-1.158v-8.648a1.158,1.158,0,0,0-1.158-1.158h-2.379a1.158,1.158,0,0,0-1.158,1.158v8.648a1.158,1.158,0,0,0,1.158,1.158h2.356a1.158,1.158,0,0,0,1.181-1.158Z" transform="translate(-239.968 -251.178)"/><rect class="l" width="138.926" height="1.546" transform="translate(190.585 261.862)"/><circle class="c" cx="3.664" cy="3.664" r="3.664" transform="translate(229.82 258.968)"/><rect class="c" width="42.899" height="1.546" transform="translate(190.585 261.862)"/><ellipse class="e" cx="34.425" cy="6.622" rx="34.425" ry="6.622" transform="translate(508.152 423.062)"/><ellipse class="m" cx="4.006" cy="5.244" rx="4.006" ry="5.244" transform="translate(537.998 421.626)"/><ellipse class="m" cx="4.006" cy="5.244" rx="4.006" ry="5.244" transform="translate(537.998 415.213)"/><ellipse class="m" cx="4.006" cy="5.244" rx="4.006" ry="5.244" transform="translate(537.998 408.805)"/><ellipse class="m" cx="4.006" cy="5.244" rx="4.006" ry="5.244" transform="translate(537.998 402.391)"/><ellipse class="m" cx="4.006" cy="5.244" rx="4.006" ry="5.244" transform="translate(537.998 395.977)"/><ellipse class="m" cx="4.006" cy="5.244" rx="4.006" ry="5.244" transform="translate(537.998 389.564)"/><ellipse class="m" cx="4.006" cy="5.244" rx="4.006" ry="5.244" transform="translate(537.998 383.15)"/><path class="e" d="M992.054,623.022a19.839,19.839,0,0,0,1.494-2.2l-10.535-1.737,11.392.087a19.258,19.258,0,0,0,.365-15.212l-15.27,7.93,14.089-10.356a19.2,19.2,0,1,0-31.71,21.487,19.593,19.593,0,0,0-2.188,3.473l13.672,7.1-14.576-4.891a19.213,19.213,0,0,0,3.091,18.026,19.195,19.195,0,1,0,30.182,0,19.207,19.207,0,0,0,0-23.733Z" transform="translate(-435.053 -278.505)"/><path class="b" d="M957.78,665.924a19.1,19.1,0,0,0,4.1,11.867,19.195,19.195,0,1,0,30.182,0C994.636,674.532,957.78,663.771,957.78,665.924Z" transform="translate(-435.058 -309.541)"/><ellipse class="d" cx="57.307" cy="12.156" rx="57.307" ry="12.156" transform="translate(99.125 447.64)"/><path class="n" d="M324.223,675.921a15.081,15.081,0,0,0-3.606-.486,11.161,11.161,0,0,1-6.634-3.219,12.157,12.157,0,0,1-2.651-4.052c.382.139.764.284,1.158.44-1.158-2.7.058-5.736,1.123-8.469q2.709-6.946,5.123-13.968c4.052-11.861,7.525-24.2,7.45-36.815,0-4.561-.839-8.874-1-13.43-.122-3.381.4-6.755.376-10.142,0-.475,0-.944-.035-1.418a8.989,8.989,0,0,0,3.051-7.328,17.647,17.647,0,0,0-.307-2.13,34.554,34.554,0,0,0-.81-3.624c-.382-1.256-.9-2.46-1.349-3.687-.862-2.379-1.447-4.857-2.182-7.276a2.506,2.506,0,0,1,.787.214,1.7,1.7,0,0,1-.37-.758,18.759,18.759,0,0,1-.695-4.729l.492-.22a12.313,12.313,0,0,0-.237-4.683c.278-2.483.712-4.984.978-7.456.1-.926.058-2.09-.793-2.315-.174-1.326-.243-2.669-.313-4.006q-.365-7-.724-13.991c-.243-4.683-.486-9.36-.579-14.049a41.013,41.013,0,0,0-.8-8.9,10.766,10.766,0,0,0-.411-4.052c-1.077-3.409-4.422-6.113-7.815-5.922a15.548,15.548,0,0,0-3.7-3.739c.677-1.517,1.488-3.079,2.153-4.307a14.034,14.034,0,0,0,9.4-13.487,14.72,14.72,0,0,0-1.592-6.709,7.258,7.258,0,0,0,.255-.781,6.42,6.42,0,0,0-.261-3.757,10.979,10.979,0,0,0-.579-1.343c-.151-.289-.313-.579-.48-.857l-.3-.446a8.316,8.316,0,0,0-.579-.787,19.17,19.17,0,0,0-1.32-1.586,13.06,13.06,0,0,0-1.9-1.69,8.371,8.371,0,0,0-3.126-1.441,9.527,9.527,0,0,0-1.986-.18c-.4,0-.8,0-1.2.035-.81.046-1.615.1-2.42.1a5.352,5.352,0,0,1-.8-.041,29.307,29.307,0,0,1-4.191-.874l-.695-.145c-.237-.046-.469-.087-.706-.116a13.253,13.253,0,0,0-1.916-.116h-.643a17.762,17.762,0,0,0-1.916.2l-.637.1a18.289,18.289,0,0,0-4.66,1.383c-.191.087-.388.185-.579.289l-.116.064c-.156.081-.313.168-.463.26l-.087.052-.492.313-.041.029c-4.6,3.091-7.311,8.949-8,14.761-.77,6.524.579,13.1,1.928,19.519l1.216,5.789c.052.26.11.515.162.776A12.734,12.734,0,0,0,279.362,496c-1.158,2.894-1.187,6.026-1.094,9.163,0,.637.035,1.273.1,1.91-.145,1.2-.272,2.414-.353,3.629-.365,5.615.318,11.259.139,16.885-.139,4.336-.793,8.683-.475,12.99a58.644,58.644,0,0,0,2.315,11.213l1.459,5.256a1.4,1.4,0,0,0,.365.724,1.1,1.1,0,0,0,.816.168,49.258,49.258,0,0,0-2.373,6.645,20.546,20.546,0,0,0-.857,4.272,26.1,26.1,0,0,0,1.036,7.861q1.389,5.789,2.767,11.623.972,4.081,1.939,8.156c1.273,5.36,2.553,10.755,2.79,16.272a35.342,35.342,0,0,1-.579,8.272,72.078,72.078,0,0,0-.718,24.792,121.556,121.556,0,0,0,4.683,20.5c.469-.249.944-.481,1.43-.695l-.2.376q-1,1.737-1.852,3.56a20.242,20.242,0,0,0-.99,2.437,27.43,27.43,0,0,0-.961,7.218,3.532,3.532,0,0,0,.122,1.4,2.9,2.9,0,0,0,2.084,1.563,19.033,19.033,0,0,0,7.7.122.942.942,0,0,0,.052.168,2.887,2.887,0,0,0,2.084,1.563c3.577,1.019,7.352.058,11.039-.289s7.311-.093,10.859-.944a5.17,5.17,0,0,0,1.505-.579,4.926,4.926,0,0,0,1.9-2.634,3.374,3.374,0,0,0,.22-.862A2.933,2.933,0,0,0,324.223,675.921ZM311.98,622.313a14.588,14.588,0,0,1-1.158,3.925,74.9,74.9,0,0,0-5.939,18.622,86.333,86.333,0,0,0-1.314,12.88c-.058,3.184.064,6.518-1.262,9.378l.48-.075c-.151.278-.3.579-.434.8l-.069.127a12.55,12.55,0,0,1-1.58-4.434c0-.052-.26-.093-.66-.116a119.779,119.779,0,0,1-1.69-27.721,12.837,12.837,0,0,1,.463-3.328c.3-.932.793-1.783,1.158-2.686a19.731,19.731,0,0,0,1.158-4.712,66.938,66.938,0,0,0,.729-12.457c-.139-3.93.77-7.838,1.546-11.751.371-1.858.712-3.722.9-5.586l.035-.376a56.074,56.074,0,0,1,7.108,18.454A26.4,26.4,0,0,1,311.98,622.313Zm-24.775-83.656.185.162a12.729,12.729,0,0,1,1.54,1.615,2.135,2.135,0,0,1,.486.891c.174.845-.527,1.563-1.1,2.182a9.853,9.853,0,0,0-.7.845q-.185-2.848-.394-5.7Z" transform="translate(-148.602 -217.537)"/><path class="e" d="M279.175,542.53l-.637,4.914c-.214,1.667-.428,3.328-.544,5-.388,5.569.33,11.16.145,16.741-.151,4.3-.834,8.584-.5,12.874a54.586,54.586,0,0,0,2.449,11.114l1.528,5.21a1.378,1.378,0,0,0,.382.718,1.349,1.349,0,0,0,.978.156l6.784-.614c-.434-1.991-.915-4.052-1.158-6.1-.185-1.6-.3-3.207-.411-4.816-.359-5.013-.77-10.026-1.158-15.05l-.724-8.8a66.365,66.365,0,0,0-1.586-11.369,22.627,22.627,0,0,0-5.546-9.985Z" transform="translate(-148.583 -257.693)"/><path class="b" d="M279.175,542.53l-.637,4.914c-.214,1.667-.428,3.328-.544,5-.388,5.569.33,11.16.145,16.741-.151,4.3-.834,8.584-.5,12.874a54.586,54.586,0,0,0,2.449,11.114l1.528,5.21a1.378,1.378,0,0,0,.382.718,1.349,1.349,0,0,0,.978.156l6.784-.614c-.434-1.991-.915-4.052-1.158-6.1-.185-1.6-.3-3.207-.411-4.816-.359-5.013-.77-10.026-1.158-15.05l-.724-8.8a66.365,66.365,0,0,0-1.586-11.369,22.627,22.627,0,0,0-5.546-9.985Z" transform="translate(-148.583 -257.693)"/><path class="o" d="M299.734,827.115a20.729,20.729,0,0,0-1.042,2.42,26.05,26.05,0,0,0-1.007,7.155,3.473,3.473,0,0,0,.127,1.383,3.016,3.016,0,0,0,2.194,1.546c3.757,1.013,7.716.064,11.577-.284s7.676-.093,11.4-.932a5.823,5.823,0,0,0,1.58-.55,4.926,4.926,0,0,0,2-2.6,3.4,3.4,0,0,0,.226-.857,2.959,2.959,0,0,0-2.188-2.79,16.5,16.5,0,0,0-3.786-.48,11.925,11.925,0,0,1-10.558-9.962c-.046-.278-6.275-.11-6.946.249a5.808,5.808,0,0,0-1.661,2.182Q300.625,825.309,299.734,827.115Z" transform="translate(-157.056 -374.977)"/><path class="b" d="M299.734,827.115a20.729,20.729,0,0,0-1.042,2.42,26.05,26.05,0,0,0-1.007,7.155,3.473,3.473,0,0,0,.127,1.383,3.016,3.016,0,0,0,2.194,1.546c3.757,1.013,7.716.064,11.577-.284s7.676-.093,11.4-.932a5.823,5.823,0,0,0,1.58-.55,4.926,4.926,0,0,0,2-2.6,3.4,3.4,0,0,0,.226-.857,2.959,2.959,0,0,0-2.188-2.79,16.5,16.5,0,0,0-3.786-.48,11.925,11.925,0,0,1-10.558-9.962c-.046-.278-6.275-.11-6.946.249a5.808,5.808,0,0,0-1.661,2.182Q300.625,825.309,299.734,827.115Z" transform="translate(-157.056 -374.977)"/><path class="o" d="M317.583,830.273a19.686,19.686,0,0,0-1.042,2.414,25.77,25.77,0,0,0-1.007,7.155,3.374,3.374,0,0,0,.127,1.384,3.016,3.016,0,0,0,2.188,1.551c3.757,1.007,7.722.058,11.577-.289s7.681-.093,11.4-.932a5.569,5.569,0,0,0,1.58-.579,4.9,4.9,0,0,0,2-2.6,3.4,3.4,0,0,0,.226-.857,2.964,2.964,0,0,0-2.188-2.79,16.834,16.834,0,0,0-3.786-.481,11.93,11.93,0,0,1-10.558-9.956c-.046-.278-6.275-.116-6.946.243a5.764,5.764,0,0,0-1.667,2.182C318.827,827.888,318.179,829.069,317.583,830.273Z" transform="translate(-164.572 -376.294)"/><path class="j" d="M329.85,685.681c.081,12.509-3.554,24.734-7.82,36.468q-2.535,6.981-5.378,13.84c-1.123,2.709-2.391,5.719-1.187,8.394a20.317,20.317,0,0,0-10.657-1.488c1.389-2.836,1.256-6.136,1.32-9.262a81.218,81.218,0,0,1,1.366-12.764,71.2,71.2,0,0,1,6.246-18.46,14.067,14.067,0,0,0,1.21-3.89,24.848,24.848,0,0,0-.515-8.978,53.528,53.528,0,0,0-7.467-18.292l-.035.37a53.994,53.994,0,0,1-.938,5.54c-.816,3.873-1.771,7.751-1.627,11.647a63,63,0,0,1-.764,12.347,18.773,18.773,0,0,1-1.245,4.666c-.4.9-.92,1.736-1.233,2.668a12.155,12.155,0,0,0-.486,3.3A111.892,111.892,0,0,0,302.563,740a17.918,17.918,0,0,0-9.331,2.124,114.932,114.932,0,0,1-4.92-20.318,67.507,67.507,0,0,1,.753-24.578,32.66,32.66,0,0,0,.608-8.191c-.249-5.47-1.592-10.819-2.929-16.133l-2.038-8.1q-1.447-5.789-2.894-11.525a24.5,24.5,0,0,1-1.088-7.792,19.338,19.338,0,0,1,.9-4.237,47.288,47.288,0,0,1,6.408-13.105c11.155.625,22.442-.417,33.574-1.274a2.253,2.253,0,0,1,1.575.266,2.228,2.228,0,0,1,.637,1.436L328,652.3a59.617,59.617,0,0,1,1.187,10.014c0,3.357-.521,6.7-.394,10.055C328.97,676.888,329.827,681.16,329.85,685.681Z" transform="translate(-149.905 -293.194)"/><path class="b" d="M316.254,690.7a53.99,53.99,0,0,1-.938,5.54c-2.425-4.2-5.042-8.289-7.276-12.59-.579-1.106-1.123-2.229-1.673-3.352l-1.65-3.357c-.307-.631-.614-1.262-.891-1.9a13.761,13.761,0,0,1-1.036-2.894c.81-.151,2.813,2.038,3.415,2.611a46.7,46.7,0,0,1,3.473,3.844,42.154,42.154,0,0,1,3.624,4.747,23.085,23.085,0,0,1,2.952,7.357Z" transform="translate(-159.214 -312.276)"/><path class="p" d="M324.235,501.6s-6.194,9.87-5.048,11.936S299.68,511.7,299.68,511.7s11.247-9.87,10.1-14S324.235,501.6,324.235,501.6Z" transform="translate(-157.905 -238.316)"/><circle class="p" cx="14.003" cy="14.003" r="14.003" transform="translate(146.823 238.268)"/><path class="e" d="M315.623,518.082a14.217,14.217,0,0,0-5.887-4.735,21.058,21.058,0,0,0-4.185-1.03l-5.586-.984a7.115,7.115,0,0,0-4.1.093,6.726,6.726,0,0,0-1.737,1.279c-1.939,1.8-3.82,3.774-6.257,4.816-.666.284-1.36.492-2.026.776a11.694,11.694,0,0,0-5.916,6.367c-1.216,2.86-1.25,5.968-1.158,9.076a15.957,15.957,0,0,0,.318,3.2,20.6,20.6,0,0,0,1.059,2.929,53.582,53.582,0,0,1,1.933,6.211q2.171,8.307,3.612,16.787a6.291,6.291,0,0,0,.7,2.315,8.311,8.311,0,0,0,1.933,1.858,12.074,12.074,0,0,1,1.615,1.6,2.094,2.094,0,0,1,.527.857c.179.834-.579,1.551-1.158,2.159a10.454,10.454,0,0,0-2.616,4.556,1.835,1.835,0,0,0-.417,1.256,2.2,2.2,0,0,1,.133,1,2.245,2.245,0,0,1-.527.816,3.085,3.085,0,0,0-.579,2.478,39.3,39.3,0,0,0,13.707,3.207c1.158.058,2.315.058,3.473.2.822.1,1.632.272,2.454.37a26.494,26.494,0,0,0,3.589.093c6.234-.127,12.648-.284,18.373-2.755.538-2.935-.625-5.927-1.355-8.822-1.158-4.631-1.447-9.372-2.315-14.043-.579-3.19-1.447-6.333-1.939-9.545a23.334,23.334,0,0,1,.278-9.667c.781-2.767,1.019-5.592,1.829-8.353s1.378-5.754.463-8.486A8.726,8.726,0,0,0,315.623,518.082Z" transform="translate(-149.084 -244.446)"/><path class="o" d="M323.572,463.9c.683-2.483-.66-5.071-2.258-7.091-1.737-2.171-3.948-4.127-6.663-4.671-2.205-.446-4.492.093-6.738-.087-1.985-.156-3.9-.874-5.87-1.158a18.591,18.591,0,0,0-5.372.2,20.4,20.4,0,0,0-4.891,1.366c-5.962,2.645-9.453,9.163-10.263,15.629s.608,12.984,2.02,19.345l1.279,5.754a114.272,114.272,0,0,1,3.016,18.13c.353,6.124-.307,12.411-2.825,18A38.72,38.72,0,0,0,302.8,509.183c.9-2.368,1.574-4.828,2.582-7.155.862-2,1.968-3.9,2.732-5.945a19.312,19.312,0,0,0,1.221-7.218c-.046-1.852-.353-3.693-.3-5.545a7.661,7.661,0,0,1,1.806-5.123c1.158-1.187,2.75-1.737,4.214-2.506a17.545,17.545,0,0,0,5.9-4.92,5.4,5.4,0,0,0,1.2-3.1C322.385,466.3,323.213,465.213,323.572,463.9Z" transform="translate(-150.156 -219.056)"/><path class="p" d="M352.837,649.542a37.163,37.163,0,0,0,.2,4.324c.237,1.065.787,2.026,1.111,3.068a14.588,14.588,0,0,1,.492,3.687c.046,1.042-.035,2.315-.961,2.8-.405.214-.891.214-1.314.4s-.781.689-.538,1.082.66.33,1.042.405.793.469.579.787a.659.659,0,0,1-.336.214,4.1,4.1,0,0,0-1.088.521,1.112,1.112,0,0,0-.446,1.059.654.654,0,0,0,.932.428,2.894,2.894,0,0,0-.272,1.158c1.482.637,3.143-.2,4.532-1a17.079,17.079,0,0,0,1.737-1.111,8.683,8.683,0,0,0,3.381-7.392,17.249,17.249,0,0,0-.33-2.113,31.793,31.793,0,0,0-.851-3.595c-.4-1.245-.944-2.431-1.412-3.653-1-2.6-1.638-5.32-2.541-7.953a1.2,1.2,0,0,0-.434-.689,1.222,1.222,0,0,0-.643-.122,10.528,10.528,0,0,0-3.016.278,3.207,3.207,0,0,0-1.841,1.158c-.272.579.162,1.065.423,1.546A12.954,12.954,0,0,1,352.837,649.542Z" transform="translate(-179.404 -299.515)"/><path class="b" d="M343.2,533.64a4.242,4.242,0,0,1,.741,1.03c1.991,3.618,2.014,7.942,2.107,12.069.1,4.631.359,9.262.614,13.922l.758,13.893c.075,1.326.145,2.651.336,3.965.891.226.926,1.383.828,2.315-.643,5.661-2.234,11.49-.579,16.937a1.7,1.7,0,0,0,.388.753,4.52,4.52,0,0,0-2.587-.035c-.828.174-1.627.48-2.46.671-1.053.237-2.246.342-2.964,1.158a57.447,57.447,0,0,1-1.939-7.479c-.394-2.315-.5-4.7-1.441-6.842-.376-.862-.886-1.661-1.349-2.489-2.425-4.33-3.618-9.221-4.781-14.049a20.509,20.509,0,0,1-.37-6.981,24,24,0,0,0,.289-3.213,24.681,24.681,0,0,0-.446-3.38,22.662,22.662,0,0,1,.677-9.789c.868-2.946,1.632-6.049,3.473-8.527S340.13,533.681,343.2,533.64Z" transform="translate(-170.714 -253.949)"/><path class="e" d="M344.4,532.84a4.281,4.281,0,0,1,.741,1.036c1.991,3.612,2.014,7.942,2.107,12.069.1,4.631.359,9.262.614,13.893l.758,13.892c.075,1.326.145,2.651.336,3.965.891.226.926,1.384.822,2.315-.637,5.661-2.229,11.484-.579,16.937a1.7,1.7,0,0,0,.388.752,4.523,4.523,0,0,0-2.587-.035c-.828.174-1.627.48-2.46.666-1.054.243-2.246.342-2.964,1.158a56.847,56.847,0,0,1-1.922-7.514c-.394-2.315-.5-4.694-1.441-6.836a27.985,27.985,0,0,0-1.349-2.489c-2.431-4.33-3.618-9.227-4.781-14.055a20.5,20.5,0,0,1-.37-6.981,15.051,15.051,0,0,0-.156-6.593,22.633,22.633,0,0,1,.677-9.783c.868-2.946,1.632-6.049,3.473-8.526S341.328,532.886,344.4,532.84Z" transform="translate(-171.223 -253.613)"/><g class="k" transform="translate(134.852 231.729)"><path d="M327.2,456.808c-1.737-2.171-3.948-4.127-6.663-4.671-2.205-.446-4.492.093-6.738-.087-1.985-.156-3.9-.874-5.87-1.158a18.591,18.591,0,0,0-5.372.2,20.4,20.4,0,0,0-4.891,1.366,14.529,14.529,0,0,0-2.414,1.372,20.579,20.579,0,0,1,4.324-1.158,18.52,18.52,0,0,1,5.366-.2c1.98.255,3.884.967,5.875,1.123,2.24.179,4.527-.353,6.738.087,2.715.544,4.938,2.506,6.657,4.677,1.6,2.014,2.941,4.6,2.263,7.091-.359,1.308-1.192,2.454-1.418,3.8a5.371,5.371,0,0,1-1.21,3.1,17.586,17.586,0,0,1-4.249,3.954c.446-.208.9-.417,1.337-.643a17.545,17.545,0,0,0,5.9-4.92,5.4,5.4,0,0,0,1.2-3.1c.232-1.366,1.059-2.489,1.418-3.8C330.138,461.416,328.795,458.828,327.2,456.808Z" transform="translate(-290.891 -450.785)"/><path d="M313.549,497.707a5.8,5.8,0,0,1,.781-.677,11.994,11.994,0,0,0-3.768,2.315,7.74,7.74,0,0,0-1.806,5.123c-.069,1.852.26,3.693.3,5.54a19.34,19.34,0,0,1-1.221,7.224c-.764,2.043-1.87,3.936-2.732,5.945-1,2.315-1.673,4.781-2.576,7.149a38.783,38.783,0,0,1-14.709,18.3c-.035.075-.064.156-.1.232a38.72,38.72,0,0,0,17.788-20.138c.9-2.368,1.574-4.828,2.582-7.155.862-2,1.968-3.9,2.732-5.945a19.31,19.31,0,0,0,1.221-7.218c-.046-1.852-.353-3.693-.3-5.545A7.737,7.737,0,0,1,313.549,497.707Z" transform="translate(-287.72 -470.261)"/></g></g></svg>