<svg xmlns="http://www.w3.org/2000/svg" width="108" height="108" viewBox="0 0 108 108"><defs><style>.a{fill:rgba(9,163,96,0.15);}.b{fill:#09a360;}</style></defs><g transform="translate(-729 -1071)"><circle class="a" cx="54" cy="54" r="54" transform="translate(729 1071)"/><g transform="translate(758 1100.004)"><path class="b" d="M10.041,31.143H22.095v3.014H10.041v6.328A4.532,4.532,0,0,0,7.027,44.7a4.635,4.635,0,0,0,4.52,4.52,4.635,4.635,0,0,0,4.52-4.52,4.256,4.256,0,0,0-3.014-4.219V37.17H37.163v3.315A4.532,4.532,0,0,0,34.149,44.7a4.52,4.52,0,1,0,9.041,0,4.256,4.256,0,0,0-3.014-4.219V34.157H28.122V31.143H42.587c3.918-.9,6.63-4.822,6.63-9.041a8.879,8.879,0,0,0-9.041-9.041h-.3C43.793,1.007,26.013-4.116,22.7,7.637a8.923,8.923,0,0,0-12.054,5.424C7.027,12.459,1,15.774,1,22.1A8.879,8.879,0,0,0,10.041,31.143Z" transform="translate(0 0)"/></g></g></svg>