<svg xmlns="http://www.w3.org/2000/svg" width="24" height="30.044" viewBox="0 0 24 30.044"><defs><style>.a{fill:#f9ab31;}</style></defs><g transform="translate(-8.52 -2.589)"><path class="a" d="M21.48,11.08H19.549a2.3,2.3,0,0,0-2.3,2.3V24.914a.771.771,0,0,0,.174.511l2.5,3.065a.766.766,0,0,0,1.185,0l2.5-3.065a.771.771,0,0,0,.174-.511V13.379a2.3,2.3,0,0,0-2.3-2.3Zm-1.931,1.533H21.48a.766.766,0,0,1,.766.766V14.6H18.783V13.379A.766.766,0,0,1,19.549,12.613Zm.966,14.151-1.732-2.12V16.132h3.464v8.511ZM30.732,2.595H15.846a.6.6,0,0,0-.163,0h0a1.068,1.068,0,0,0-.179.066h-.041a.787.787,0,0,0-.163.128L8.719,9.772a.664.664,0,0,0-.138.22.2.2,0,0,0-.026.072.771.771,0,0,0-.036.189V30.845A1.788,1.788,0,0,0,10.3,32.633H30.732a1.788,1.788,0,0,0,1.788-1.788V4.383a1.788,1.788,0,0,0-1.788-1.788ZM15.079,5.287v3.99a.255.255,0,0,1-.255.255H11.059l3.106-3.28ZM30.987,30.83a.255.255,0,0,1-.255.255H10.3a.255.255,0,0,1-.255-.255V11.065h4.782a1.788,1.788,0,0,0,1.788-1.788V4.127h14.12a.255.255,0,0,1,.255.255Z"/></g></svg>