<svg width="197" height="49" viewBox="0 0 197 49" fill="none" xmlns="http://www.w3.org/2000/svg">
<g id="Layer_1-2">
<path id="Vector" d="M76.5697 20.9193C76.6496 25.598 73.7942 30.3279 67.3154 30.3279H60.0439V11.8281H67.3154C73.6611 11.8281 76.4898 16.3471 76.5697 20.9193ZM63.5097 26.9719H67.3175C71.5206 26.9719 73.1859 23.9067 73.1081 20.8927C73.0282 18.0118 71.3363 15.1308 67.3175 15.1308H63.5097V26.9719Z" fill="#111111"/>
<path id="Vector_2" d="M82.1497 13.6327C82.1497 16.143 78.3419 16.143 78.3419 13.6327C78.3419 11.1224 82.1497 11.1224 82.1497 13.6327ZM78.6328 17.2528V30.3347H81.8589V17.2528H78.6328Z" fill="#111111"/>
<path id="Vector_3" d="M94.9986 15.9766L97.3788 17.7743L95.9245 19.6253C96.9282 20.7617 97.2989 22.0558 97.2989 23.4829C97.2989 25.0944 96.6906 27.3672 94.5501 28.3459C96.7172 29.4291 97.2477 30.9893 97.2477 32.654C97.2477 36.2474 94.4989 38.469 90.7177 38.469C86.9365 38.469 84.1078 36.1696 84.1078 32.654H87.3072C87.3072 34.3453 88.8681 35.455 90.7177 35.455C92.5673 35.455 94.0216 34.4517 94.0216 32.654C94.0216 30.8562 92.3297 30.0372 90.7177 30.0372C86.6456 30.0372 84.1078 27.5535 84.1078 23.4829C84.1078 19.4124 87.0696 16.8754 90.7177 16.8754C91.748 16.8754 92.807 17.0085 93.7062 17.6146L95.0007 15.9766H94.9986ZM87.3052 23.4829C87.3052 25.7557 88.8394 27.103 90.7156 27.103C92.5919 27.103 94.0994 25.7291 94.0994 23.4829C94.0994 21.2368 92.5653 19.8096 90.7156 19.8096C88.866 19.8096 87.3052 21.2101 87.3052 23.4829Z" fill="#111111"/>
<path id="Vector_4" d="M102.877 13.6327C102.877 16.143 99.0688 16.143 99.0688 13.6327C99.0688 11.1224 102.877 11.1224 102.877 13.6327ZM99.3597 17.2528V30.3347H102.586V17.2528H99.3597Z" fill="#111111"/>
<path id="Vector_5" d="M110.041 13.6328V17.3328H113.636V20.1072H110.015V25.736C110.015 26.9788 110.703 27.587 111.706 27.587C112.208 27.587 112.79 27.4293 113.267 27.1897L114.166 29.9376C113.241 30.3082 112.475 30.4658 111.495 30.4925C108.667 30.5989 106.815 28.9854 106.815 25.736V20.1072H104.382V17.3328H106.815V13.9768L110.041 13.6328Z" fill="#111111"/>
<path id="Vector_6" d="M126.38 17.302H129.473V30.3306H126.434L126.276 28.4284C125.537 29.9621 123.501 30.7012 122.046 30.7278C118.187 30.7545 115.33 28.3752 115.33 23.803C115.33 19.2308 118.318 16.958 122.124 16.9846C123.869 16.9846 125.535 17.8036 126.274 19.0997L126.38 17.302ZM118.554 23.803C118.554 26.2867 120.272 27.7671 122.415 27.7671C127.491 27.7671 127.491 19.8655 122.415 19.8655C120.272 19.8655 118.554 21.3193 118.554 23.803Z" fill="#111111"/>
<path id="Vector_7" d="M135.397 11.8672V30.3403H132.198V11.8672H135.397Z" fill="#111111"/>
<path id="Vector_8" d="M145.629 11.8281V28.9806H156.047V30.3279H144.201V11.8281H145.629Z" fill="#111111"/>
<path id="Vector_9" d="M168.578 17.2891L160.62 35.7888H159.245L161.652 30.1867L156.417 17.2891H157.818L160.857 25.0063L162.392 28.7861L163.899 24.9797L167.177 17.2891H168.578Z" fill="#111111"/>
<path id="Vector_10" d="M172.359 17.2844V19.6104C173.363 17.8127 175.188 17.0735 177.013 17.0469C180.503 17.0469 182.908 19.1886 182.908 22.8087V30.3417H181.613V22.8353C181.613 19.8746 179.788 18.2897 176.96 18.3164C174.262 18.343 172.386 20.3783 172.386 23.0729V30.3417H171.089V17.2864H172.359V17.2844Z" fill="#111111"/>
<path id="Vector_11" d="M197 28.5145C195.679 29.8351 193.96 30.4699 192.242 30.4699C188.567 30.4699 185.525 27.933 185.525 23.8092C185.525 19.6854 188.461 17.1484 192.242 17.1484C193.96 17.1484 195.679 17.8098 197 19.1039L196.154 19.9229C195.097 18.8663 193.643 18.3626 192.242 18.3626C189.28 18.3626 186.795 20.2914 186.795 23.8071C186.795 27.3228 189.28 29.2516 192.242 29.2516C193.643 29.2516 195.071 28.6967 196.127 27.6402L197 28.5124V28.5145Z" fill="#111111"/>
<path id="Vector_12" d="M16.5114 17.0143C16.962 17.1372 17.3368 17.4484 17.5437 17.86C18.7583 17.8374 20.1143 17.8927 21.5502 18.0852C22.3531 18.1917 23.1356 18.337 23.8996 18.5193C24.172 17.9889 24.723 17.6245 25.3621 17.6245C25.6058 17.6245 25.8373 17.6777 26.0462 17.774C26.1589 17.6327 26.2736 17.4934 26.3883 17.3542C28.3629 14.9995 30.1142 13.816 31.0257 13.3041C29.0716 12.1288 26.7816 11.4531 24.3359 11.4531C21.6239 11.4531 19.1086 12.2824 17.0234 13.7013C16.9579 13.9225 16.6281 15.1224 16.5134 17.0164L16.5114 17.0143Z" fill="#00A844"/>
<path id="Vector_13" d="M33.0928 26.8097C32.9883 26.5947 32.931 26.3531 32.931 26.0972C32.931 25.6877 33.0826 25.313 33.3304 25.0243C31.4234 22.9706 29.16 21.4226 26.5546 20.3906C26.2555 20.708 25.8315 20.9066 25.3604 20.9066C25.2744 20.9066 25.1884 20.9005 25.1064 20.8861C23.5538 23.4538 21.9131 27.0411 20.5961 31.7403C20.7415 31.8795 20.8603 32.0454 20.9463 32.2317C21.2884 32.2174 21.6366 32.1928 21.991 32.158C26.3621 31.728 30.0777 29.9364 33.0928 26.8097Z" fill="#FCB400"/>
<path id="Vector_14" d="M27.099 18.0457C26.9945 18.1726 26.888 18.3037 26.7794 18.4408C26.9208 18.6825 27.0006 18.965 27.0006 19.264C27.0006 19.3418 26.9945 19.4196 26.9842 19.4953C28.0002 19.9049 28.9711 20.3901 29.8908 20.9491C31.4782 21.9135 32.9162 23.1011 34.1943 24.4975C34.3151 24.4689 34.4421 24.4525 34.5712 24.4525C34.7228 24.4525 34.8682 24.473 35.0075 24.5119C35.708 23.5475 36.3614 22.493 36.9657 21.3504C36.2221 18.318 34.4155 15.7033 31.9616 13.9219C31.4987 14.141 29.4607 15.2057 27.099 18.0436V18.0457Z" fill="#00A844"/>
<path id="Vector_15" d="M19.7605 30.552C20.3688 28.4799 21.1123 26.418 22.03 24.4134C22.6875 22.974 23.4064 21.6349 24.1807 20.4002C23.9472 20.1586 23.7874 19.8453 23.7362 19.4972C22.9968 19.3211 22.2369 19.1799 21.4524 19.0734C20.1189 18.8932 18.8469 18.8379 17.6999 18.8543C17.5995 19.4788 17.1448 19.9866 16.5487 20.1627C16.563 20.3388 16.5794 20.519 16.5979 20.7012C16.8519 23.1644 17.7654 26.6801 19.7645 30.55L19.7605 30.552Z" fill="#FCB400"/>
<path id="Vector_16" d="M20.6282 34.0703C20.4275 34.2751 20.1735 34.4266 19.8888 34.5044C19.7392 35.1555 19.5959 35.8251 19.4586 36.5131C20.5852 36.9676 21.7896 37.2707 23.0452 37.3935C22.2034 36.339 21.384 35.2169 20.6282 34.0703Z" fill="#FF2929"/>
<path id="Vector_17" d="M14.5182 18.0789C14.678 17.5977 15.0549 17.2168 15.5321 17.0489C15.5874 16.0579 15.698 15.243 15.8107 14.6328C14.6083 15.675 13.6006 16.9363 12.8468 18.3512C13.2728 18.2652 13.8382 18.1669 14.5203 18.0789H14.5182Z" fill="#2B8FFC"/>
<path id="Vector_18" d="M18.0043 32.1572C18.2071 31.7743 18.5574 31.4815 18.9814 31.3525C18.4508 30.3902 17.9859 29.4401 17.609 28.5269C16.55 25.9695 15.8823 23.3547 15.6201 20.7543C15.5996 20.5516 15.5832 20.353 15.5668 20.1585C15.065 19.9947 14.6676 19.5975 14.5078 19.0938C13.3301 19.2494 12.5374 19.4377 12.3018 19.4951C11.6709 21.0226 11.3207 22.6975 11.3207 24.4543C11.3207 26.897 11.9946 29.1821 13.1683 31.1355C13.3977 31.2215 15.2964 31.8992 18.0023 32.1552L18.0043 32.1572Z" fill="#2B8FFC"/>
<path id="Vector_19" d="M35.3295 27.5501C35.1021 27.6688 34.8461 27.7343 34.5716 27.7343C34.2787 27.7343 34.0042 27.6586 33.7666 27.5234C32.6851 28.6394 31.5155 29.5976 30.262 30.3921C27.8142 31.9441 25.049 32.8778 22.0442 33.1665C21.7881 33.1911 21.5362 33.2095 21.2883 33.2259C22.165 34.6203 23.183 36.0393 24.3649 37.4541C29.8175 37.4418 34.4815 34.0736 36.4008 29.3069C36.0628 28.6946 35.7043 28.107 35.3295 27.548V27.5501Z" fill="#FF2929"/>
<path id="Vector_20" d="M35.8375 25.0491C36.071 25.3337 36.2123 25.6962 36.2123 26.0934C36.2123 26.3555 36.1509 26.6032 36.0403 26.8223C36.3148 27.2196 36.5769 27.6291 36.8309 28.0529C37.1607 26.9104 37.3369 25.7023 37.3369 24.4512C37.3369 23.9209 37.3041 23.3968 37.2426 22.8828C36.7982 23.6445 36.3291 24.3673 35.8354 25.0491H35.8375Z" fill="#FF2929"/>
<path id="Vector_21" d="M18.775 34.4132C18.2793 34.1859 17.9147 33.7191 17.8328 33.1601C16.276 33.0106 14.9877 32.726 14.1028 32.4844C15.2662 33.9627 16.7431 35.1831 18.435 36.043C18.5415 35.5004 18.6541 34.9558 18.7729 34.4111L18.775 34.4132Z" fill="#2B8FFC"/>
<path id="Vector_22" d="M34.0347 8.63096L32.2178 10.8956C29.8889 9.58308 27.1954 8.82753 24.3237 8.82753C19.4507 8.82753 15.0858 10.9918 12.169 14.3887L10.1145 12.4026L8.14408 10.4492C4.85859 14.2106 2.86763 19.1247 2.86763 24.4975C2.86763 28.9162 4.21542 33.0277 6.52181 36.441L4.38543 38.3923C1.62431 34.4528 0 29.6615 0 24.4975C0 17.2225 3.11957 10.7768 8.20962 6.32745L10.1985 8.3914L12.2182 10.3263C15.475 7.58261 19.6781 5.96094 24.3237 5.96094C27.8754 5.96094 31.1998 6.93762 34.0347 8.63096Z" fill="#2B8FFC"/>
<path id="Vector_23" d="M38.0068 44.4888C34.0966 47.1814 29.363 48.7621 24.2668 48.7621C17.024 48.7621 10.5124 45.572 6.06142 40.5248L8.09744 38.3748L9.95935 36.2412C7.22076 33.0368 5.56982 28.9069 5.56982 24.4043C5.56982 20.7412 6.66362 17.3259 8.54397 14.4531L10.7111 16.3901C9.26907 18.7346 8.43746 21.4763 8.43746 24.4043C8.43746 29.0727 10.5472 33.2641 13.8778 36.1204L12.108 38.381L10.2666 40.5309C14.0314 43.7988 18.9535 45.8955 24.2668 45.8955C28.6297 45.8955 32.6894 44.583 36.0773 42.3348L38.0068 44.4888Z" fill="#FCB400"/>
<path id="Vector_24" d="M43.0777 24.3993C43.0777 28.1054 41.9573 31.5576 40.038 34.4508L37.8648 32.5302C39.3498 30.1632 40.2101 27.3786 40.2101 24.3993C40.2101 19.606 37.9856 15.3123 34.4974 12.4539L36.3695 10.3449L38.1945 8.26249C34.4441 5.05806 29.563 3.10878 24.2661 3.10878C19.856 3.10878 15.7533 4.44993 12.3428 6.74525L10.442 4.57483C14.3666 1.84543 19.133 0.242188 24.2661 0.242188C31.4925 0.242188 37.9242 3.24187 42.3751 8.26659L40.3637 10.3961L38.5325 12.415C41.3858 15.6235 43.0777 19.7739 43.0777 24.3993Z" fill="#00A844"/>
<path id="Vector_25" d="M48.5331 24.4919C48.5331 31.8037 45.2825 38.3682 40.1474 42.8196L38.2342 40.684L36.3109 38.5607C33.0582 41.2246 28.8796 42.8278 24.3242 42.8278C20.586 42.8278 17.1018 41.7487 14.1748 39.8896L15.9527 37.6168C18.3861 39.1012 21.2538 39.9612 24.3242 39.9612C29.1111 39.9612 33.5498 37.7048 36.4645 34.4123L38.4718 36.4824L40.4034 38.5218C43.6807 34.7645 45.6655 29.8565 45.6655 24.4919C45.6655 19.9463 44.2399 15.7263 41.8106 12.2577L43.9449 10.3125C46.831 14.3032 48.5331 19.201 48.5331 24.4919Z" fill="#FF2929"/>
</g>
</svg>
