<svg xmlns="http://www.w3.org/2000/svg" width="108" height="108" viewBox="0 0 108 108"><defs><style>.a{fill:rgba(211,54,56,0.15);}.b{fill:#d33638;}</style></defs><g transform="translate(-1281 -1071)"><circle class="a" cx="54" cy="54" r="54" transform="translate(1281 1071)"/><g transform="translate(1273.572 1018.104)"><g transform="translate(37.428 82.896)"><path class="b" d="M525.472,93.689,523.4,95.764l-.595-.595-1.492-1.492-1.587,1.587.9.9.595.595.595.595-2.165,2.16-.595-.595-.595-.595-3.433-3.427-1.588,1.587,3.427,3.433.595.595.595.595-2.109,2.115-.595-.595-1.492-1.492-1.588,1.587.9.9.595.595.595.595-2.827,2.827-.595-.595-.595-.595-7.949-7.954-.595-.595L501.2,97.3l13.94-13.945a1.453,1.453,0,0,1,2.047-.073l8.353,8.358A1.448,1.448,0,0,1,525.472,93.689Z" transform="translate(-477.679 -82.896)"/><path class="b" d="M106.039,511.838l.595.595-2.945,2.945-.595-.595-.595-.595-.9-.9-1.582,1.582.9.9.595.595.595.595-2.12,2.12-.595-.595-.595-.595-3.433-3.427-1.587,1.587,3.427,3.433.595.595.595.595-2.16,2.16-.589-.606-.595-.595-.9-.9-1.587,1.588.9.9.595.595.595.595-1.963,1.963a1.592,1.592,0,0,1-.97.46.908.908,0,0,1-.123.006,1.349,1.349,0,0,1-.959-.393l-8.353-8.353a1.453,1.453,0,0,1,.073-2.047L96.3,502.1l.595.595.595.595,7.954,7.949Z" transform="translate(-81.896 -478.585)"/><path class="b" d="M259.055,253.92,273.3,268.163v5.946h-5.94l-14.243-14.248-10.327-10.333-7.388-7.393,4.8-4.807,1.133-1.128,7.393,7.393Z" transform="translate(-226.789 -227.6)"/><path class="b" d="M137.711,132.571l-1.066,1.066-4.869,4.869-4.005-4.005a1.6,1.6,0,0,1,0-2.266l3.669-3.669a1.591,1.591,0,0,1,1.133-.466,1.615,1.615,0,0,1,1.133.466Z" transform="translate(-124.753 -125.564)"/></g></g></g></svg>