<svg xmlns="http://www.w3.org/2000/svg" width="82.003" height="81.394" viewBox="0 0 82.003 81.394"><defs><style>.a{fill:none;stroke:#fff;stroke-width:2px;}.b{fill:#fff;}</style></defs><g transform="translate(1.002 1)"><g transform="translate(0)"><path class="a" d="M71.314,28.654H88.728a1.806,1.806,0,0,0,1.915-1.782l-.547-4.26c-.365-2.788-3.1-4.957-6.382-4.957h-.365l-2.1,4.647-.821-3.021h.091a.493.493,0,0,0,.547-.465v-.852a.488.488,0,0,0-.547-.465H79.246a.55.55,0,0,0-.547.465v.852a.488.488,0,0,0,.547.465h.091l-.821,2.943-2.1-4.647h-.091a7.082,7.082,0,0,0-4.285,1.394,5.4,5.4,0,0,0-2.1,3.486l-.547,4.26A1.841,1.841,0,0,0,71.314,28.654Z" transform="translate(-10.649 -4.273)"/><path class="a" d="M40.206,44.254H57.62a1.807,1.807,0,0,0,1.915-1.782l-.547-4.26c-.365-2.788-3.1-4.957-6.382-4.957h-.365l-2.1,4.647-.821-3.021h.091a.493.493,0,0,0,.547-.465v-.852a.488.488,0,0,0-.547-.465H48.138a.55.55,0,0,0-.547.465v1.007a.488.488,0,0,0,.547.465h.091l-.821,2.943-2.1-4.647h-.182a7.082,7.082,0,0,0-4.285,1.394,5.4,5.4,0,0,0-2.1,3.486l-.547,4.26A1.9,1.9,0,0,0,40.206,44.254Z" transform="translate(-8.914 -6.156)"/><ellipse class="a" cx="6.291" cy="5.599" rx="6.291" ry="5.599" transform="translate(33.662 13.724)"/><ellipse class="a" cx="6.291" cy="5.599" rx="6.291" ry="5.599" transform="translate(4.32 26.467)"/><ellipse class="a" cx="6.291" cy="5.599" rx="6.291" ry="5.599" transform="translate(62.98)"/><path class="a" d="M9.114,59.776H26.528a1.807,1.807,0,0,0,1.915-1.782l-.456-4.26c-.365-2.788-3.1-4.957-6.382-4.957H21.24l-2.1,4.647-.821-2.943h.091a.493.493,0,0,0,.547-.465v-.852a.488.488,0,0,0-.547-.465H17.137a.55.55,0,0,0-.547.465v.852a.488.488,0,0,0,.547.465h.091l-.821,2.943-2.1-4.647h-.182a7.082,7.082,0,0,0-4.285,1.394,5.4,5.4,0,0,0-2.1,3.486L7.2,57.917A1.822,1.822,0,0,0,9.114,59.776Z" transform="translate(-7.193 -9.024)"/><path class="b" d="M26.538,67.7H9.215A1.773,1.773,0,0,0,7.3,69.4V90a1.828,1.828,0,0,0,1.915,1.7H26.538A1.824,1.824,0,0,0,28.452,90V69.478A1.835,1.835,0,0,0,26.538,67.7ZM18.97,85.235v1.374q0,.242-.274.242h-1.55a.274.274,0,0,1-.274-.242V85.235a3.081,3.081,0,0,1-3.009-2.505.291.291,0,0,1,.274-.323h1.55c.182,0,.274.081.274.162a1.046,1.046,0,0,0,1,.727h1.368a1.55,1.55,0,0,0,1.641-1.212,1.478,1.478,0,0,0-1.55-1.535h-1a3.656,3.656,0,0,1-3.829-2.909,3.423,3.423,0,0,1,3.191-3.556V72.71c0-.162.182-.242.274-.242h1.55a.274.274,0,0,1,.274.242v1.374a3.081,3.081,0,0,1,3.009,2.505.291.291,0,0,1-.274.323h-1.55c-.182,0-.274-.081-.274-.162a1.046,1.046,0,0,0-1-.727H17.42a1.55,1.55,0,0,0-1.641,1.212,1.478,1.478,0,0,0,1.55,1.535h1.185a3.407,3.407,0,0,1,3.647,3.556A3.567,3.567,0,0,1,18.97,85.235Z" transform="translate(-7.203 -11.372)"/><path class="b" d="M57.638,52.1H40.315A1.8,1.8,0,0,0,38.4,53.862V88.338A1.855,1.855,0,0,0,40.315,90.1H57.638a1.852,1.852,0,0,0,1.915-1.762V53.862A1.852,1.852,0,0,0,57.638,52.1ZM50.07,76.846v1.426q0,.252-.274.252h-1.55a.279.279,0,0,1-.274-.252V76.846a3.117,3.117,0,0,1-3.009-2.6c0-.168.091-.336.274-.336h1.55c.182,0,.274.084.274.168a1.051,1.051,0,0,0,1,.755h1.368a1.56,1.56,0,0,0,1.641-1.258,1.507,1.507,0,0,0-1.55-1.594h-1a3.684,3.684,0,0,1-3.829-3.02,3.51,3.51,0,0,1,3.191-3.691V63.844q0-.252.274-.252h1.55a.279.279,0,0,1,.274.252V65.27a3.117,3.117,0,0,1,3.009,2.6c0,.168-.091.336-.274.336h-1.55c-.182,0-.274-.084-.274-.168a1.051,1.051,0,0,0-1-.755H48.52a1.56,1.56,0,0,0-1.641,1.258,1.507,1.507,0,0,0,1.55,1.594h1.185a3.473,3.473,0,0,1,3.647,3.691A3.623,3.623,0,0,1,50.07,76.846Z" transform="translate(-8.929 -9.706)"/><path class="b" d="M88.738,36.5H71.415A1.812,1.812,0,0,0,69.5,38.29V86.71a1.868,1.868,0,0,0,1.915,1.79H88.738a1.865,1.865,0,0,0,1.915-1.79V38.29A1.865,1.865,0,0,0,88.738,36.5ZM81.17,68.3v1.449q0,.256-.274.256h-1.55a.281.281,0,0,1-.274-.256V68.3a3.134,3.134,0,0,1-3.009-2.643c0-.171.091-.341.274-.341h1.55c.182,0,.274.085.274.17a1.054,1.054,0,0,0,1,.767h1.368a1.566,1.566,0,0,0,1.641-1.279,1.521,1.521,0,0,0-1.55-1.62h-1a3.7,3.7,0,0,1-3.829-3.069,3.55,3.55,0,0,1,3.191-3.751V55.084a.283.283,0,0,1,.274-.256h1.55a.281.281,0,0,1,.274.256v1.449a3.134,3.134,0,0,1,3.009,2.643c0,.17-.091.341-.274.341h-1.55c-.182,0-.274-.085-.274-.17a1.054,1.054,0,0,0-1-.767H79.62a1.566,1.566,0,0,0-1.641,1.279,1.521,1.521,0,0,0,1.55,1.62h1.185a3.5,3.5,0,0,1,3.647,3.751A3.649,3.649,0,0,1,81.17,68.3Z" transform="translate(-10.659 -8.434)"/></g></g></svg>