<svg xmlns="http://www.w3.org/2000/svg" width="122" height="122" viewBox="0 0 122 122"><defs><style>.a{fill:#fff;}.b{fill:#1a73e8;}</style></defs><g transform="translate(-719 -1243)"><circle class="a" cx="61" cy="61" r="61" transform="translate(719 1243)"/><g transform="translate(749.5 1273.31)"><g transform="translate(2.5 2.69)"><g transform="translate(3.61 35.496)"><path class="b" d="M17.55,48.389a5.49,5.49,0,1,1-5.49-5.419A5.464,5.464,0,0,1,17.55,48.389Z" transform="translate(-6.57 -42.97)"/><path class="b" d="M39.29,48.389a5.49,5.49,0,1,1-5.5-5.419A5.466,5.466,0,0,1,39.29,48.389Z" transform="translate(-9.343 -42.97)"/><path class="b" d="M61.028,48.389a5.495,5.495,0,1,1-5.5-5.419A5.466,5.466,0,0,1,61.028,48.389Z" transform="translate(-12.114 -42.97)"/></g><g transform="translate(0 45.42)"><path class="b" d="M20.7,60.261v4.018a.659.659,0,0,1-.665.665H3.165a.659.659,0,0,1-.665-.665V60.261A6.544,6.544,0,0,1,6.571,54.23a6.867,6.867,0,0,0,10.057,0A6.544,6.544,0,0,1,20.7,60.261Z" transform="translate(-2.5 -54.23)"/><path class="b" d="M42.438,60.261v4.018a.664.664,0,0,1-.665.665H24.9a.664.664,0,0,1-.665-.665V60.261a6.539,6.539,0,0,1,4.08-6.031,6.867,6.867,0,0,0,10.057,0A6.544,6.544,0,0,1,42.438,60.261Z" transform="translate(-5.272 -54.23)"/><path class="b" d="M64.178,60.261v4.018a.664.664,0,0,1-.665.665H46.635a.664.664,0,0,1-.665-.665V60.261a6.544,6.544,0,0,1,4.071-6.031,6.877,6.877,0,0,0,10.066,0A6.544,6.544,0,0,1,64.178,60.261Z" transform="translate(-8.044 -54.23)"/></g><path class="b" d="M28.166,25.139l10.679-6.973L28.166,11.2Z" transform="translate(-5.713 -3.653)"/><path class="b" d="M55.143,2.69H5.982A3.512,3.512,0,0,0,2.5,6.22V28.2a3.512,3.512,0,0,0,3.482,3.53h49.16a3.52,3.52,0,0,0,3.491-3.53V6.22A3.52,3.52,0,0,0,55.143,2.69ZM37.135,17.76l-12.422,8.2a.651.651,0,0,1-.673.028.665.665,0,0,1-.344-.585V9.009a.665.665,0,0,1,.344-.585.653.653,0,0,1,.673.028l12.422,8.194a.669.669,0,0,1,0,1.114Z" transform="translate(-2.5 -2.69)"/></g></g></g></svg>