<svg xmlns="http://www.w3.org/2000/svg" width="24" height="24.011" viewBox="0 0 24 24.011"><defs><style>.a{fill:#f9ab31;}</style></defs><path class="a" d="M18.978,8.166l-10.8,10.8a.625.625,0,0,0,.884.884l10.8-10.8a.625.625,0,0,0-.884-.884Zm3.534-2.649A12.006,12.006,0,0,0,5.533,22.5,12.006,12.006,0,0,0,22.512,5.516Zm-.884,16.094a10.755,10.755,0,1,1,0-15.21A10.687,10.687,0,0,1,21.628,21.611ZM17.274,15.4a1.86,1.86,0,1,0,1.316.545A1.847,1.847,0,0,0,17.274,15.4Zm.431,2.292a.624.624,0,0,1-.862,0,.61.61,0,1,1,.862-.862A.611.611,0,0,1,17.706,17.689Zm-6.935-5.074a1.859,1.859,0,1,0-1.316-.545A1.847,1.847,0,0,0,10.771,12.614Zm-.431-2.292a.61.61,0,1,1,.862.862.623.623,0,0,1-.862,0,.611.611,0,0,1,0-.862Z" transform="translate(-2.023 -2)"/></svg>