<svg xmlns="http://www.w3.org/2000/svg" width="122" height="122" viewBox="0 0 122 122"><defs><style>.a{fill:#fff;}.b{fill:#1a73e8;}</style></defs><g transform="translate(-140 -7565.426)"><circle class="a" cx="61" cy="61" r="61" transform="translate(140 7565.426)"/><g transform="translate(161 7599.426)"><path class="b" d="M57.061,50.973a9.457,9.457,0,0,0-2.536-5.411c.919-2.739,3.251-4.631,5.625-4.631a8.281,8.281,0,0,0,3.786,1.09,8.292,8.292,0,0,0,3.787-1.09,5.966,5.966,0,0,1,4.908,3.062H64.962a.982.982,0,0,0-.94.805l-.782,6.175H57.061Zm7.244-10.636a5.1,5.1,0,1,0-5.18-5.1A5.124,5.124,0,0,0,64.305,40.336Zm12.542,4.755-.731,5.882H64.384l.73-5.882Zm-4.985,2.845a.962.962,0,0,0-.979-.971.988.988,0,0,0-1.011.971,1.013,1.013,0,0,0,1.011,1A.988.988,0,0,0,71.862,47.937ZM57.136,52.072v3.3H68.227v6.593H64.9v8.821H82.674V55.368H86v-3.3Zm-7.78-7.817a9.037,9.037,0,0,1-4.2,1.224,9.083,9.083,0,0,1-4.227-1.224,6.7,6.7,0,0,0-5.456,3.421H44.09a.984.984,0,0,1,.941.805l.869,6.887H56.028v-3.3C56.027,47.677,52.7,44.255,49.356,44.255Zm-4.6-.635a5.674,5.674,0,1,0-5.742-5.664A5.685,5.685,0,0,0,44.761,43.621ZM31.487,55.368l-.846-6.592h13.3l.847,6.592Zm4.839-3.3a1.109,1.109,0,1,0,1.108-1.1A1.094,1.094,0,0,0,36.326,52.072Zm-15.819,4.4v4.4h3.326V77.374H63.79V60.862h3.327v-4.4ZM31.875,26.025V38.112a3.668,3.668,0,0,1-3.685,3.621H26.982v4.845l-7.337-4.845H8.654A3.661,3.661,0,0,1,5,38.112V26.025a3.666,3.666,0,0,1,3.654-3.651H28.191A3.672,3.672,0,0,1,31.875,26.025ZM10.53,32.179l3.162-1.486a1.058,1.058,0,0,0,.477-.325.682.682,0,0,0,.165-.465.664.664,0,0,0-.211-.49.6.6,0,0,0-.5-.21.468.468,0,0,0-.235.053,1.883,1.883,0,0,0-.336.145L8.7,31.394c-.473.223-.714.482-.714.829,0,.316.234.57.668.788l4.4,1.98c.107.065.23.089.313.133a1.373,1.373,0,0,0,.256.024.672.672,0,0,0,.711-.7.784.784,0,0,0-.164-.46,1.9,1.9,0,0,0-.479-.322ZM20.5,28.4a.633.633,0,0,0-.284-.54.792.792,0,0,0-.559-.185.5.5,0,0,0-.418.173,1.522,1.522,0,0,0-.315.492l-3.176,6.779a1.144,1.144,0,0,0-.161.556.728.728,0,0,0,.253.539.949.949,0,0,0,.561.184.745.745,0,0,0,.447-.171,4.1,4.1,0,0,0,.313-.515l3.17-6.728c.042-.129.1-.256.115-.334A.511.511,0,0,0,20.5,28.4Zm7.436,3.824c0-.349-.239-.606-.77-.845L22.877,29.4a1.841,1.841,0,0,0-.333-.14,1.807,1.807,0,0,0-.275-.054.673.673,0,0,0-.493.212.65.65,0,0,0-.178.488.56.56,0,0,0,.166.465,1.058,1.058,0,0,0,.473.325L25.4,32.178l-3.164,1.486a1.6,1.6,0,0,0-.479.333.593.593,0,0,0-.161.449.681.681,0,0,0,.179.52.776.776,0,0,0,.492.181,1.537,1.537,0,0,0,.288-.024c.084-.044.177-.07.311-.133l4.363-1.979C27.7,32.794,27.933,32.539,27.933,32.222Z" transform="translate(-5 -22.374)"/></g></g></svg>