<svg xmlns="http://www.w3.org/2000/svg" width="870.852" height="672.633" viewBox="0 0 870.852 672.633">
  <g id="Group_6003" data-name="Group 6003" transform="translate(-1171.148 -192)">
    <g id="Layer_2" data-name="Layer 2" transform="translate(1171.151 212.301)">
      <g id="Layer_1" data-name="Layer 1" transform="translate(-0.003 0)">
        <rect id="Rectangle_40135" data-name="Rectangle 40135" width="54.82" height="46.1" rx="13.51" transform="translate(228.598 495.041)" fill="#d33638" opacity="0.1"/>
        <rect id="Rectangle_40136" data-name="Rectangle 40136" width="54.82" height="46.1" rx="13.51" transform="translate(193.108 432.933)" fill="none" stroke="#1554bb" stroke-width="5"/>
        <rect id="Rectangle_40137" data-name="Rectangle 40137" width="54.82" height="46.1" rx="13.51" transform="translate(159.518 495.041)" fill="#329345" opacity="0.1"/>
        <rect id="Rectangle_40138" data-name="Rectangle 40138" width="54.82" height="46.1" rx="13.51" transform="translate(193.108 432.933)" fill="#3367a5" opacity="0.1"/>
        <rect id="Rectangle_40139" data-name="Rectangle 40139" width="54.82" height="46.1" rx="13.51" transform="translate(124.662 556.515)" fill="#e7bc04" opacity="0.1"/>
        <rect id="Rectangle_40140" data-name="Rectangle 40140" width="54.82" height="46.1" rx="13.51" transform="translate(193.741 557.149)" fill="#329345" opacity="0.1"/>
        <rect id="Rectangle_40141" data-name="Rectangle 40141" width="54.82" height="46.1" rx="13.51" transform="translate(265.99 557.783)" fill="#1554bb" opacity="0.1"/>
        <path id="Path_57788" data-name="Path 57788" d="M59.09,430.787a3.745,3.745,0,0,1,2.345,1.9,60.8,60.8,0,0,1,9.082.507c1.819.247,3.6.577,5.33.989a3.714,3.714,0,0,1,3.315-2.034,3.637,3.637,0,0,1,1.553.342q.38-.482.78-.951a39.563,39.563,0,0,1,10.514-9.2,29.52,29.52,0,0,0-31.758.906A35.294,35.294,0,0,0,59.09,430.787Z" transform="translate(-21.64 -153.144)" fill="#329345"/>
        <path id="Path_57789" data-name="Path 57789" d="M102.058,464.74a3.727,3.727,0,0,1,.539-4.05A41.689,41.689,0,0,0,87.2,450.17a3.708,3.708,0,0,1-2.687,1.16,3.47,3.47,0,0,1-.577-.044A99.606,99.606,0,0,0,73.71,475.913a3.866,3.866,0,0,1,.818,1.128c.773-.032,1.565-.089,2.364-.165A39.35,39.35,0,0,0,102.058,464.74Z" transform="translate(-26.994 -164.871)" fill="#e7bc04"/>
        <path id="Path_57790" data-name="Path 57790" d="M96.579,436.367c-.241.285-.482.589-.729.9a3.669,3.669,0,0,1,.507,1.87,3.608,3.608,0,0,1-.038.526,45.042,45.042,0,0,1,6.591,3.3,44.365,44.365,0,0,1,9.76,8.055,3.7,3.7,0,0,1,1.844.032,59.078,59.078,0,0,0,4.436-7.174A29.527,29.527,0,0,0,107.6,427C106.548,427.513,101.928,429.928,96.579,436.367Z" transform="translate(-35.103 -156.385)" fill="#329345"/>
        <path id="Path_57791" data-name="Path 57791" d="M66.527,471.238a104.192,104.192,0,0,1,5.152-13.943,78.585,78.585,0,0,1,4.874-9.107,3.669,3.669,0,0,1-.976-2.034c-1.679-.4-3.4-.716-5.184-.957a57.051,57.051,0,0,0-8.511-.5,3.726,3.726,0,0,1-2.611,2.972c.032.4.063.811.108,1.223A64.331,64.331,0,0,0,66.527,471.238Z" transform="translate(-21.706 -162.864)" fill="#e7bc04"/>
        <path id="Path_57792" data-name="Path 57792" d="M72.3,499.16a3.707,3.707,0,0,1-1.673.989c-.342,1.477-.634,2.991-.976,4.557a29.273,29.273,0,0,0,8.137,2C75.874,504.313,74.017,501.758,72.3,499.16Z" transform="translate(-25.507 -182.813)" fill="#d33638"/>
        <path id="Path_57793" data-name="Path 57793" d="M49.8,437.381a3.72,3.72,0,0,1,2.3-2.332,43.675,43.675,0,0,1,.634-5.488A29.7,29.7,0,0,0,46,438C46.944,437.805,48.231,437.583,49.8,437.381Z" transform="translate(-16.846 -157.323)" fill="#3367a5"/>
        <path id="Path_57794" data-name="Path 57794" d="M55.669,475.175a3.765,3.765,0,0,1,2.218-1.825,64.131,64.131,0,0,1-3.131-6.407A62.615,62.615,0,0,1,50.244,449.3c-.044-.456-.082-.906-.12-1.35a3.733,3.733,0,0,1-2.4-2.415,46.915,46.915,0,0,0-5.013.925,29.539,29.539,0,0,0,1.965,26.409,45.97,45.97,0,0,0,10.989,2.3Z" transform="translate(-14.828 -163.176)" fill="#3367a5"/>
        <path id="Path_57795" data-name="Path 57795" d="M108.036,475.787a3.727,3.727,0,0,1-3.536-.057,43.94,43.94,0,0,1-7.954,6.509,41.969,41.969,0,0,1-18.639,6.3l-1.717.133a87.227,87.227,0,0,0,6.971,9.589,29.5,29.5,0,0,0,27.3-18.48Q109.317,477.688,108.036,475.787Z" transform="translate(-27.902 -174.232)" fill="#d33638"/>
        <path id="Path_57796" data-name="Path 57796" d="M128.27,464.028a3.733,3.733,0,0,1,.463,4.024q.932,1.35,1.794,2.789a29.445,29.445,0,0,0,1.147-8.169,30.025,30.025,0,0,0-.215-3.562Q129.949,461.7,128.27,464.028Z" transform="translate(-46.976 -168.145)" fill="#d33638"/>
        <path id="Path_57797" data-name="Path 57797" d="M61.07,497.863a3.739,3.739,0,0,1-2.136-2.839,51.483,51.483,0,0,1-8.454-1.534,29.615,29.615,0,0,0,9.836,8.08C60.544,500.335,60.8,499.105,61.07,497.863Z" transform="translate(-18.486 -180.737)" fill="#3367a5"/>
        <path id="Path_57798" data-name="Path 57798" d="M77.2,404.6l-4.119,5.133A36.466,36.466,0,0,0,27.6,417.664l-4.658-4.506-4.468-4.436A48.432,48.432,0,0,0,14.791,467.7l-4.842,4.436a54.934,54.934,0,0,1,8.676-72.755l4.506,4.684,4.582,4.392a42.277,42.277,0,0,1,27.461-9.906A42.759,42.759,0,0,1,77.2,404.6Z" transform="translate(0.003 -145.965)" fill="#3367a5"/>
        <path id="Path_57799" data-name="Path 57799" d="M93.5,497.078a54.947,54.947,0,0,1-72.464-9l4.652-4.874,4.221-4.842A41.194,41.194,0,0,1,26.7,428.93l4.912,4.392A34.755,34.755,0,0,0,38.8,478.091l-4.018,5.133L30.607,488.1a47.913,47.913,0,0,0,58.534,4.088Z" transform="translate(-7.308 -157.092)" fill="#e7bc04"/>
        <path id="Path_57800" data-name="Path 57800" d="M111.4,432.877a41.125,41.125,0,0,1-6.9,22.815l-4.931-4.354A34.6,34.6,0,0,0,104.9,432.89a35,35,0,0,0-12.96-27.106L96.183,401l4.138-4.728a48.489,48.489,0,0,0-58.635-3.441l-4.316-4.924a55.206,55.206,0,0,1,72.432,8.378l-4.557,4.829-4.157,4.582A40.56,40.56,0,0,1,111.4,432.877Z" transform="translate(-13.685 -138.465)" fill="#329345"/>
        <path id="Path_57801" data-name="Path 57801" d="M128.663,446.3a54.909,54.909,0,0,1-19.013,41.587l-4.341-4.842-4.36-4.816a43.057,43.057,0,0,1-50.219,2.991l4.031-5.152a36.391,36.391,0,0,0,19.013,5.317,37.29,37.29,0,0,0,27.537-12.593l4.55,4.7,4.386,4.626a48.432,48.432,0,0,0,3.169-59.573l4.842-4.436A54.725,54.725,0,0,1,128.663,446.3Z" transform="translate(-18.578 -151.665)" fill="#d33638"/>
        <circle id="Ellipse_2214" data-name="Ellipse 2214" cx="49.116" cy="49.116" r="49.116" transform="translate(6.193 245.809)" fill="#efefef"/>
        <path id="Path_57802" data-name="Path 57802" d="M79.238,444.376v-3.492a.634.634,0,1,0-1.268,0v3.492a11.832,11.832,0,0,0-11.179,11.408H63.084a.634.634,0,1,0,0,1.267h3.758a11.832,11.832,0,0,0,11.167,10.926v3.993a.634.634,0,1,0,1.268,0v-3.993a11.82,11.82,0,0,0,11.148-10.92h3.758a.634.634,0,0,0,0-1.268H90.449a11.8,11.8,0,0,0-3-7.459l5.774-5.767a.634.634,0,1,0-.881-.875l-5.767,5.767A11.776,11.776,0,0,0,79.238,444.376Zm7.009,11.788a7.649,7.649,0,1,1-2.63-5.761l-1.451,1.451a5.634,5.634,0,1,0,.868.913l1.458-1.458a7.605,7.605,0,0,1,1.756,4.855Z" transform="translate(-22.87 -161.238)" fill="#1554bb" opacity="0.8"/>
        <path id="Path_57803" data-name="Path 57803" d="M113.011,433.08l3.105-3.105-.608-4.284-5.558,5.552.608,4.291Z" transform="translate(-40.267 -155.906)" fill="#1554bb"/>
        <path id="Path_57804" data-name="Path 57804" d="M112.3,439.388l4.284.615,5.558-5.558-4.284-.615-1.115,1.115Z" transform="translate(-41.127 -158.887)" fill="#1554bb"/>
        <path id="Path_57805" data-name="Path 57805" d="M98.5,445.266l-7.706-1.724a1.267,1.267,0,0,0-.545,2.427l6.737,1.508v3.169l-6.737,1.5a1.267,1.267,0,0,0-.944.944,18.378,18.378,0,0,1-2.421,5.856,1.268,1.268,0,0,0,0,1.331l3.695,5.843-2.244,2.243-5.843-3.688a1.267,1.267,0,0,0-1.331,0A18.335,18.335,0,0,1,75.3,467.1a1.268,1.268,0,0,0-.938.944l-1.508,6.737H69.687l-1.508-6.737a1.267,1.267,0,0,0-.938-.944,18.271,18.271,0,0,1-5.843-2.421,1.267,1.267,0,0,0-1.331,0l-5.843,3.7-2.244-2.244,3.714-5.85a1.268,1.268,0,0,0,0-1.331,18.189,18.189,0,0,1-2.421-5.856,1.268,1.268,0,0,0-.944-.944l-6.775-1.5v-3.169l6.737-1.508a1.268,1.268,0,0,0,.944-.944,18.272,18.272,0,0,1,2.459-5.862,1.268,1.268,0,0,0,0-1.325l-3.7-5.85,2.244-2.244,5.843,3.714a1.268,1.268,0,0,0,1.331,0,18.536,18.536,0,0,1,5.862-2.44,1.268,1.268,0,0,0,.932-.938l1.508-6.743h3.169l1.508,6.743a1.268,1.268,0,0,0,2.421-.545l-1.743-7.706a1.268,1.268,0,0,0-1.217-.976H68.686a1.268,1.268,0,0,0-1.21.976l-1.559,6.971a20.985,20.985,0,0,0-5.19,2.155l-6.033-3.8a1.267,1.267,0,0,0-1.534.127l-3.65,3.65a1.268,1.268,0,0,0-.171,1.546l3.8,6.033a20.838,20.838,0,0,0-2.148,5.19L44.02,445.26a1.267,1.267,0,0,0-.97,1.217v5.165a1.268,1.268,0,0,0,.97,1.21l6.971,1.553a20.591,20.591,0,0,0,2.167,5.2l-3.8,6.033a1.267,1.267,0,0,0,.171,1.54l3.631,3.65A1.268,1.268,0,0,0,54.7,471l6.033-3.8a20.909,20.909,0,0,0,5.19,2.148l1.559,6.971a1.268,1.268,0,0,0,1.21.97h5.165a1.268,1.268,0,0,0,1.217-.97l1.553-6.971a20.544,20.544,0,0,0,5.19-2.148l6.033,3.8a1.268,1.268,0,0,0,1.546-.171l3.65-3.65a1.267,1.267,0,0,0,.171-1.54l-3.8-6.033a21.244,21.244,0,0,0,2.155-5.2l6.971-1.553a1.268,1.268,0,0,0,.976-1.21v-5.165A1.267,1.267,0,0,0,98.5,445.266Z" transform="translate(-15.765 -154.137)" fill="#1554bb" opacity="0.8"/>
        <circle id="Ellipse_2215" data-name="Ellipse 2215" cx="5.678" cy="5.678" r="5.678" transform="translate(50.011 289.26)" fill="#1554bb"/>
        <text id="Price" transform="translate(256.071 57.198)" fill="#494949" font-size="17" font-family="Poppins" font-weight="600"><tspan x="0" y="0">Price</tspan></text>
        <text id="Quote" transform="translate(374.584 273.943)" fill="#494949" font-size="17" font-family="Poppins" font-weight="600"><tspan x="0" y="0">Quote</tspan></text>
        <text id="Configure" transform="translate(0.033 213.736)" fill="#494949" font-size="17" font-family="Poppins" font-weight="600"><tspan x="0" y="0">Configure</tspan></text>
        <path id="Path_57806" data-name="Path 57806" d="M257.909,303.578h-1.1l.665-.881s1.325-.444,1.325-.665v-.881h1.1v.634l1.325.222.444,1.324-.444.444-.881.444s-.444.437-.887.215a4.715,4.715,0,0,0-1.768,0v-.881Zm32.9,28.487c-.887,0-1.99-3.093-1.99-3.093l-4.633-.665-1.768-2.212s-3.093,0-3.758,1.325c-.437,1.325-1.325-.665-1.325-.665l.444-5.07-2.649-2.427-3.974-1.325-1.768-.665-.634-2.649-3.093-2.206h-5.742l-2.212-2.212h-2.649l-3.124,1.318-.444,1.109-2.649.881h-3.093s-.881,1.325.881,1.546,1.99,1.984,1.99,3.093c0,.881-.222,3.53-.222,3.53v3.315l-2.871,1.325v2.206l.887.222-.887,1.546v3.093a6.874,6.874,0,0,0,1.546.437c.444,0,1.1,3.093,1.1,3.093l2.871,6.407s1.99,1.546,3.093,5.52.444,15.014.444,15.014-1.99,7.51-3.758,9.05c-.634,1.109.444,7.51.444,7.51l.634.222v3.131l-1.109.634.222,1.324-.222,2.649-.881,1.325s.222,1.109.665,1.109.881,2.871.881,2.871l.881,1.984s.444,2.212,1.546,2.212,2.212-6.845,4.436-7.066,1.325-6.629,1.325-6.629l1.325-1.984h.665v-1.325l-1.325-1.768.881-1.1,2.205-.665,1.99-1.762,2.871-1.109v-3.752l3.321-1.331,2.427-2.649L276,364.964l1.325-7.066,4.639-3.974,3.752-.634v-2.655l1.546-2.206v-2.205l2.649-.887v-4.664l3.315-4.2s1.324-.444.881-3.315c.019-2.421-2.186-1.1-3.289-1.1Zm35.769-98.232h1.99c.222,0,1.768.444,1.984.444s0-.634,0-.634v-1.325l1.546-.881a.817.817,0,0,0-.634-.444c-.444,0-.222-.444-.444-.444s-.881-.437-1.1-.222a7.565,7.565,0,0,1-2.212,0h-2.649s-.222.887-.437.887h-1.546c-.222,0-.222-.887-.222-.887h-.665c-.437,0-.634.887-.881,1.109s.222,1.1.444,1.325,1.1.881,1.1.881a13.353,13.353,0,0,1,.881,1.325l1.325-.222,1.546-.222a.3.3,0,0,0,0-.437c-.247-.52-.025-.285-.025-.285ZM259.456,398.749v-.881l-.881-.222v-.887H255.26l-.222,2.212.887.634c.222,0,.222.665.222.665v-.222l3.308.222v-.881l.887-.222v-.444Zm-7.288-98.486,1.109.887h1.762a1.268,1.268,0,0,0-.881-1.768h-.881a8.979,8.979,0,0,0-.665-.881c-.222-.222-1.1-.887-1.1-1.109s.444-.437,0-.634a8.73,8.73,0,0,0-1.325-.444s-.887-.634-.887,0v1.325a10.765,10.765,0,0,0,2.434.887Zm84.8-45.485s.222-.444.437-.444a5.794,5.794,0,0,0,.634-1.762v-2.655H339.8v2.212l-.887,1.546s-.881,1.1-1.1,1.325c0,.222,1.325,1.325,1.325,1.325h2.212c.215,0,2.871-.444,2.871-.444h1.1v-1.768l-.634-2.871h-1.1a32.644,32.644,0,0,1-1.99-3.308c-.215-.665-.634-1.1-.881-1.1-.444-.222-.634-2.434-.634-2.649s-.665-.222-.887-.222c-.437,0,0,1.762,0,1.762l-.222,2.871s-.881.222-.881,0c0-.437-.881-.634-.881-.634l-.222,1.1-.887,1.768-1.54,1.1v1.99l.437.437Zm65.809,56.968A104.887,104.887,0,1,1,297.887,206.86,104.983,104.983,0,0,1,402.774,311.747Zm-11.927-2.427-.222,1.1.887.665,1.1-.444,3.093-1.1h.222V307.33h-.665l-.634.665-1.109.634L392.64,308a9.126,9.126,0,0,0-1.325-.444c-.222-.222-1.768,0-1.768,0l-.716-1.1v-3.315a6.8,6.8,0,0,1-.444-1.546c-.222-.215-1.1-1.1-1.546-1.1a9.281,9.281,0,0,1-.634-2.649,15.44,15.44,0,0,0-1.546-1.984l-1.534-3.536-1.768-2.649h-.894L379.8,286.8l-.222-.444.887,4.861.881.881.444,1.99.222,3.974,1.54,2.649,1.109,2.427,1.1,2.649,1.546,1.99h1.984Zm-12.789-25.395h2.434l.634-.881-.437-2.212-.887-3.308h-5.3a3.471,3.471,0,0,1-1.546,0c-.444-.222,0-.887,0-.887v-2.649s0-1.984-.444-1.984a2.731,2.731,0,0,1-1.1-.444v-.444h-.881l-.887.444H368.1s-.222,1.546-.222,1.99v.437l1.1.665-.444.634-.634.887s-.444.634-.887.634c-.222,0,0-.634,0-1.325a2.929,2.929,0,0,0-1.1-.222c-.222,0-.881-1.1-1.325-1.325s-.222-1.984-.222-1.984-.437-2.212-.437-2.434a5.229,5.229,0,0,0-1.546-1.546c-.444,0-1.324-1.54-1.99-2.865s-2.427,0-2.427,0l-.222,1.325a6.336,6.336,0,0,0,.881,1.762c.444.444,2.212,1.99,2.212,1.99l.437,1.546-.437.437s-1.99-1.54-2.649-1.984c-.444-.222-.665-1.546-1.325-1.768-.444-.222-1.768-1.1-1.768-1.1s-.222-.881-1.99-.881h-2.649l-2.675,1.356v1.325l-1.324,1.762h-2.871c-.444,0,0,.887,0,.887l-.222,3.093s-.437.881-.881.881a5.273,5.273,0,0,0-1.546.634l-1.325.665V278.8l1.984-.887,2.656-.881,2.205-1.99h7.066l1.99.887v6.179h2.649l1.984.887v.881l3.536.665v1.1l.881-.665-.881-2.617,2.205.665h1.99l-.444,1.325H374.5l1.325.881h2.649ZM245.6,228.725c-.222,0-.222.215-.444.215C245.38,229.162,245.6,229.162,245.6,228.725ZM394.155,330.3h-.444l-.437-1.1.437-1.1h.444v1.984a84.63,84.63,0,0,0,1.546-15.014L390.181,325h-1.546l-3.974,7.726-.222,3.093,1.546.881v8.835l-6.185,4.436v4.855l-2.206,1.99-.887,3.315-6.179,8.391h-7.047l-.444.634-1.1-.881-1.546-2.649-.634-5.964-.887-7.288-1.325-3.752-.881-6.407,2.205-1.54V337.8l.222-2.655-.881-1.762-.665-3.315-2.649-3.752-.444-7.954-5.07-2.205-4.436.444-2.206,1.546-7.51-.444-.222-1.546-2.206-1.546-.222-1.984-3.321-3.308-2.206-2.427V292.538l7.288-4.861v-5.52l2.649-1.762.881-1.99V277.3H339.4l-.444-.887-.215-.881h-3.315l-.665-1.984.222-6.629,2.212-.222H340.5l1.546-1.325h1.546l-.222-2.427-2.871-3.315,4.2-.881s4.639-5.3,4.639-5.964,1.546,0,1.546,0l2.649-.437.222-2.212v-3.308l1.325-.444.881,1.99.222,1.762h4.639l3.093.887,2.427-1.109-.665-1.984a41.364,41.364,0,0,1,1.325-4.2c.222-.887,0,1.768,0,1.768l2.649.881v-1.325a63.4,63.4,0,0,0-6.845-6.623l-.634.881,1.984,1.768.222,2.649h-1.984l-2.434,3.093-1.325,1.984.444-1.984-1.546-1.109v-2.643l-2.427.665-3.093-.887.222-1.984-1.546-1.99.222-1.546,5.964-2.649.215-1.325a98.232,98.232,0,0,0-34.445-16.782l-.634,1.546,2.427.665v1.546s-1.546,1.54-2.649,1.54a22.994,22.994,0,0,0-2.649.222A6.224,6.224,0,0,1,316.7,223.2a4.132,4.132,0,0,0-2.022.856s-.887,1.546-1.768,1.546-4.861.881-4.861.881l-.634,2.212-1.1,2.205-1.325,1.1-1.546,3.093-.444.634h-1.984v-.887l-2.212-.634-1.546-1.99V228.5h-1.325l-.444-.634.444-1.984-.444-1.546h-1.325l.222-1.325,1.546-1.768v-.881H294.61l-.925-2h.881v-2.427L292.8,213.92a95.843,95.843,0,0,0-35.788,8.873l.222.222,4.436.437L262.992,225l.437,3.315-1.35.849v.887l3.315.634h.881s.222,1.1.634,1.1h2.205v1.781a7.275,7.275,0,0,0-1.325.634,12.068,12.068,0,0,0-1.546,1.984s0,.665-.634.222a16.13,16.13,0,0,1-1.99-1.99l-.437-.437-.444.881a.488.488,0,0,0,.222.634,16.978,16.978,0,0,1,1.984,1.984l.887.887-1.325,1.1H262.08l-.437,1.984-1.109-.437-.437-1.1-2.871-1.768L257,236.818l-1.1-.887-2.871-.215v-.444l.437-.887h.444v.444h1.546l.665-1.768.215-1.762a9.41,9.41,0,0,0,.444-1.325,5.7,5.7,0,0,1,.444-1.109l-.444-.881-1.984-1.1-1.99-.887-1.546-.634-3.315,1.99c.222.215.222.437.444.437h1.99l.437.634-.437.437-.444.444h-1.1l-.887,2.212-.437,1.325-1.99.881-.634,1.1a5.61,5.61,0,0,0,1.1.444,16.723,16.723,0,0,1,1.984,1.984h1.546l-.881,1.109h-1.1l-3.315.215-1.546-.881v-2.871s0-.881-.634-.444a2.63,2.63,0,0,1-1.325.444l.437,1.325-1.1.444h-1.1l-.634,1.768-2.649,1.1-.437,1.546-.444.881-1.1,2.427-.665-.215.222,1.1s1.1.222,1.325.222,1.1,1.1,1.1,1.1l.634,1.768h3.752l1.546,1.762,1.1,2.212s1.99-.444,2.212-.444a12.558,12.558,0,0,1,1.762,1.1l.444,3.536,1.325.634,1.1.222.222-3.974,1.768-1.546.881-2.206-.437-2.655-1.546-.437-.444-2.649,1.1.222.222-3.758,1.1-.634h1.325v1.325h2.212c.222,0,1.546-.222,1.546-.222s.215,1.546.437,1.546,1.768-.222,1.768-.222l.665,2.206v1.768l1.1.444,1.325-.444.222-.634s.437-1.325.634-1.325,1.546-.222,1.546-.222l1.1.437,1.325,3.98,1.99,2.865s1.546,2.434,2.649,2.434,2.206,1.546,2.206,1.546l-1.1,2.205-1.984,1.99-2.649.216-3.758.665-1.1.665h-1.325v1.984l2.205-.634s-.215-.444.222-.444,1.768-.222,1.768-.222-.228,1.128-.228,1.356a9.125,9.125,0,0,0,.444,1.325h2.205l-.634,1.325h2.649l-1.768,1.99-1.1,1.1h-3.315l-.437-1.1-.887-1.546s-.634.444-.437.634a9.281,9.281,0,0,1,.215,2.212.482.482,0,0,0,.222.634,4.822,4.822,0,0,1,1.1,1.325l-.437.444a.774.774,0,0,1-.444.222h-.444l-.881-.222-.444-1.1-1.546-.444s-.881.634-.881.887a14.235,14.235,0,0,1-.444,1.54l-1.546.222-1.1.665-.222,3.093-2.205,1.762.444,3.536-2.453.919-.634,2.649-.881,1.99v3.53l.634.887-.222,2.649H249.74s-2.427-1.99-2.427-2.427c0-.665-.222-2.212-.222-2.212l-.634-.634h-1.109l-3.334-1.363v1.54l-1.768.222-4.436-.881-.444-.222-.634,1.546H233.18l-1.1,3.53v1.768c0,.887-.222,3.536-.222,3.536l.222,1.325h.634l.444,1.546.881,1.1h1.109l.437.881h1.99c.222,0,1.546-.437,1.546-.634s0-1.324.222-1.546.634-.444.881-.665a4.561,4.561,0,0,1,1.99-1.1c.215-.222,1.325-1.1,1.325-1.1a5.069,5.069,0,0,0,.215,1.546,42.059,42.059,0,0,1,0,5.3l.444.444s.665,0,.665.881c0,.665-.665,6.4-.665,6.4l1.1,1.546-.437.222h-1.546a13.379,13.379,0,0,1-1.325-.881c-.222,0-1.768-1.1-1.768-1.768v-1.99a9.406,9.406,0,0,0-.444-1.325l-2.649-.215s-1.546-.665-1.546-.887-.881-1.1-.881-1.1l-1.768-1.1h-5.71l-.437-.444a4.435,4.435,0,0,0,.437-1.325c0-.444-.634-1.1-.634-1.1l-1.768-1.768v-1.1l.665-.444a2.947,2.947,0,0,0-.222-1.1c-.222-.222-2.212-4.639-2.212-4.639l-.437-.437-1.99-1.99-.881-.634s-.665-1.331-.665-1.109v2.624a4.512,4.512,0,0,0,.444,1.325c.222.222.222,1.546.222,1.546v1.109l-.222.634h-.665l-.437-.881-3.758-7.732s-5.52-8.391-6.623-9.272c-.444-.222-.881-1.546-1.1-3.315a99.994,99.994,0,0,0-7.066,36.435A98.029,98.029,0,0,0,394.155,330.3Z" transform="translate(-70.683 -75.761)" fill="#e2e2e2" opacity="0.3"/>
        <path id="Path_57807" data-name="Path 57807" d="M307.6,307.443a23.9,23.9,0,0,1,17.3-7.428,24.146,24.146,0,0,1,21.085,12.479,29.027,29.027,0,0,1,11.9-2.535,29.673,29.673,0,0,1,0,59.345,29.154,29.154,0,0,1-5.793-.577,21.5,21.5,0,0,1-28.177,8.873,24.533,24.533,0,0,1-45.631-1.109,22.4,22.4,0,0,1-4.683.488,23.056,23.056,0,0,1-11.408-42.943,26.5,26.5,0,0,1,45.39-26.573" transform="translate(-91.852 -108.792)" fill="#00a1e0"/>
        <path id="Path_57808" data-name="Path 57808" d="M281.983,368.71c-.082.222.032.272.057.311a8.478,8.478,0,0,0,.78.469,8.29,8.29,0,0,0,4.081.957c2.8,0,4.538-1.489,4.538-3.885v-.051c0-2.212-1.965-3.017-3.8-3.6l-.241-.076c-1.388-.45-2.586-.843-2.586-1.755V361c0-.78.7-1.356,1.787-1.356a8,8,0,0,1,3.555.913s.272.171.368-.089c.057-.139.526-1.394.57-1.534a.247.247,0,0,0-.133-.311,7.948,7.948,0,0,0-4.012-1.077h-.279c-2.535,0-4.348,1.546-4.348,3.765v.051c0,2.332,1.971,3.093,3.8,3.619l.292.1c1.35.412,2.535.767,2.535,1.717v.044c0,.868-.754,1.515-1.971,1.515a6.648,6.648,0,0,1-3.6-1.014c-.2-.114-.311-.2-.463-.285a.222.222,0,0,0-.368.12L282,368.71Zm40.979,0c-.089.222,0,.272.057.311a7.063,7.063,0,0,0,.779.469,8.271,8.271,0,0,0,4.081.957c2.795,0,4.531-1.489,4.531-3.885v-.051c0-2.212-1.958-3.017-3.8-3.6l-.234-.076c-1.388-.45-2.586-.843-2.586-1.755V361c0-.78.7-1.356,1.781-1.356a8.054,8.054,0,0,1,3.562.913s.266.171.368-.089l.57-1.534a.26.26,0,0,0-.139-.311,7.922,7.922,0,0,0-4.005-1.077h-.285c-2.535,0-4.348,1.546-4.348,3.765v.051c0,2.332,1.971,3.093,3.8,3.619l.3.1c1.344.412,2.535.767,2.535,1.717v.044c0,.868-.754,1.515-1.971,1.515a6.628,6.628,0,0,1-3.606-1.039c-.2-.114-.317-.19-.463-.285a.234.234,0,0,0-.368.12l-.551,1.534Zm27.968-4.7a5.748,5.748,0,0,1-.748,3.169,2.535,2.535,0,0,1-2.275,1.109,2.472,2.472,0,0,1-2.263-1.109,5.862,5.862,0,0,1-.742-3.169,5.792,5.792,0,0,1,.742-3.169,2.491,2.491,0,0,1,2.25-1.109,2.535,2.535,0,0,1,2.275,1.1,5.7,5.7,0,0,1,.748,3.169m2.339-2.535a5.639,5.639,0,0,0-1.065-2.028,5.071,5.071,0,0,0-1.793-1.363,6.509,6.509,0,0,0-5.007,0,5.152,5.152,0,0,0-1.8,1.363,5.7,5.7,0,0,0-1.058,2.028,9.4,9.4,0,0,0,0,5.026,5.545,5.545,0,0,0,1.065,2.028,4.969,4.969,0,0,0,1.794,1.35,6.585,6.585,0,0,0,5.007,0,4.969,4.969,0,0,0,1.794-1.35,5.64,5.64,0,0,0,1.065-2.028,9.4,9.4,0,0,0,0-5.026m19.209,6.509a.222.222,0,0,0-.3-.146,4.878,4.878,0,0,1-1.084.311,8.033,8.033,0,0,1-1.268.1,3.561,3.561,0,0,1-2.674-1,4.436,4.436,0,0,1-1-3.169,5,5,0,0,1,.894-3.08,3.054,3.054,0,0,1,2.592-1.141,7.808,7.808,0,0,1,2.472.355s.184.082.273-.158c.2-.57.355-.976.57-1.6a.215.215,0,0,0-.139-.279,9.7,9.7,0,0,0-1.559-.393,12,12,0,0,0-1.755-.114,6.336,6.336,0,0,0-2.6.5,5.355,5.355,0,0,0-1.9,1.362,5.775,5.775,0,0,0-1.134,2.028,8.05,8.05,0,0,0-.38,2.535,6.718,6.718,0,0,0,1.553,4.652,5.922,5.922,0,0,0,4.614,1.737,9.506,9.506,0,0,0,3.308-.6.2.2,0,0,0,.095-.272l-.577-1.584Zm4.088-5.222a4.708,4.708,0,0,1,.634-1.87,2.535,2.535,0,0,1,2.269-1.147,2.465,2.465,0,0,1,2.218,1.147,3.954,3.954,0,0,1,.526,1.87Zm7.871-1.654a4.944,4.944,0,0,0-1.014-1.851,4.677,4.677,0,0,0-1.5-1.147,5.743,5.743,0,0,0-2.269-.456,6.143,6.143,0,0,0-2.6.507,5.2,5.2,0,0,0-1.825,1.388,5.621,5.621,0,0,0-1.071,2.053,8.984,8.984,0,0,0-.349,2.535,8.433,8.433,0,0,0,.361,2.535,5.079,5.079,0,0,0,3.137,3.327,8.067,8.067,0,0,0,2.871.463,8.238,8.238,0,0,0,3.98-.792c.089-.051.171-.133.07-.38l-.52-1.445a.228.228,0,0,0-.3-.139,7.491,7.491,0,0,1-3.245.583,3.226,3.226,0,0,1-3.625-3.555h7.909a.241.241,0,0,0,.228-.209,8.491,8.491,0,0,0-.234-3.4m-71.209,1.654a4.615,4.615,0,0,1,.634-1.87,2.535,2.535,0,0,1,2.263-1.147,2.472,2.472,0,0,1,2.218,1.147,3.954,3.954,0,0,1,.52,1.87Zm7.865-1.654a4.855,4.855,0,0,0-1.014-1.851,4.594,4.594,0,0,0-1.5-1.147,5.743,5.743,0,0,0-2.269-.456,6.193,6.193,0,0,0-2.611.507,5.171,5.171,0,0,0-1.819,1.388,5.622,5.622,0,0,0-1.071,2.053,8.984,8.984,0,0,0-.349,2.535,8.433,8.433,0,0,0,.361,2.535A5.07,5.07,0,0,0,313.943,370a8.094,8.094,0,0,0,2.871.463,8.238,8.238,0,0,0,3.986-.792c.089-.051.171-.133.063-.38l-.513-1.445a.235.235,0,0,0-.3-.139,7.5,7.5,0,0,1-3.251.583,3.232,3.232,0,0,1-3.625-3.555h7.909a.234.234,0,0,0,.228-.209,8.359,8.359,0,0,0-.235-3.4m-24.957,6.832a1.547,1.547,0,0,1-.456-.469,1.9,1.9,0,0,1-.241-1.027,1.737,1.737,0,0,1,.71-1.534,3.5,3.5,0,0,1,2.294-.57,15.587,15.587,0,0,1,2.142.184v3.593h0a16.343,16.343,0,0,1-2.142.285,3.594,3.594,0,0,1-2.313-.463m3.169-5.558c-.317,0-.735-.038-1.236-.038a7.511,7.511,0,0,0-1.946.254,5.273,5.273,0,0,0-1.654.761,3.911,3.911,0,0,0-1.147,1.306,3.8,3.8,0,0,0-.418,1.825,4.157,4.157,0,0,0,.361,1.806,3.258,3.258,0,0,0,1.033,1.236,4.24,4.24,0,0,0,1.61.7,9.6,9.6,0,0,0,2.091.216,14.335,14.335,0,0,0,2.4-.2c.781-.133,1.732-.323,2-.387l.551-.139a.253.253,0,0,0,.184-.26v-7.288a4.4,4.4,0,0,0-1.268-3.492,5.412,5.412,0,0,0-3.638-1.09,12.4,12.4,0,0,0-2.117.2,7.548,7.548,0,0,0-2.44.887.253.253,0,0,0-.07.317l.564,1.5a.19.19,0,0,0,.254.127.6.6,0,0,0,.133-.063,8.06,8.06,0,0,1,3.448-.8,3.2,3.2,0,0,1,1.952.507c.431.33.634.83.634,1.9v.336c-.678-.1-1.306-.152-1.306-.152m63.788-4.075a.216.216,0,0,0-.114-.285,6.844,6.844,0,0,0-1.325-.228,3.974,3.974,0,0,0-2.041.33,3.568,3.568,0,0,0-1.337.989v-.963a.228.228,0,0,0-.228-.241h-2.028a.228.228,0,0,0-.228.241v11.75a.241.241,0,0,0,.241.241h2.079a.241.241,0,0,0,.241-.241v-5.894a6.971,6.971,0,0,1,.26-2.072,2.967,2.967,0,0,1,.691-1.166,2.535,2.535,0,0,1,.982-.589,3.986,3.986,0,0,1,1.058-.146,4.436,4.436,0,0,1,.868.108.273.273,0,0,0,.292-.215c.133-.361.52-1.445.589-1.66" transform="translate(-103.262 -130.95)" fill="#fff"/>
        <path id="Path_57809" data-name="Path 57809" d="M357.26,349.892a7.466,7.466,0,0,0-.78-.184,5.963,5.963,0,0,0-1.077-.082,4.531,4.531,0,0,0-3.346,1.2,6.515,6.515,0,0,0-1.591,3.593l-.1.532h-1.794a.272.272,0,0,0-.266.228l-.292,1.648c0,.152.044.253.253.253h1.749l-1.768,9.893a12.137,12.137,0,0,1-.475,1.946,4.055,4.055,0,0,1-.551,1.128,1.464,1.464,0,0,1-.729.558,2.967,2.967,0,0,1-.925.133,3.469,3.469,0,0,1-.634-.07,1.726,1.726,0,0,1-.431-.139.222.222,0,0,0-.285.127l-.589,1.61a.241.241,0,0,0,.127.317,6.094,6.094,0,0,0,.722.209,4.6,4.6,0,0,0,1.16.114,5.85,5.85,0,0,0,1.939-.3,3.745,3.745,0,0,0,1.464-1.02,5.305,5.305,0,0,0,1.027-1.768,15.083,15.083,0,0,0,.691-2.655l1.787-10.083h2.6a.266.266,0,0,0,.26-.228l.3-1.648c0-.158-.044-.254-.26-.254h-2.535a10.765,10.765,0,0,1,.418-1.787,2.4,2.4,0,0,1,.551-.843,1.75,1.75,0,0,1,.665-.412,2.751,2.751,0,0,1,.849-.12,3.718,3.718,0,0,1,.634.063l.406.1c.26.076.3,0,.349-.12l.6-1.66a.215.215,0,0,0-.146-.279m-35.313,17.086a.228.228,0,0,1-.228.241h-2.1a.228.228,0,0,1-.222-.241V350.12a.228.228,0,0,1,.222-.241h2.072a.228.228,0,0,1,.228.241Z" transform="translate(-116.969 -128.045)" fill="#fff"/>
        <path id="Path_57810" data-name="Path 57810" d="M344.9,700.07a.583.583,0,0,0,.6-.6v-1.559a.6.6,0,1,0-1.191,0v1.559A.6.6,0,0,0,344.9,700.07Z" transform="translate(-126.096 -255.388)" fill="#4c4c4c"/>
        <path id="Path_57811" data-name="Path 57811" d="M340.049,701.748a.6.6,0,0,0,.849-.849l-1.109-1.109a.6.6,0,1,0-.849.849Z" transform="translate(-124.056 -256.216)" fill="#4c4c4c"/>
        <path id="Path_57812" data-name="Path 57812" d="M348.648,701.879a.634.634,0,0,0,.425-.171l1.1-1.109a.6.6,0,1,0-.849-.849l-1.109,1.109a.6.6,0,0,0,.431,1.02Z" transform="translate(-127.465 -256.202)" fill="#4c4c4c"/>
        <path id="Path_57813" data-name="Path 57813" d="M337.134,713.345h2.1v-1.223h-1.5v-5.951h8.594v5.951h-1.477v1.223h2.11a.634.634,0,0,0,.634-.634v-7.168a.634.634,0,0,0-.634-.634h-9.823a.634.634,0,0,0-.634.634v7.174A.634.634,0,0,0,337.134,713.345Z" transform="translate(-123.239 -258.168)" fill="#4c4c4c"/>
        <path id="Path_57814" data-name="Path 57814" d="M351.659,720.379a1.515,1.515,0,0,0-1.5-1.5,1.54,1.54,0,0,0-1.268.71h0a1.5,1.5,0,0,0-2.757-.8h0a1.515,1.515,0,0,0-1.5-1.5,1.534,1.534,0,0,0-1.268.7V712.97a1.5,1.5,0,0,0-.45-1.046,1.451,1.451,0,0,0-1.052-.425h0a1.508,1.508,0,0,0-1.5,1.5v9.247a.216.216,0,0,1-.139.2.184.184,0,0,1-.228-.057l-1.464-1.584a1.514,1.514,0,0,0-1.9-.171,1.457,1.457,0,0,0-.634,1.052,1.547,1.547,0,0,0,.342,1.192l3.771,4.563a5.571,5.571,0,0,0,4.341,2.047H346.8a4.943,4.943,0,0,0,4.937-4.937Z" transform="translate(-123.048 -260.581)" fill="#4c4c4c"/>
        <path id="Path_57815" data-name="Path 57815" d="M462.032,898.083H449.7a1.5,1.5,0,0,0-1.5,1.489v18.005a1.5,1.5,0,0,0,1.5,1.489h12.333a1.5,1.5,0,0,0,1.489-1.489V899.573A1.5,1.5,0,0,0,462.032,898.083Zm-.38,16.833a.577.577,0,1,1,0,1.153h-4.214a.577.577,0,1,1,0-1.153Zm-1.7,1.66a.577.577,0,1,1,0,1.154h-.8a.577.577,0,1,1,0-1.154Zm-8.873.818a.578.578,0,0,1-.818-.818l1.084-1.084-1.084-1.084a.577.577,0,0,1,.818-.811l1.084,1.084,1.084-1.084a.577.577,0,0,1,.811.811l-1.084,1.084,1.084,1.084a.577.577,0,0,1-.811.818l-1.084-1.084Zm8.873-4.132a.577.577,0,1,1,0,1.153h-.8a.577.577,0,0,1,0-1.154Zm1.7-4.823a.577.577,0,1,1,0,1.153h-1.527v1.534a.577.577,0,0,1-1.154,0v-1.534h-1.534a.577.577,0,1,1,0-1.154h1.534v-1.534a.577.577,0,0,1,1.154,0v1.534Zm-11.579,1.154a.577.577,0,1,1,0-1.154h4.214a.577.577,0,1,1,0,1.153Zm0-10.356h11.579a.577.577,0,0,1,.577.577V905a.577.577,0,0,1-.577.577H450.073A.577.577,0,0,1,449.5,905v-5.184a.577.577,0,0,1,.577-.577Zm11.008,1.153H450.65v4.031h10.432Zm-11.408-3.46h12.333a2.643,2.643,0,0,1,2.643,2.643v18.005a2.643,2.643,0,0,1-2.643,2.643H449.7a2.649,2.649,0,0,1-2.649-2.643V899.573a2.649,2.649,0,0,1,2.649-2.643Z" transform="translate(-163.727 -328.494)" fill="#4c4c4c"/>
        <path id="Path_57816" data-name="Path 57816" d="M390.732,822.987h14.576a2.338,2.338,0,0,0,2.332-2.339V803.677a2.339,2.339,0,0,0-2.332-2.339h-1.952a.564.564,0,0,0-.33-.456l-2.383-1.033a2.795,2.795,0,0,0-5.311,0l-2.5,1.039a.558.558,0,0,0-.336.463h-1.787a2.339,2.339,0,0,0-2.313,2.326v17a2.339,2.339,0,0,0,2.332,2.313Zm2.89-21.256,2.4-.995a.564.564,0,0,0,.323-.387,1.692,1.692,0,0,1,3.308,0,.564.564,0,0,0,.323.393l2.288,1v1.648h-8.644Zm-4.113,1.9a1.23,1.23,0,0,1,1.223-1.229h1.787v1.508a.551.551,0,0,0,.551.558h9.754a.551.551,0,0,0,.551-.558v-1.5h1.958a1.23,1.23,0,0,1,1.223,1.23v17a1.23,1.23,0,0,1-1.223,1.229H390.758a1.23,1.23,0,0,1-1.223-1.229Z" transform="translate(-142.247 -292.234)" fill="#4c4c4c"/>
        <path id="Path_57817" data-name="Path 57817" d="M393.983,828.687h11.737a.558.558,0,1,0,0-1.109H393.983a.558.558,0,1,0,0,1.109Z" transform="translate(-144.066 -303.093)" fill="#4c4c4c"/>
        <path id="Path_57818" data-name="Path 57818" d="M393.983,821.937h11.737a.558.558,0,1,0,0-1.109H393.983a.558.558,0,1,0,0,1.109Z" transform="translate(-144.066 -300.621)" fill="#4c4c4c"/>
        <path id="Path_57819" data-name="Path 57819" d="M393.983,815.177h11.737a.558.558,0,1,0,0-1.109H393.983a.558.558,0,1,0,0,1.109Z" transform="translate(-144.066 -298.145)" fill="#4c4c4c"/>
        <path id="Path_57820" data-name="Path 57820" d="M302.906,805.326h2.63v-.856h-4.291v4.291h.856v-2.985a9.443,9.443,0,0,1-1.9,15.787l.374.773a10.3,10.3,0,0,0,2.332-17.01Z" transform="translate(-109.944 -294.631)" fill="#4c4c4c"/>
        <path id="Path_57821" data-name="Path 57821" d="M296.456,833.337a9.685,9.685,0,0,0,1.344-.33l-.26-.817a10.233,10.233,0,0,1-1.23.3Z" transform="translate(-108.52 -304.783)" fill="#4c4c4c"/>
        <path id="Path_57822" data-name="Path 57822" d="M292.3,833.748c.3,0,.6.038.9.038h.444l-.038-.856a10,10,0,0,1-1.229,0Z" transform="translate(-107.051 -305.054)" fill="#4c4c4c"/>
        <path id="Path_57823" data-name="Path 57823" d="M288.06,832.8a10.849,10.849,0,0,0,1.344.393l.184-.836a10.482,10.482,0,0,1-1.229-.361Z" transform="translate(-105.498 -304.713)" fill="#4c4c4c"/>
        <path id="Path_57824" data-name="Path 57824" d="M277.46,812.635a10.292,10.292,0,0,0,3.486,7.726h-2.63v.862h4.3v-4.3h-.862v2.991a9.443,9.443,0,0,1,1.9-15.793l-.374-.773A10.362,10.362,0,0,0,277.46,812.635Z" transform="translate(-101.616 -294.221)" fill="#4c4c4c"/>
        <path id="Path_57825" data-name="Path 57825" d="M290.114,802a10.694,10.694,0,0,0-1.344.336l.26.818a8.3,8.3,0,0,1,1.23-.3Z" transform="translate(-105.758 -293.726)" fill="#4c4c4c"/>
        <path id="Path_57826" data-name="Path 57826" d="M294.268,802.662l.076-.855a9.509,9.509,0,0,0-1.344,0l.038.855A8.907,8.907,0,0,1,294.268,802.662Z" transform="translate(-107.307 -293.647)" fill="#4c4c4c"/>
        <path id="Path_57827" data-name="Path 57827" d="M298.487,802.539a9.894,9.894,0,0,0-1.344-.4l-.184.843a9.388,9.388,0,0,1,1.23.361Z" transform="translate(-108.758 -293.778)" fill="#4c4c4c"/>
        <line id="Line_25" data-name="Line 25" x2="4.474" transform="translate(184.089 518.775)" fill="#4c4c4c"/>
        <path id="Path_57828" data-name="Path 57828" d="M294.794,818.714H290.32a.323.323,0,0,1,0-.634h4.474a.323.323,0,0,1,0,.634Z" transform="translate(-106.231 -299.615)" fill="#4c4c4c"/>
        <line id="Line_26" data-name="Line 26" y2="4.468" transform="translate(186.326 516.538)" fill="#4c4c4c"/>
        <path id="Path_57829" data-name="Path 57829" d="M293.813,819.667a.323.323,0,0,1-.323-.323V814.85a.323.323,0,0,1,.634,0v4.468a.323.323,0,0,1-.311.348Z" transform="translate(-107.487 -298.337)" fill="#4c4c4c"/>
        <path id="Path_57830" data-name="Path 57830" d="M352.957,914.093c0-2.6-1.819-4.633-4.867-5.412h0V900.3a4.785,4.785,0,0,1,3.555,1.838.728.728,0,1,0,1.172-.862,6.255,6.255,0,0,0-4.734-2.427v-2.123a.741.741,0,1,0-1.477,0v2.225a5.761,5.761,0,0,0-4.886,5.482,5.425,5.425,0,0,0,3.061,4.836,10.4,10.4,0,0,0,1.825.6v8.365a4.785,4.785,0,0,1-3.555-1.838.738.738,0,1,0-1.179.887,6.255,6.255,0,0,0,4.734,2.427v2.155a.742.742,0,0,0,1.477,0V919.6A5.761,5.761,0,0,0,352.957,914.093Zm-7.605-6.2a3.9,3.9,0,0,1-2.193-3.492,4.253,4.253,0,0,1,3.41-3.974v7.878a8.109,8.109,0,0,1-1.191-.412Zm2.693,10.14v-7.821c1.268.38,3.41,1.4,3.41,3.879a4.252,4.252,0,0,1-3.384,3.974Z" transform="translate(-125.151 -328.121)" fill="#4c4c4c"/>
        <path id="Path_57831" data-name="Path 57831" d="M245.716,913.129a2.535,2.535,0,0,0-1.451.469l-6.16-4.107a3.49,3.49,0,0,0,.063-.564,2.5,2.5,0,1,0-4.994,0,2.535,2.535,0,0,0,.349,1.268l-4.17,6.255a1.541,1.541,0,0,0-.38-.032,2.423,2.423,0,0,0-1.071.254l-3.353-3.352a2.4,2.4,0,0,0,.253-1.071,2.516,2.516,0,1,0-2.541,2.5,2.453,2.453,0,0,0,1.077-.254l3.378,3.378a2.451,2.451,0,0,0-.254,1.077,2.5,2.5,0,1,0,4.994,0,2.4,2.4,0,0,0-.634-1.673l3.98-6.008a2.419,2.419,0,0,0,.856.158,2.536,2.536,0,0,0,1.546-.532l6.065,4.043a2.369,2.369,0,0,0-.1.634,2.5,2.5,0,1,0,4.994,0A2.465,2.465,0,0,0,245.716,913.129Z" transform="translate(-80.487 -331.973)" fill="#4c4c4c"/>
        <text id="CPQ" transform="translate(181.358 395.591)" fill="#00a1e0" font-size="36" font-family="Neue Helvetica" font-weight="500"><tspan x="0" y="0">CPQ</tspan></text>
        <g id="Group" transform="translate(110.635 432.931)">
          <text id="Select_" data-name="Select &amp;" transform="translate(6.019 14)" fill="#4f4f4f" font-size="13" font-family="Poppins" font-weight="500"><tspan x="0" y="0">Select &amp;</tspan></text>
          <text id="Configure-2" data-name="Configure" transform="translate(0 35.069)" fill="#4f4f4f" font-size="13" font-family="Poppins" font-weight="500"><tspan x="0" y="0">Configure</tspan></text>
        </g>
        <g id="Group-2" data-name="Group" transform="translate(87.008 497.641)">
          <text id="Order" transform="translate(8.527 15)" fill="#4f4f4f" font-size="14" font-family="Poppins" font-weight="500"><tspan x="0" y="0">Order</tspan></text>
          <text id="_Renew" data-name="&amp; Renew" transform="translate(0 36.102)" fill="#4f4f4f" font-size="13" font-family="Poppins" font-weight="500"><tspan x="0" y="0">&amp; Renew</tspan></text>
        </g>
        <g id="Group-3" data-name="Group" transform="translate(35.393 561.072)">
          <text id="Analyze_" data-name="Analyze " transform="translate(8.026 15)" fill="#4f4f4f" font-size="14" font-family="Poppins" font-weight="500"><tspan x="0" y="0">Analyze </tspan></text>
          <text id="_Forecast" data-name="&amp; Forecast" transform="translate(0 37.111)" fill="#4f4f4f" font-size="14" font-family="Poppins" font-weight="500"><tspan x="0" y="0">&amp; Forecast</tspan></text>
        </g>
        <g id="Group-4" data-name="Group" transform="translate(297.761 499.169)">
          <text id="Propose" transform="translate(10 15)" fill="#4f4f4f" font-size="14" font-family="Poppins" font-weight="500"><tspan x="0" y="0">Propose</tspan></text>
          <text id="_Contract" data-name="&amp; Contract" transform="translate(0 35.064)" fill="#4f4f4f" font-size="14" font-family="Poppins" font-weight="500"><tspan x="0" y="0">&amp; Contract</tspan></text>
        </g>
        <g id="Group-5" data-name="Group" transform="translate(337.829 556.614)">
          <text id="Price-2" data-name="Price" transform="translate(11.5 15.064)" fill="#4f4f4f" font-size="14" font-family="Poppins" font-weight="500"><tspan x="0" y="0">Price</tspan></text>
          <text id="_Quote" data-name="&amp; Quote" transform="translate(0 35.065)" fill="#4f4f4f" font-size="14" font-family="Poppins" font-weight="500"><tspan x="0" y="0">&amp; Quote</tspan></text>
        </g>
        <g id="Group-6" data-name="Group" transform="translate(204.108 610.262)">
          <text id="Bill_" data-name="Bill &amp;" transform="translate(0 15)" fill="#4f4f4f" font-size="14" font-family="Poppins" font-weight="500"><tspan x="0" y="0">Bill &amp;</tspan></text>
          <text id="Collect" transform="translate(-7.5 37.07)" fill="#4f4f4f" font-size="14" font-family="Poppins" font-weight="500"><tspan x="0" y="0">Collect</tspan></text>
        </g>
        <path id="Path_57832" data-name="Path 57832" d="M607,252.753a3.733,3.733,0,0,1,2.339,1.9,60.093,60.093,0,0,1,9.088.507c1.819.247,3.593.57,5.324.982a3.733,3.733,0,0,1,4.867-1.692l.78-.951a39.6,39.6,0,0,1,10.514-9.189,29.5,29.5,0,0,0-31.758.9A36.187,36.187,0,0,0,607,252.753Z" transform="translate(-222.307 -87.938)" fill="#329345"/>
        <path id="Path_57833" data-name="Path 57833" d="M649.988,286.7a3.727,3.727,0,0,1,.539-4.05,41.7,41.7,0,0,0-15.35-10.514,3.7,3.7,0,0,1-2.725,1.179,3.429,3.429,0,0,1-.577-.044A99.584,99.584,0,0,0,621.64,297.9a3.805,3.805,0,0,1,.8,1.115c.779-.038,1.565-.089,2.37-.171A39.293,39.293,0,0,0,649.988,286.7Z" transform="translate(-227.669 -99.669)" fill="#e7bc04"/>
        <path id="Path_57834" data-name="Path 57834" d="M644.5,258.348c-.234.285-.482.583-.722.9a3.721,3.721,0,0,1,.463,2.4A44.421,44.421,0,0,1,660.6,272.994a3.44,3.44,0,0,1,.856-.1,3.652,3.652,0,0,1,.989.133,60.355,60.355,0,0,0,4.436-7.174A29.483,29.483,0,0,0,655.53,249C654.484,249.488,649.858,251.909,644.5,258.348Z" transform="translate(-235.778 -91.194)" fill="#329345"/>
        <path id="Path_57835" data-name="Path 57835" d="M614.445,293.2a104.156,104.156,0,0,1,5.146-13.943,79.573,79.573,0,0,1,4.88-9.107,3.684,3.684,0,0,1-1.014-2.047q-2.535-.6-5.184-.963a57.858,57.858,0,0,0-8.511-.494,3.733,3.733,0,0,1-2.611,2.972c.032.4.07.8.114,1.223A65.03,65.03,0,0,0,614.445,293.2Z" transform="translate(-222.362 -97.654)" fill="#e7bc04"/>
        <path id="Path_57836" data-name="Path 57836" d="M620.236,321.13a3.7,3.7,0,0,1-1.68.982q-.513,2.212-.976,4.557a29.508,29.508,0,0,0,8.137,1.984C623.8,326.276,621.953,323.728,620.236,321.13Z" transform="translate(-226.182 -117.611)" fill="#d33638"/>
        <path id="Path_57837" data-name="Path 57837" d="M597.706,259.351A3.72,3.72,0,0,1,600,257.012a44.733,44.733,0,0,1,.634-5.482,29.56,29.56,0,0,0-6.724,8.435C594.873,259.775,596.16,259.547,597.706,259.351Z" transform="translate(-217.513 -92.121)" fill="#3367a5"/>
        <path id="Path_57838" data-name="Path 57838" d="M603.638,297.141a3.732,3.732,0,0,1,2.212-1.825,65.54,65.54,0,0,1-3.086-6.407,62.383,62.383,0,0,1-4.506-17.638c-.051-.456-.089-.913-.12-1.35a3.739,3.739,0,0,1-2.4-2.421,47.561,47.561,0,0,0-5.007.913,29.584,29.584,0,0,0,1.971,26.415A46.264,46.264,0,0,0,603.638,297.141Z" transform="translate(-215.536 -97.97)" fill="#3367a5"/>
        <path id="Path_57839" data-name="Path 57839" d="M655.973,297.757a3.739,3.739,0,0,1-1.717.418,3.693,3.693,0,0,1-1.825-.475,43.733,43.733,0,0,1-7.954,6.528,41.936,41.936,0,0,1-18.639,6.293c-.577.057-1.154.1-1.718.133a88.369,88.369,0,0,0,6.971,9.6,29.5,29.5,0,0,0,27.3-18.487C657.633,300.355,656.828,299.025,655.973,297.757Z" transform="translate(-228.577 -109.03)" fill="#d33638"/>
        <path id="Path_57840" data-name="Path 57840" d="M676.2,285.992a3.745,3.745,0,0,1,.463,4.031q.932,1.35,1.794,2.789a29.445,29.445,0,0,0,1.147-8.169,28.756,28.756,0,0,0-.216-3.562,58.4,58.4,0,0,1-3.188,4.912Z" transform="translate(-247.651 -102.943)" fill="#d33638"/>
        <path id="Path_57841" data-name="Path 57841" d="M609.006,319.833a3.707,3.707,0,0,1-2.136-2.839,51.58,51.58,0,0,1-8.461-1.534,29.616,29.616,0,0,0,9.83,8.074C608.474,322.3,608.734,321.069,609.006,319.833Z" transform="translate(-219.161 -115.535)" fill="#3367a5"/>
        <path id="Path_57842" data-name="Path 57842" d="M625.152,226.558l-4.126,5.14a36.46,36.46,0,0,0-45.472,7.928l-4.664-4.506-4.436-4.436a48.444,48.444,0,0,0-3.676,58.977l-4.848,4.436a54.934,54.934,0,0,1,8.676-72.755l4.512,4.683,4.576,4.386a42.31,42.31,0,0,1,27.435-9.912,42.861,42.861,0,0,1,22.023,6.059Z" transform="translate(-200.691 -80.756)" fill="#3367a5"/>
        <path id="Path_57843" data-name="Path 57843" d="M641.484,319.038a54.947,54.947,0,0,1-72.458-8.993l4.614-4.88,4.227-4.842a41.194,41.194,0,0,1-3.213-49.433l4.918,4.4a34.6,34.6,0,0,0-5.159,18.183,34.965,34.965,0,0,0,12.339,26.586l-4.012,5.127-4.177,4.88a47.922,47.922,0,0,0,58.547,4.094Z" transform="translate(-207.992 -91.886)" fill="#e7bc04"/>
        <path id="Path_57844" data-name="Path 57844" d="M659.333,254.826a41.131,41.131,0,0,1-6.9,22.815l-4.924-4.36a34.616,34.616,0,0,0,5.317-18.449,35,35,0,0,0-12.96-27.106l4.246-4.785,4.145-4.721a48.482,48.482,0,0,0-58.642-3.448l-4.31-4.924a55.189,55.189,0,0,1,72.432,8.359l-4.563,4.836-4.151,4.576A40.561,40.561,0,0,1,659.333,254.826Z" transform="translate(-214.364 -73.248)" fill="#329345"/>
        <path id="Path_57845" data-name="Path 57845" d="M676.6,268.276a54.928,54.928,0,0,1-19.013,41.587l-4.335-4.842-4.367-4.823a43.038,43.038,0,0,1-50.219,3.017l4.031-5.159a36.314,36.314,0,0,0,19.013,5.324,37.29,37.29,0,0,0,27.537-12.593l4.557,4.7,4.379,4.626a48.438,48.438,0,0,0,3.169-59.573l4.836-4.436A54.745,54.745,0,0,1,676.6,268.276Z" transform="translate(-219.257 -86.47)" fill="#d33638"/>
        <circle id="Ellipse_2216" data-name="Ellipse 2216" cx="49.116" cy="49.116" r="49.116" transform="translate(353.448 132.981)" fill="#efefef"/>
        <path id="Path_57846" data-name="Path 57846" d="M675.681,282.023l-7.941-6.933,2.028-2.288a1.305,1.305,0,0,1,.919-.412h0a1.122,1.122,0,0,1,.779.317l6.116,5.343a1.324,1.324,0,0,1,.418.925,1.134,1.134,0,0,1-.336.8Zm-5.875-7.066,5.754,5.032.9-1.014-5.755-5.032Zm6.826,3.8Z" transform="translate(-244.553 -99.761)" fill="#1554bb"/>
        <path id="Path_57847" data-name="Path 57847" d="M636.31,307.951l1.844-10.14.127-.152L655.494,278l7.941,6.933-17.346,19.843Zm3.169-9.468-1.337,7.339,7.1-2.313,16.129-18.455-5.761-5.026Zm6.173,5.653Z" transform="translate(-233.042 -101.815)" fill="#1554bb"/>
        <path id="Path_57848" data-name="Path 57848" d="M646.713,316.087a.716.716,0,0,1-.475-.177l-6.851-5.983a.723.723,0,0,1,.951-1.09l6.851,5.983a.723.723,0,0,1-.475,1.268Z" transform="translate(-234.078 -113.044)" fill="#1554bb"/>
        <path id="Path_57849" data-name="Path 57849" d="M624.555,300.831H608.54V257.52h31.124l5.07,5.07v6.762a.729.729,0,0,1-1.451,0v-6.16l-4.2-4.208h-29.09v40.421h14.576a.722.722,0,0,1,0,1.445Z" transform="translate(-222.871 -94.315)" fill="#1554bb"/>
        <path id="Path_57850" data-name="Path 57850" d="M636.669,259.973a.729.729,0,0,1-.729-.723v-4.633a.729.729,0,0,1,1.451,0v4.633A.723.723,0,0,1,636.669,259.973Z" transform="translate(-232.907 -93.01)" fill="#1554bb"/>
        <path id="Path_57851" data-name="Path 57851" d="M648.582,259.938a.723.723,0,0,1-.722-.723v-4.633a.722.722,0,1,1,1.445,0v4.633a.723.723,0,0,1-.723.723Z" transform="translate(-237.272 -92.974)" fill="#1554bb"/>
        <path id="Path_57852" data-name="Path 57852" d="M624.792,259.938a.723.723,0,0,1-.723-.723v-4.633a.723.723,0,0,1,1.445,0v4.633A.723.723,0,0,1,624.792,259.938Z" transform="translate(-228.559 -92.974)" fill="#1554bb"/>
        <path id="Path_57853" data-name="Path 57853" d="M638.913,278.165H623.7a.722.722,0,1,1,0-1.445h15.21a.723.723,0,0,1,0,1.445Z" transform="translate(-228.16 -101.347)" fill="#1554bb"/>
        <path id="Path_57854" data-name="Path 57854" d="M638.913,295.165H623.7a.722.722,0,1,1,0-1.445h15.21a.722.722,0,0,1,0,1.445Z" transform="translate(-228.16 -107.573)" fill="#1554bb"/>
        <path id="Path_57855" data-name="Path 57855" d="M259.06,52.694a3.733,3.733,0,0,1,2.339,1.9,60.1,60.1,0,0,1,9.088.507,53.016,53.016,0,0,1,5.324.982,3.733,3.733,0,0,1,4.867-1.692l.78-.951a39.494,39.494,0,0,1,10.52-9.189,29.514,29.514,0,0,0-31.764.9,36.185,36.185,0,0,0-1.153,7.542Z" transform="translate(-94.877 -14.668)" fill="#329345"/>
        <path id="Path_57856" data-name="Path 57856" d="M302.018,86.684a3.726,3.726,0,0,1,.539-4.05A41.7,41.7,0,0,0,287.188,72.12a3.7,3.7,0,0,1-2.706,1.191,3.431,3.431,0,0,1-.577-.044A99.584,99.584,0,0,0,273.67,97.895a3.8,3.8,0,0,1,.8,1.115c.78-.038,1.565-.089,2.37-.171A39.293,39.293,0,0,0,302.018,86.684Z" transform="translate(-100.228 -26.413)" fill="#e7bc04"/>
        <path id="Path_57857" data-name="Path 57857" d="M296.582,58.335c-.234.285-.482.583-.723.9a3.707,3.707,0,0,1,.5,1.863,3.545,3.545,0,0,1-.038.526,45.4,45.4,0,0,1,6.591,3.3,44.364,44.364,0,0,1,9.766,8.055,3.442,3.442,0,0,1,.856-.1,3.649,3.649,0,0,1,.989.133,61.22,61.22,0,0,0,4.436-7.174A29.545,29.545,0,0,0,307.584,49C306.533,49.475,301.906,51.9,296.582,58.335Z" transform="translate(-108.355 -17.946)" fill="#329345"/>
        <path id="Path_57858" data-name="Path 57858" d="M266.475,93.18a104.161,104.161,0,0,1,5.146-13.943,79.569,79.569,0,0,1,4.88-9.107,3.72,3.72,0,0,1-1.014-2.047c-1.673-.4-3.4-.722-5.178-.963a58,58,0,0,0-8.518-.494A3.727,3.727,0,0,1,259.18,69.6c.032.4.07.8.114,1.223A65.03,65.03,0,0,0,266.475,93.18Z" transform="translate(-94.921 -24.399)" fill="#e7bc04"/>
        <path id="Path_57859" data-name="Path 57859" d="M272.265,121.11a3.751,3.751,0,0,1-1.679.982q-.513,2.218-.976,4.557a29.508,29.508,0,0,0,8.137,2C275.84,126.256,273.983,123.708,272.265,121.11Z" transform="translate(-98.741 -44.356)" fill="#d33638"/>
        <path id="Path_57860" data-name="Path 57860" d="M249.736,59.331a3.739,3.739,0,0,1,2.294-2.339,44.739,44.739,0,0,1,.634-5.482,29.672,29.672,0,0,0-6.724,8.435C246.9,59.755,248.19,59.527,249.736,59.331Z" transform="translate(-90.072 -18.865)" fill="#3367a5"/>
        <path id="Path_57861" data-name="Path 57861" d="M255.65,97.121a3.752,3.752,0,0,1,2.212-1.825,64.934,64.934,0,0,1-3.105-6.414,62.292,62.292,0,0,1-4.506-17.631c-.051-.456-.089-.913-.12-1.356a3.714,3.714,0,0,1-2.4-2.415,46.953,46.953,0,0,0-5.013.913,29.552,29.552,0,0,0,1.965,26.415A46.6,46.6,0,0,0,255.65,97.121Z" transform="translate(-88.076 -24.714)" fill="#3367a5"/>
        <path id="Path_57862" data-name="Path 57862" d="M308,97.737a3.72,3.72,0,0,1-1.717.418,3.764,3.764,0,0,1-1.825-.475,43.9,43.9,0,0,1-7.947,6.54,41.987,41.987,0,0,1-18.645,6.293c-.577.057-1.153.1-1.717.133a87.6,87.6,0,0,0,6.971,9.6,29.514,29.514,0,0,0,27.3-18.487A46.857,46.857,0,0,0,308,97.737Z" transform="translate(-101.136 -35.775)" fill="#d33638"/>
        <path id="Path_57863" data-name="Path 57863" d="M328.23,85.972A3.746,3.746,0,0,1,328.693,90c.634.9,1.223,1.832,1.794,2.789a29.445,29.445,0,0,0,1.147-8.169,28.756,28.756,0,0,0-.215-3.562A58.427,58.427,0,0,1,328.23,85.972Z" transform="translate(-120.21 -29.688)" fill="#d33638"/>
        <path id="Path_57864" data-name="Path 57864" d="M261.036,119.813a3.72,3.72,0,0,1-2.136-2.839,51.582,51.582,0,0,1-8.461-1.534,29.615,29.615,0,0,0,9.861,8.074Q260.631,121.67,261.036,119.813Z" transform="translate(-91.72 -42.279)" fill="#3367a5"/>
        <path id="Path_57865" data-name="Path 57865" d="M277.172,26.513l-4.119,5.14a36.466,36.466,0,0,0-45.478,7.928l-4.658-4.506-4.474-4.436a48.444,48.444,0,0,0-3.676,58.978l-4.848,4.436a54.953,54.953,0,0,1,8.676-72.736l4.512,4.677,4.576,4.392A42.31,42.31,0,0,1,255.13,20.48a42.861,42.861,0,0,1,22.042,6.033Z" transform="translate(-73.24 -7.5)" fill="#3367a5"/>
        <path id="Path_57866" data-name="Path 57866" d="M293.484,119.018a54.947,54.947,0,0,1-72.458-8.993l4.614-4.88,4.227-4.842a41.194,41.194,0,0,1-3.213-49.433l4.918,4.4a34.6,34.6,0,0,0-5.159,18.183,34.964,34.964,0,0,0,12.339,26.618l-4.012,5.127-4.176,4.88a47.922,47.922,0,0,0,58.547,4.094Z" transform="translate(-80.54 -18.631)" fill="#e7bc04"/>
        <path id="Path_57867" data-name="Path 57867" d="M311.363,54.814a41.2,41.2,0,0,1-6.894,22.823l-4.925-4.368a34.616,34.616,0,0,0,5.317-18.449A35,35,0,0,0,291.9,27.714l4.253-4.785,4.138-4.721A48.483,48.483,0,0,0,241.65,14.76l-4.31-4.924a55.214,55.214,0,0,1,72.432,8.372l-4.563,4.829-4.151,4.582A40.561,40.561,0,0,1,311.363,54.814Z" transform="translate(-86.922 0)" fill="#329345"/>
        <path id="Path_57868" data-name="Path 57868" d="M328.633,68.263A54.928,54.928,0,0,1,309.62,109.85l-4.335-4.842-4.367-4.823a43.038,43.038,0,0,1-50.219,3.029l4.031-5.159a36.314,36.314,0,0,0,19.013,5.324A37.29,37.29,0,0,0,301.28,90.787l4.557,4.7,4.379,4.626a48.438,48.438,0,0,0,3.169-59.573l4.842-4.436a54.744,54.744,0,0,1,10.406,32.163Z" transform="translate(-91.815 -13.221)" fill="#d33638"/>
        <circle id="Ellipse_2217" data-name="Ellipse 2217" cx="49.116" cy="49.116" r="49.116" transform="translate(132.92 6.217)" fill="#efefef"/>
        <path id="Path_57869" data-name="Path 57869" d="M273.188,50.57a1.635,1.635,0,0,0-1.058.475l-27.8,27.809a1.6,1.6,0,0,0,0,2.269h0l20.388,20.42a1.6,1.6,0,0,0,2.275,0h0L294.8,73.721a1.6,1.6,0,0,0,.45-1.375l-2.712-17.7a1.6,1.6,0,0,0-1.337-1.337l-17.688-2.719a1.85,1.85,0,0,0-.323,0Zm.634,3.321,15.711,2.421,2.421,15.7-26.1,26.1L247.749,80Zm8.955,3.574a5.6,5.6,0,1,0,.006,0Zm0,3.213a2.415,2.415,0,1,0,.006,0Zm-16.9,7.276v2a7.567,7.567,0,0,0-.944.209,5.571,5.571,0,0,0-1.743.792,4.539,4.539,0,0,0-1.375,1.565,4.2,4.2,0,0,0,1.9,5.869,24.762,24.762,0,0,0,4,1.268,12.137,12.137,0,0,1,2.535.83,1.154,1.154,0,0,1,.589,1.071,1.775,1.775,0,0,1-.723,1.413,3.745,3.745,0,0,1-2.4.634,3.841,3.841,0,0,1-2.535-.722,3.169,3.169,0,0,1-1.058-2.117l-.044-.317h-3.372l.082.437a7.108,7.108,0,0,0,2.174,4.259,6.2,6.2,0,0,0,2.89,1.147v2.041h3.213v-2a7.738,7.738,0,0,0,1.99-.539h0a5.178,5.178,0,0,0,2.313-1.9,4.671,4.671,0,0,0,.824-2.63,4.1,4.1,0,0,0-.691-2.408,4.189,4.189,0,0,0-1.851-1.489h0a30.539,30.539,0,0,0-3.828-1.172c-1.268-.342-2.034-.577-2.244-.634a1.952,1.952,0,0,1-.818-.558h0a1,1,0,0,1-.241-.634,1.324,1.324,0,0,1,.634-1.09,3.9,3.9,0,0,1,2.3-.507,3.264,3.264,0,0,1,2.085.577,2.345,2.345,0,0,1,.868,1.6l.044.3h3.27l-.07-.425a7.2,7.2,0,0,0-.982-2.846,4.607,4.607,0,0,0-2.174-1.521,8.167,8.167,0,0,0-1.432-.38V67.954Z" transform="translate(-89.308 -18.521)" fill="#1554bb" opacity="0.8"/>
        <path id="Path_57870" data-name="Path 57870" d="M301.817,72.365a5.539,5.539,0,1,1,3.934-1.62A5.533,5.533,0,0,1,301.817,72.365Zm0-7.966a2.434,2.434,0,1,0,2.459,2.415A2.434,2.434,0,0,0,301.817,64.4Z" transform="translate(-108.52 -22.451)" fill="#1554bb"/>
        <rect id="Rectangle_40142" data-name="Rectangle 40142" width="54.82" height="46.1" rx="13.51" transform="translate(193.108 432.933)" fill="none" stroke="#1554bb" stroke-width="5"/>
        <rect id="Rectangle_40143" data-name="Rectangle 40143" width="54.82" height="46.1" rx="13.51" transform="translate(158.885 495.041)" fill="none" stroke="#329345" stroke-width="5"/>
        <rect id="Rectangle_40144" data-name="Rectangle 40144" width="54.82" height="46.1" rx="13.51" transform="translate(124.662 557.149)" fill="none" stroke="#e7bc04" stroke-width="5"/>
        <rect id="Rectangle_40145" data-name="Rectangle 40145" width="54.82" height="46.1" rx="13.51" transform="translate(195.009 557.149)" fill="none" stroke="#329345" stroke-width="5"/>
        <rect id="Rectangle_40146" data-name="Rectangle 40146" width="54.82" height="46.1" rx="13.51" transform="translate(264.722 557.149)" fill="none" stroke="#1554bb" stroke-width="5"/>
        <rect id="Rectangle_40147" data-name="Rectangle 40147" width="54.82" height="46.1" rx="13.51" transform="translate(228.598 495.041)" fill="none" stroke="#d33638" stroke-width="5"/>
      </g>
    </g>
    <circle id="Ellipse_2218" data-name="Ellipse 2218" cx="121.5" cy="121.5" r="121.5" transform="translate(1799 192)" fill="#1554bb" opacity="0.09"/>
    <circle id="Ellipse_2220" data-name="Ellipse 2220" cx="70.5" cy="70.5" r="70.5" transform="translate(1843 511)" fill="#e8bd1f" opacity="0.07"/>
    <circle id="Ellipse_2219" data-name="Ellipse 2219" cx="30.5" cy="30.5" r="30.5" transform="translate(1750 435)" fill="#279163" opacity="0.04"/>
  </g>
</svg>
