<svg xmlns="http://www.w3.org/2000/svg" width="122" height="122" viewBox="0 0 122 122"><defs><style>.a{fill:#fff;}.b{fill:#1a73e8;}</style></defs><g transform="translate(-1382 -1243)"><circle class="a" cx="61" cy="61" r="61" transform="translate(1382 1243)"/><g transform="translate(1409.998 1271.001)"><path class="b" d="M13.237,12.651a6.916,6.916,0,0,0-6.915,6.915v17.3a6.915,6.915,0,1,0,13.83,0v-17.3a6.919,6.919,0,0,0-6.915-6.915Z" transform="translate(10.827 21.488)"/><path class="b" d="M.019,19.569a6.92,6.92,0,0,0,13.841,0v-6.92H6.939a6.922,6.922,0,0,0-6.92,6.92Z" transform="translate(0.03 21.672)"/><path class="b" d="M13.249,0H13.24a6.92,6.92,0,0,0,0,13.841h6.915V6.906A6.909,6.909,0,0,0,13.249,0Z" transform="translate(10.824 0)"/><path class="b" d="M6.922,20.165h17.33a6.92,6.92,0,0,0,0-13.841H6.922a6.92,6.92,0,0,0,0,13.841Z" transform="translate(0 10.836)"/><path class="b" d="M25.846,6.323a6.905,6.905,0,0,0-6.907,6.907v6.934h6.915a6.92,6.92,0,0,0,0-13.841Z" transform="translate(32.442 10.834)"/><path class="b" d="M12.641,6.916V24.265a6.915,6.915,0,1,0,13.83,0V6.916a6.915,6.915,0,0,0-13.83,0Z" transform="translate(21.653 0.003)"/><path class="b" d="M26.47,25.87a6.916,6.916,0,0,0-6.915-6.915H12.64v6.92a6.915,6.915,0,0,0,13.83-.005Z" transform="translate(21.652 32.476)"/><path class="b" d="M36.888,12.649H19.558a6.92,6.92,0,0,0,0,13.841h17.33a6.92,6.92,0,1,0,0-13.841Z" transform="translate(21.46 21.672)"/></g></g></svg>