<svg xmlns="http://www.w3.org/2000/svg" width="24" height="25.679" viewBox="0 0 24 25.679"><defs><style>.a{fill:#f9ab31;}</style></defs><g transform="translate(-18.5 -16.5)"><path class="a" d="M49.308,35.5A1.109,1.109,0,0,0,48.2,36.608v5.541a1.1,1.1,0,0,0,.611.994l4.165,2.14a1.177,1.177,0,0,0,.5.115,1.109,1.109,0,0,0,.5-2.1l-3.554-1.834V36.608A1.109,1.109,0,0,0,49.308,35.5Z" transform="translate(-18.351 -11.739)"/><path class="a" d="M41.16,24.219H41.2a1.206,1.206,0,0,0,.726-.267.962.962,0,0,0,.344-.764l.229-4.738a1.109,1.109,0,0,0-2.216-.076l-.076,1.681a12.835,12.835,0,1,0,1.834,16.393,1.1,1.1,0,0,0-1.834-1.223,10.64,10.64,0,1,1-1.223-13.26L36.46,21.85a1.109,1.109,0,1,0-.076,2.216Z"/></g></svg>