<svg xmlns="http://www.w3.org/2000/svg" xmlns:xlink="http://www.w3.org/1999/xlink" width="753.04" height="570.938" viewBox="0 0 753.04 570.938"><defs><style>.a,.w{fill:#f1c618;}.a,.f{opacity:0.1;}.b{fill:#3a3768;}.c{fill:#d48a9b;}.d{opacity:0.05;}.e{fill:#efc6cd;}.g{fill:#fff;}.h{fill:#d3dae1;}.i{fill:url(#a);}.j{fill:#585b8a;}.k{opacity:0.2;}.l{fill:#636992;}.m{fill:#ffd6d6;}.n{fill:#dce6f2;}.o{fill:#565988;}.p{fill:#505484;}.q{fill:#575988;}.r{fill:#d28690;}.s{fill:#575989;}.t{fill:#353045;}.u{fill:#f0f3f7;}.v{fill:#663d5c;}.x{opacity:0.3;}.y{opacity:0.15;}.z{fill:#ffd037;}.aa{fill:#65617d;}.ab{fill:#9d9cb5;}.ac{fill:#4b4770;}.ad{fill:#d4dfec;}</style><linearGradient id="a" x1="0.5" y1="1" x2="0.5" gradientUnits="objectBoundingBox"><stop offset="0" stop-color="gray" stop-opacity="0.251"/><stop offset="0.54" stop-color="gray" stop-opacity="0.122"/><stop offset="1" stop-color="gray" stop-opacity="0.102"/></linearGradient></defs><g transform="translate(-0.291 -0.792)"><path class="a" d="M819.226,202.743c-.131.614-.255,1.228-.4,1.835A197.379,197.379,0,0,1,795.9,264.035c-.366.614-.731,1.228-1.1,1.842a170.861,170.861,0,0,1-25.84,32.616c-5.478,5.41-11.454,10.55-18.561,14.255-9.956,5.2-21.6,7.314-33.037,9.039-11.882,1.8-23.929,3.305-35.942,4.927q-6.4.849-12.73,1.8c-11.606,1.718-23.129,3.705-34.375,6.341a201.53,201.53,0,0,0-40.109,13.5q-1.525.69-3.015,1.463c-.994.5-1.994,1-2.974,1.511s-1.946,1.021-2.9,1.546c-.5.269-.994.538-1.484.821s-.973.531-1.449.807c-1.435.8-2.843,1.621-4.25,2.449l-.055.034c-.931.545-1.849,1.1-2.76,1.663-5.2,3.16-10.295,6.458-15.387,9.777l-3.2,2.07-4.961,3.208c-.966.628-1.953,1.256-2.926,1.877-.69.455-1.38.911-2.132,1.38-3.616,2.277-7.279,4.513-11.04,6.645-.89.511-1.787,1.021-2.691,1.518a152.929,152.929,0,0,1-23.75,10.709l-.11.041a108.337,108.337,0,0,1-12.613,3.56c-2.463.538-4.933.98-7.431,1.318a79.669,79.669,0,0,1-20.148.283c-13.158-1.525-25.488-6.576-38.639-8.28-27.075-3.45-53.371,7.666-78.832,16.373q-9.391,3.209-18.92,6.01c-4.223,1.249-8.459,2.429-12.73,3.567a479.021,479.021,0,0,1-79.832,14,224.84,224.84,0,0,1-33.913.752,124.533,124.533,0,0,1-12.723-1.38c-14.283-2.208-27.6-6.838-38.35-15.318-8.8-6.962-15.1-16.035-19.9-25.53A111.406,111.406,0,0,1,124.8,360.5c-.262-1.456-.5-2.919-.69-4.381q-.517-3.754-.773-7.549a108.046,108.046,0,0,1,4.747-39.916c4.554-14.435,12.144-28.29,15.483-42.835q.207-.925.393-1.842a63.777,63.777,0,0,0,1.014-6.686c1.7-17.871-4.83-35.293-9.957-52.771-.179-.607-.359-1.221-.531-1.835q-.828-2.912-1.587-5.817c-4.747-18.478-6.065-38.26-1.835-56.7.131-.614.29-1.228.442-1.835a83.019,83.019,0,0,1,15.608-31.967c7.921-9.936,18.319-18.209,29.428-25.474q8.121-5.313,16.794-9.929,6.21-3.312,12.723-6.272A250.573,250.573,0,0,1,319.845,42.775c2.07.09,4.14.2,6.21.352s4.333.331,6.5.531c25.3,2.456,49.907,8.383,74.347,14.862,8.19,2.173,16.367,4.4,24.536,6.589,3.636.966,7.266,1.932,10.9,2.87,17.809,4.6,35.88,8.77,54.178,11.882q6.355,1.1,12.723,2a364.465,364.465,0,0,0,44.5,3.774q8.687.172,17.381-.152,4.388-.159,8.784-.476c30.256-2.132,59.5-9.267,88.788-15.932q6.355-1.449,12.73-2.857c5.575-1.228,11.15-2.415,16.753-3.512,34.865-6.852,65.942-2.912,98.358,11.226,7.369,3.208,14.731,7.086,19.244,13.11s5.644,13.42,6.486,20.562c1.194,10.17,1.973,20.472,2.27,30.829,0,.607,0,1.221.041,1.835A276.715,276.715,0,0,1,819.226,202.743Z" transform="translate(-75.479 -37.81)"/><path class="a" d="M591.542,264.167h-2.277v1.842h2.581Zm-25.826,0a.118.118,0,0,0,0,.048c-.062.5-.131,1.007-.2,1.518v.276h19.734v-.11l1.38-1.732Zm-52.888,0V204.711h22.7c-.241-.159-.49-.324-.745-.476l-.331-.214-.428-.262c-.248-.145-.5-.29-.759-.428s-.421-.235-.642-.352l-.152-.083H512.827v-3.277l-.531.207-.559.262H511.7l-.117.062-.352.186-.352.186c-.345.186-.69.393-1.035.607l-.331.221-.69.442c-.89.593-1.766,1.214-2.67,1.794-.228.145-.455.29-.69.421-.49.29-.994.566-1.511.814a5.768,5.768,0,0,1-.69.3l-.373.145-.345.117h0a16.164,16.164,0,0,1-2.484.649v58.125H466.018c0,.069.048.124.069.193.186.552.373,1.1.552,1.649H500.1v63.728h.518l.6.034,1.083.062,1.732.207.794.076.862.09h.131l1.525.186.324.041.738.1,1.056.152h0l2.532-.11h0l.345.062a2.4,2.4,0,0,1,.428.069V266.01h52.674v-.276c.069-.511.138-1.014.2-1.518a.117.117,0,0,1,0-.048Zm78.714,0h-2.277v1.842h2.581Zm-27.248,0c-.083.614-.159,1.228-.241,1.842h22l1.5-1.842Zm-51.466,0V204.711h22.7c-.241-.159-.49-.324-.745-.476l-.331-.214-.428-.262c-.248-.145-.5-.29-.759-.428s-.421-.235-.642-.352l-.152-.083H512.827v-3.277l-.531.207-.559.262H511.7l-.117.062-.352.186-.352.186c-.345.186-.69.393-1.035.607l-.331.221-.69.442c-.89.593-1.766,1.214-2.67,1.794-.228.145-.455.29-.69.421-.49.29-.994.566-1.511.814a5.764,5.764,0,0,1-.69.3l-.373.145-.345.117h0a16.16,16.16,0,0,1-2.484.649v58.125H466.018c0,.069.048.124.069.193.186.545.379,1.1.559,1.649H500.1v63.721h.518l.6.034,1.083.062,1.732.214.794.076.862.09h.131l1.525.186.324.041.738.1,1.056.152h0l2.532-.11h0l.345.062a2.4,2.4,0,0,1,.428.069V266.01h51.294c.083-.614.159-1.228.241-1.842Zm172.18-123.812H828.16c0-.614,0-1.228-.041-1.835H685.008V66.333q-6.376,1.38-12.73,2.857v69.33H516.588l-.393-.352.593-.524h0L574.7,85.6q-8.694.331-17.381.152l-44.5,39.978V82q-6.376-.9-12.723-2V123.72L435.038,65.243c-8.17-2.187-16.346-4.416-24.536-6.589l88.478,79.515-.393.352H336.162V43.853q-3.25-.3-6.5-.531c-2.07-.152-4.14-.262-6.21-.352v95.55H209.645V64.877q-6.445,2.953-12.723,6.272V138.52h-61.83c-.152.607-.311,1.221-.442,1.835h62.272v62.52H138.072c.173.614.352,1.228.531,1.835h58.318v59.457H147.546q-.186.918-.393,1.842h49.769v166.24c4.14.642,8.425,1.09,12.723,1.38V266.01H323.432V418.863c4.271-1.139,8.508-2.318,12.73-3.567V266.01H500.1V399.557A108.325,108.325,0,0,0,512.717,396l.11-.041V266.01h159.45v62.637q6.348-.932,12.73-1.787V266.01H798.387c.373-.614.738-1.228,1.1-1.842H685.008V204.711h137.4c.145-.607.269-1.221.4-1.835h-137.8Zm-475.363,0H323.432v62.52H209.645Zm0,123.812V204.711H323.432v59.457ZM336.162,140.355H500.1v62.52H336.162Zm0,123.812V204.711H500.1v59.457Zm336.115,0H512.827V204.711h159.45Zm0-61.292H512.827V142.032l2.236-1.677H672.277ZM565.715,264.167a.118.118,0,0,0,0,.048c-.062.5-.131,1.007-.2,1.518v.276h19.734v-.11l1.38-1.732Zm25.826,0h-2.277v1.842h2.581Zm-78.714,0V204.711h22.7c-.241-.159-.49-.324-.745-.476l-.331-.214-.428-.262c-.248-.145-.5-.29-.759-.428s-.421-.235-.642-.352l-.152-.083H512.827v-3.277l-.531.207-.559.262H511.7l-.117.062-.352.186-.352.186c-.345.186-.69.393-1.035.607l-.331.221-.69.442c-.89.593-1.766,1.214-2.67,1.794-.228.145-.455.29-.69.421-.49.29-.994.566-1.511.814a5.768,5.768,0,0,1-.69.3l-.373.145-.345.117h0a16.164,16.164,0,0,1-2.484.649v58.125H466.018c0,.069.048.124.069.193.186.552.373,1.1.552,1.649H500.1v63.728h.518l.6.034,1.083.062,1.732.207.794.076.862.09h.131l1.525.186.324.041.738.1,1.056.152h0l2.532-.11h0l.345.062a2.4,2.4,0,0,1,.428.069V266.01h52.674v-.276c.069-.511.138-1.014.2-1.518a.117.117,0,0,1,0-.048Z" transform="translate(-79.065 -37.943)"/><path class="a" d="M320.739,119.972h.987a2,2,0,0,1-1.207-1.608h0c0-1.27,1.9-2.3,4.216-2.3h29.5c2.318,0,4.209,1.035,4.209,2.3h0c0,1.263-1.891,2.3-4.209,2.3h-.987a1.98,1.98,0,0,1,1.207,1.6c0,1.083-1.38,1.994-3.222,2.236h8.494c2.311,0,4.209,1.035,4.209,2.3s-1.9,2.3-4.209,2.3H330.219c-2.311,0-4.209-1.042-4.209-2.3,0-1.083,1.38-1.987,3.222-2.236h-8.494c-2.318,0-4.209-1.035-4.209-2.3S318.421,119.972,320.739,119.972Z" transform="translate(-135.45 -60.602)"/><path class="a" d="M784.179,151.742h.987a2,2,0,0,1-1.2-1.608h0c0-1.27,1.891-2.3,4.209-2.3h29.5c2.318,0,4.216,1.035,4.216,2.3h0c0,1.263-1.9,2.3-4.216,2.3h-.98a2,2,0,0,1,1.2,1.608c0,1.083-1.38,1.994-3.222,2.236h8.494c2.318,0,4.209,1.035,4.209,2.3s-1.891,2.3-4.209,2.3h-29.5c-2.318,0-4.216-1.042-4.216-2.3,0-1.083,1.38-1.994,3.222-2.236h-8.494c-2.311,0-4.209-1.035-4.209-2.3S781.867,151.742,784.179,151.742Z" transform="translate(-279.12 -70.451)"/><path class="a" d="M255.106,287.7h.98a1.994,1.994,0,0,1-1.2-1.608h0c0-1.263,1.9-2.3,4.209-2.3H288.6c2.311,0,4.209,1.042,4.209,2.3h0c0,1.27-1.9,2.3-4.209,2.3h-.987a1.973,1.973,0,0,1,1.2,1.6c0,1.083-1.38,1.994-3.222,2.236h8.494c2.318,0,4.216,1.042,4.216,2.3s-1.9,2.3-4.216,2.3H264.614c-2.318,0-4.209-1.035-4.209-2.3,0-1.076,1.38-1.987,3.222-2.236h-8.521c-2.318,0-4.216-1.035-4.216-2.3S252.815,287.7,255.106,287.7Z" transform="translate(-115.101 -112.599)"/><ellipse class="a" cx="44.822" cy="147.499" rx="44.822" ry="147.499" transform="translate(397.551 405.832) rotate(-78.45)"/><path class="b" d="M828.56,404.786s7.845-38.508,37.8-34.941c0,0,20.7,1.421,24.957,14.973v29.953Z" transform="translate(-294.183 -139.205)"/><path class="c" d="M876.96,395.624,610.23,373.51,576,380.644l2.139,47.782,2.332.283,2.656,71.752,261.734,47.064,27.82-23.536V446.207l3.56-2.091Z" transform="translate(-178.552 -115.774)"/><path class="d" d="M999.239,405.56l-.718,48.493L969.639,467.6l-.359-50.638Z" transform="translate(-300.472 -125.709)"/><path class="d" d="M993.642,478.94l.352,76.313L966.18,578.789l1.787-88.436Z" transform="translate(-299.511 -148.458)"/><path class="d" d="M582.91,456.559,849.3,489.064l.138-6.169L582.71,454.13Z" transform="translate(-180.632 -140.767)"/><path class="d" d="M994.122,481.741v-2.8L967.73,490.587v6.182Z" transform="translate(-299.992 -148.458)"/><path class="e" d="M575.48,380.644l34.231-7.134,266.73,22.114L846.488,407.03Z" transform="translate(-178.391 -115.774)"/><path class="f" d="M961.651,407.55l13.089.856L953.047,414.9,942,414.1Z" transform="translate(-292.015 -126.326)"/><path class="g" d="M961.651,406.72l13.089.856-21.693,6.5-11.047-.8Z" transform="translate(-292.015 -126.069)"/><path class="h" d="M1022.32,444.532c.518-.221,1.063.2,1.615.3.317.062.642,0,.959.062.642.083,1.276.511,1.891.3" transform="translate(-354.251 -162.411)"/><path class="h" d="M1021.34,445.1c.511-.221,1.063.193,1.615.3.317.055.642,0,.959.055.642.09,1.276.518,1.891.3" transform="translate(-353.947 -162.587)"/><path class="h" d="M1019.08,446.241c.518-.221,1.069.193,1.621.3.311.062.642,0,.952.062.649.09,1.283.517,1.891.3" transform="translate(-353.246 -162.941)"/><path class="f" d="M879.651,398.21l13.089.862-21.693,6.493-11.047-.8Z" transform="translate(-266.595 -123.431)"/><path class="g" d="M879.651,397.39l13.089.856-21.693,6.493L860,403.945Z" transform="translate(-266.595 -123.177)"/><path class="h" d="M940.32,435.2c.518-.221,1.063.193,1.615.3.318.055.642,0,.959.055.642.09,1.276.518,1.891.3" transform="translate(-328.83 -159.518)"/><path class="h" d="M939.34,435.771c.511-.221,1.063.193,1.615.3.317.062.642,0,.959.062.642.09,1.276.518,1.891.3" transform="translate(-328.526 -159.695)"/><path class="h" d="M937.08,436.9c.518-.221,1.07.2,1.621.3.31.062.642,0,.952.062.649.083,1.283.518,1.891.3" transform="translate(-327.826 -160.046)"/><path class="f" d="M918.981,402.88l13.1.856-21.693,6.5-11.054-.8Z" transform="translate(-278.787 -124.879)"/><path class="g" d="M918.981,402.06l13.1.856-21.693,6.493-11.054-.8Z" transform="translate(-278.787 -124.624)"/><path class="h" d="M979.65,439.871c.517-.221,1.069.193,1.621.3.311.062.635,0,.952.062.642.083,1.283.517,1.891.3" transform="translate(-341.023 -160.966)"/><path class="h" d="M978.67,440.432c.518-.221,1.07.2,1.622.3.31.062.635,0,.952.062.642.083,1.283.518,1.891.3" transform="translate(-340.719 -161.14)"/><path class="h" d="M976.42,441.571c.511-.221,1.063.193,1.615.3.317.055.642,0,.959.055.642.09,1.276.517,1.891.3" transform="translate(-340.021 -161.493)"/><ellipse class="a" cx="139.709" cy="28.759" rx="139.709" ry="28.759" transform="translate(204.14 488.545)"/><path class="i" d="M654.345,376.5c-1.49-13.1-7.39-25.592-7.39-25.592l.448-4.416s.1-2.208-.048-5.52a25.117,25.117,0,0,1,.807-6.127c1.207-3.829-1.511-8.535-1.815-8.97s.152-8.832-2.567-12.951-20.824-11.778-20.824-11.778-.973-2.035-2.346-4.416l.124-.241a25.942,25.942,0,0,0-4.14-5.582c-1.111-1.187-2.18-1.863-3.043-1.532a24.83,24.83,0,0,1-.8-3.5c.179.048.366.1.545.131a5.63,5.63,0,0,0,2.277.055c1.684-.38,2.8-1.891,3.74-3.312,4.678-7.107,8.708-14.9,9.529-23.315a14.821,14.821,0,0,0-.242-5.147,17.368,17.368,0,0,0-1.615-3.76,30.221,30.221,0,0,0-4.554-6.714c-3.222-3.395-7.666-5.472-12.234-6.7a42.351,42.351,0,0,0-15.8-1.18c-1.38.159-2.76.386-4.14.476a43,43,0,0,1-5.251-.09l-9.032-.524-.041-.138-1.5-.09c-.593,1.18,0,2.581.738,3.685s1.587,2.256,1.525,3.56-1.007,2.353-1.746,3.45-1.3,2.532-.559,3.609a2.069,2.069,0,0,0,.366.4,4.548,4.548,0,0,0,3.319.883h.207a22.473,22.473,0,0,0-4.575,13.607,22.88,22.88,0,0,0,12.482,20.272c.131.448.262.911.386,1.38a42.269,42.269,0,0,1,1.449,14.918l-.159.345-.1-.366s-10.64,7.217-13.8,9.129-6.334,8.39-6.486,10.157-5.134,28.407-5.134,28.407a65.275,65.275,0,0,0-2.5,8.225l-6.355,5.582s-13.11,1.18-16.9.3l.11.731a57.335,57.335,0,0,0-10.184-1.38,10.8,10.8,0,0,0-5.52.738l-.131.062-.1.048a21.872,21.872,0,0,0-5.8,1.628c-.221.09-.421.179-.614.269l.041-.9-14.186-.731-7.245-1.47s-2.567-2.07-4.078-1.766-4.678-1.766-4.678-1.766a12.645,12.645,0,0,0-2.332-1.449c-.242-1.67-.393-2.684-.393-2.684s-5.637-22.37-9.86-35.521c-2.829-8.784-6.9-13.11-9.3-14.994-1.069-1.863-1.773-3.064-1.773-3.064-.462-1.615-3-5.251-3.65-5.341-.1-.166-.179-.248-.221-.248a.807.807,0,0,0-.407.062c-1.187-5.906-1.877-13.31-.062-19.761a21.811,21.811,0,0,0,7.962-16.808v-.587a21.714,21.714,0,0,0-5.127-14.007l-.235-.262a1.834,1.834,0,0,0,.179-.145,3.7,3.7,0,0,0,1.3-3.56c-.311-1.325-1.345-2.367-1.877-3.622a23.46,23.46,0,0,1-.766-2.953,9.108,9.108,0,0,0-2.173-3.788l.1.276a13.112,13.112,0,0,0-11.544-3.878c-3.112.5-6.01,1.946-9.135,2.394-2.242.317-4.526.11-6.783.338a17.6,17.6,0,0,0-6.017,1.739,3.45,3.45,0,0,0-1.276.938,5.05,5.05,0,0,0-.635,1.773c-.766,2.794-3.195,4.789-4.954,7.121a16.663,16.663,0,0,0-3.34,9.2,7.2,7.2,0,0,0,.242,2.518c.152.49.386.952.5,1.449.345,1.518-.449,3.029-.835,4.533a8.825,8.825,0,0,0,.49,5.755c2.726,6.1,11.675,8.135,13.538,14.538a17.809,17.809,0,0,0,4.478,1.38c.124.635.235,1.276.324,1.925a.515.515,0,0,0-.117.069c-2.415,2.353-3.015,6.9-3.015,6.9l-.29.235c-.987.814-4.361,3.547-7.41,5.651-3.622,2.5-9.66,10.895-13.883,13.4s-7.7,17.94-6.79,23.549,4.678,21.341,3.167,27.082,2.263,31.94,2.263,31.94a38.576,38.576,0,0,1,7.4,2.194l-.076,1.145-.228,3.45s-6.838,24.729-4.223,43.766-1.207,21-1.207,21,.8,8.439-1.207,11.385-2.415,9.418-2.415,9.418-.2,14.524.2,18.63.6,11.585-.807,13.351-4.023,13.338-3.823,16.87-5.03,11.585-2.215,21.983-8.28,10.6-8.28,10.6,1.414,15.87,4.43,20.41l.442.649c-.076.262-.152.538-.235.835-1.138,4.14-2.7,10.674-1.615,12.254,1.608,2.36,2.415,1.96,2.415,1.96l.6,10.6s12.075,10.2,21.335,9.819,7.445-9.819,7.445-9.819L414.6,590.713l-.269-.69,8.763-16.56s2.415-7.259,3.015-9.812,3.878-11.6,3.878-11.6,8.28-19.623,8.452-21.983.807-15.1,2.415-17.664,6.037-17.25,6.037-17.25l.11.1a5.817,5.817,0,0,1,1.5,5.789c-1.014,3.726-.407,11.378-.407,11.378a77.406,77.406,0,0,1-1.207,9.819c-.807,3.34-1,30.615.407,37.087,1.125,5.182,1.09,14.883,1.035,18.554-.945,3.9-1.773,8.742-.235,9.315,2.622.987,15.9.787,15.9.787s5.63-1.967,13.282,4.906,31.188-1.959,31.188-1.959,7.245-1.967-7.045-7.652c-9.97-3.968-16.408-6.61-20.617-9.439.1-.186.2-.373.29-.573,0,0-5.837-5.52-1.007-15.3a42.617,42.617,0,0,0,4.63-18.057l.807-32.975-2.415-43.773-1.87-45.94.331-.11c.317,8.446,1.966,28.552,10.6,24.653,10.867-4.906,1.608-17.664,1.608-17.664l-4.878-9.508,1.456-.5L484.9,396.452a39.776,39.776,0,0,1-.207-10.4,41.194,41.194,0,0,0-.124-6.072c7.148-1.249,13.993-2.574,15.221-2.27,1.449.352,9.556.421,12.744.435-1.042.814-1.877,1.621-1.877,1.621L523.64,388.5s4.4-2.408,5.32-4.961a5.727,5.727,0,0,0,2.429-1.3c.138,3.015.938,6.279,3.726,6.355a4.83,4.83,0,0,0,2.029-.4l21.224-4.2-1.822,11.378,1.27,2.256c-.642,9.6-1.38,19.789-2.029,28.752l-.3,1.96.152.034c-1.007,13.8-1.815,24.253-1.815,24.253a12.717,12.717,0,0,1,5.292-5.32l.138,20.479s1.063,32.381,1.063,36.8.145,14.276.145,14.276,2.27,12.068,3.622,16.042,2.415,22.08,2.415,22.08,3.174,5,1.815,6.9,5.285,6.03,5.285,6.03-4.23,5.741-4.533,9.57c-.035.442.4.911,1.187,1.38-.248.2-.5.4-.787.593-1.96,1.311-4.83,2.222-9.149,1.849-11.778-1.035-20.079,9.86-12.834,12.068s28.98,2.65,28.98,2.65,6.583-4.105,11.73-2.256c-.076,4.319.138,8.28.172,8.8l-.062.048c-3.077,2.76-8.97,7.507-14.724,9.446-8.28,2.794-10.115,14.131.6,15.6s26.413-1.766,26.413-1.766,8.149-6.031,14.338-7.355,11.475-4.271,10.419-7.8c-.69-2.256-2.463-8.17-3.664-12.144q-.1-.359-.207-.69c.186-.414.373-.842.545-1.283,0,0-3.167-16.484-.6-20.6s1.207-45.339,1.207-45.339-4.381-10.447-2.111-16.774S616.9,500.6,616.9,500.6s.642-18,2.367-28.034q.117-.642.228-1.242a56.522,56.522,0,0,0,8.418-3.25s1.511-22.673,2.415-27.82c.09-.483.214-1.263.366-2.277l.69-3.636h0l.814-4.14h0l2.76-14.11,4.982-6.445,12.834-13.11S655.856,389.608,654.345,376.5ZM456.428,295.548l-.1.069a1.2,1.2,0,0,1-.034-.152A.622.622,0,0,0,456.428,295.548Zm126.8,16.07-.5,1.083,1.815-1.808-2.463,2.76.828-1.739Zm-12.254,25.323c-.476,1.263-.987,2.629-1.518,4.05l.973-2.9Z" transform="translate(-157.504 -94.708)"/><path class="j" d="M595.818,444.63s-1.691,11.254,3.381,11.4,8.459-8.68,8.459-8.68l-2.07-7.059Z" transform="translate(-221.948 -161.116)"/><path class="k" d="M595.818,444.63s-1.691,11.254,3.381,11.4,8.459-8.68,8.459-8.68l-2.07-7.059Z" transform="translate(-221.948 -161.116)"/><path class="l" d="M420.485,782.523c-9.025.393-20.8-9.8-20.8-9.8l-.586-10.591s-.78.393-2.353-1.96c-1.056-1.58.462-8.128,1.573-12.247.538-2.015.98-3.45.98-3.45l19.8,5.3.945,2.5,7.687,20.438S429.5,782.13,420.485,782.523Z" transform="translate(-160.208 -255.414)"/><path class="l" d="M536.387,746.022s-22.942,8.825-30.36,1.959-12.944-4.906-12.944-4.906-12.944.2-15.5-.787c-1.5-.573-.69-5.478.248-9.384.635-2.7,1.325-4.927,1.325-4.927s22.549-7.652,26.082-2.946a16.913,16.913,0,0,0,3.76,3.588c4.085,2.953,10.467,5.63,20.562,9.75C543.445,744.056,536.387,746.022,536.387,746.022Z" transform="translate(-185.12 -248.914)"/><path class="m" d="M530.785,496.35l6.272,12.551s9.025,12.751-1.566,17.65S525.1,498.316,525.1,498.316Z" transform="translate(-200.108 -178.495)"/><path class="n" d="M495.25,338.61s6.865,3.139,10.985,16.277,9.612,35.5,9.612,35.5,3.726,25.3,3.133,31.574a40.7,40.7,0,0,0,.2,10.391L524.471,450l-10.591,3.726L497.6,391.367Z" transform="translate(-190.854 -129.594)"/><path class="d" d="M495.25,338.61s6.865,3.139,10.985,16.277,9.612,35.5,9.612,35.5,3.726,25.3,3.133,31.574a40.7,40.7,0,0,0,.2,10.391L524.471,450l-10.591,3.726L497.6,391.367Z" transform="translate(-190.854 -129.594)"/><path class="f" d="M419.963,749.782l.945,2.5-1.159,2.215c-4.513,1.96-15.69.393-15.69.393s-2.07-2.629-4.9-6.955c.538-2.015.98-3.45.98-3.45Z" transform="translate(-161.066 -255.42)"/><path class="f" d="M510.177,729.545c-5.72,12.958-25.164,8.149-30.567,6.527-.89-.269-1.38-.448-1.38-.448s.034-1.056.048-2.719c.635-2.7,1.325-4.927,1.325-4.927s22.549-7.652,26.082-2.946a16.914,16.914,0,0,0,3.76,3.588,6.651,6.651,0,0,0,.731.925Z" transform="translate(-185.578 -248.914)"/><path class="o" d="M482.65,631.64c-4.706,9.8.987,15.3.987,15.3-5.72,12.951-25.164,8.149-30.567,6.52-.89-.262-1.38-.442-1.38-.442s.393-13.538-.98-20.01-1.18-33.727-.393-37.059a78.9,78.9,0,0,0,1.173-9.812s-.587-7.645.393-11.371a5.872,5.872,0,0,0-1.463-5.782l-.1-.1s-4.312,14.711-5.886,17.25-2.153,15.3-2.353,17.65-8.238,21.969-8.238,21.969-3.133,9.018-3.719,11.564-2.946,9.812-2.946,9.812l-9.453,18.243c-4.513,1.96-15.69.393-15.69.393s-2.153-2.76-5.1-7.259-4.312-20.389-4.312-20.389,10.785-.2,8.038-10.591,2.353-18.437,2.16-21.969,2.353-15.1,3.726-16.863,1.173-9.218.78-13.338-.193-18.63-.193-18.63.393-6.472,2.353-9.411,1.18-11.378,1.18-11.378,3.719-1.96,1.173-20.983,4.14-43.732,4.14-43.732l.228-3.45.359-5.589s56.089-3.533,60.6.78a14.876,14.876,0,0,1,2.863,4.105,40.848,40.848,0,0,1,3.243,10.44l2.353,59.422,2.353,43.732L487.19,613.6A43.8,43.8,0,0,1,482.65,631.64Z" transform="translate(-159.038 -167.479)"/><path class="f" d="M491.668,538.42l-5.886,127.469-7.066,11.62c-.89-.262-1.38-.442-1.38-.442s.393-13.538-.98-20.01-1.18-33.727-.393-37.059a78.9,78.9,0,0,0,1.173-9.812s-.587-7.645.393-11.371a5.872,5.872,0,0,0-1.463-5.782l.1-.69Z" transform="translate(-184.685 -191.537)"/><path class="f" d="M406.966,734.778s15.3-6.079,17.65-4.14-18.036,4.9-18.036,4.9Z" transform="translate(-163.366 -251.008)"/><path class="f" d="M510.187,713.5c-.586.2-15.49,5.52-14.117,11.178S510.187,713.5,510.187,713.5Z" transform="translate(-191.081 -245.813)"/><path class="m" d="M449.07,289.753s5,12.061,2.353,18.243,28.531,16.767,28.531,16.767-9.115-23.536-.29-36.777S449.07,289.753,449.07,289.753Z" transform="translate(-176.538 -112.208)"/><path class="p" d="M692.508,788.33c-6.031,1.325-13.972,7.355-13.972,7.355s-15.3,3.236-25.744,1.766-8.673-12.8-.586-15.594c5.61-1.932,11.357-6.7,14.359-9.432,1.325-1.221,2.111-2.07,2.111-2.07l29.276-5.886s.476,1.635,1.139,3.892c1.173,3.981,2.9,9.888,3.567,12.137C703.686,784.066,698.539,787.005,692.508,788.33Z" transform="translate(-237.446 -261.614)"/><path class="p" d="M675.383,756.232s-12.358,1.325-17.505-1.615-12.5,1.766-12.5,1.766-21.183-.442-28.241-2.65,1.028-13.11,12.5-12.061c4.181.379,7.01-.538,8.922-1.849A9.4,9.4,0,0,0,642.442,734l24.84,1.47,3.45,8.8Z" transform="translate(-227.821 -252.168)"/><path class="f" d="M681.924,748.29s-28.869-4.72-32.554-8.466A9.4,9.4,0,0,0,653.255,734l24.84,1.47,3.45,8.8Z" transform="translate(-238.633 -252.168)"/><path class="q" d="M634.52,514.471l.3,43.09s1.028,32.361,1.028,36.777.145,14.262.145,14.262,2.208,12.061,3.533,16.035,2.353,22.08,2.353,22.08,3.091,5,1.766,6.9,5.147,6.031,5.147,6.031-4.14,5.741-4.409,9.563,32.94,9.253,32.94,9.253L664.383,545.8l-10.3-33.237Z" transform="translate(-234.029 -183.52)"/><path class="f" d="M634.52,514.471l.3,43.09s1.028,32.361,1.028,36.777.145,14.262.145,14.262,2.208,12.061,3.533,16.035,2.353,22.08,2.353,22.08,3.091,5,1.766,6.9,5.147,6.031,5.147,6.031-4.14,5.741-4.409,9.563,32.94,9.253,32.94,9.253L664.383,545.8l-10.3-33.237Z" transform="translate(-234.029 -183.52)"/><path class="f" d="M708.536,768.4c-9.612,22.915-32.471,5.23-32.471,5.23s0-.442-.055-1.2c1.325-1.221,2.111-2.07,2.111-2.07L707.4,764.47S707.874,766.14,708.536,768.4Z" transform="translate(-246.892 -261.614)"/><path class="q" d="M698.708,686.151c-9.418,24.15-32.8,6.031-32.8,6.031s-.738-12.5.738-18.237S665.023,651,665.023,651s-1.766-15.3-3.381-18.823-1.47-10.591-1.47-11.178.586-5.3-.738-8.535-2.07-11.178-2.07-11.178,0-11.178-1.325-17.795l-4.561-22.77-8.238-46.63,2.574-.442,46.112-8.087s8.68,44.159,5.734,48.686A18.99,18.99,0,0,0,696,560.214c-1.684,10.019-2.311,28.007-2.311,28.007s5.734,8.97,3.533,15.3,2.07,16.767,2.07,16.767,1.325,41.186-1.18,45.3S698.708,686.151,698.708,686.151Z" transform="translate(-236.733 -181.35)"/><path class="r" d="M701.8,317.748s-41.772,29.414-32.361,14.7c5.071-7.921,4.14-18.009,2.153-25.626a60.47,60.47,0,0,0-4.14-11.24s35.493-15.1,30.787-1.566a25.352,25.352,0,0,0-1.38,9.826A26.219,26.219,0,0,0,701.8,317.748Z" transform="translate(-244.238 -114.024)"/><path class="r" d="M598.521,427.539s-17.65-5.1-20.589-.1.883,15.98,6.21,17.747,17.553-5.982,17.553-5.982Z" transform="translate(-216.17 -156.451)"/><path class="j" d="M626.142,416l-7.355,6.769s-12.8,1.173-16.477.29c0,0,3.388,22.652-1.47,25.447l29.711-6.031Z" transform="translate(-223.588 -153.586)"/><path class="f" d="M626.142,416l-7.355,6.769s-12.8,1.173-16.477.29c0,0,3.388,22.652-1.47,25.447l29.711-6.031Z" transform="translate(-223.588 -153.586)"/><path class="f" d="M480.8,264.778a22.08,22.08,0,0,1-22.08,22.08c-11.33-5.444-22.08-9.874-22.08-22.08a22.08,22.08,0,1,1,44.125,0Z" transform="translate(-172.68 -99.59)"/><path class="m" d="M480.845,264.334a22.038,22.038,0,1,1-5-13.959A22.038,22.038,0,0,1,480.845,264.334Z" transform="translate(-172.724 -99.74)"/><path class="f" d="M490.63,467.093a49.906,49.906,0,0,1-6.838,3.547s-11.178-1.621-12.792.29-15.87,2.65-15.87,2.65-21.769-1.028-25.005-3.823a13.248,13.248,0,0,0-3.305-1.96l.359-5.589s56.089-3.533,60.6.78a14.875,14.875,0,0,1,2.85,4.105Z" transform="translate(-169.641 -167.488)"/><path class="n" d="M487.706,415.825c-.442,2.5-9.563,6.32-9.563,6.32s-11.178-1.615-12.792.3-15.87,2.65-15.87,2.65-21.769-1.035-25.005-3.829-10.446-4.14-10.446-4.14-3.678-26.178-2.2-31.912-2.208-21.479-3.091-27.068,2.5-21.031,6.617-23.529,10-10.888,13.531-13.386c2.974-2.1,6.258-4.83,7.217-5.651l.283-.235s.593-4.561,2.946-6.9S463.3,323.3,463.3,323.3s.152,1.325,1.621-1.173c.331-.559,3.181,3.553,3.678,5.292,0,0,11.764,20.6,12.5,24.84s3.823,18.092,4.409,21.473c.152.869.4,3.919.69,8,.055.8.1,1.649.166,2.532.435,6.776.9,15.428,1.187,21.969,0,.745.062,1.463.083,2.153A73.255,73.255,0,0,1,487.706,415.825Z" transform="translate(-163.991 -120.174)"/><path class="f" d="M415,387.21s8.087,9.853,10.736,9.853S415,387.21,415,387.21Z" transform="translate(-165.976 -144.66)"/><path class="f" d="M434.462,417.91s-13.241,14.414-11.475,17.064S434.462,417.91,434.462,417.91Z" transform="translate(-168.402 -154.178)"/><path class="f" d="M425.62,449.436s15.18-16.622,15.87-22.356Z" transform="translate(-169.269 -157.02)"/><path class="f" d="M453.33,453.082s17.505-9.267,18.975-16.622S453.33,453.082,453.33,453.082Z" transform="translate(-177.859 -159.494)"/><path class="f" d="M484.429,330.718,482,336.6l4.043,1.911,3.974,11.109s10.957,21.914,10.516,33.313,1.987,28.531,1.987,28.531l6.32-1.173-2.981-33.527a48.363,48.363,0,0,0-3.85-15.049c-5.051-11.564-14.448-32.913-15.042-32.913-.807,0-.241.3-.241.3Z" transform="translate(-186.747 -126.553)"/><path class="s" d="M485.279,329.861l-2.429,5.886,4.05,1.911,3.967,11.109s10.957,21.914,10.515,33.313,1.987,28.531,1.987,28.531l6.327-1.173-2.988-33.527a48.176,48.176,0,0,0-3.843-15.049c-5.051-11.571-14.448-32.913-15.035-32.913-.814,0-.248.3-.248.3Z" transform="translate(-187.01 -126.289)"/><path class="m" d="M583.6,446.8c-3.077-.235-10.46-3.967-13.393-5.52l-1.242-.69.152-11.392a20.024,20.024,0,0,1,2.249-1.138c3.919-1.711,11.958-4.036,15.987,3.45C592.8,441.549,587.5,447.062,583.6,446.8Z" transform="translate(-213.708 -156.785)"/><path class="f" d="M475.8,250.342a3.264,3.264,0,0,1-1.028.421c-2.56.559-5.472-1.642-7.666-.228-1.339.869-1.649,2.67-1.828,4.257q-.469,4.14-.938,8.225a10.149,10.149,0,0,1-.607,2.836c-1.083,2.477-4.057,3.643-6.769,3.6a4.036,4.036,0,0,1-2.919-.966c-.476-.483-.731-1.159-1.256-1.6-3.45-2.891-4.5,4.2-3.588,6.21,1.463,3.291,6.658,6.465,4.478,10.647a3.988,3.988,0,0,1-1.6,1.608,22.08,22.08,0,1,1,23.722-35.01Z" transform="translate(-172.67 -99.706)"/><path class="t" d="M449.008,262.378c.517.435.78,1.111,1.256,1.594a4.043,4.043,0,0,0,2.919.966c2.712.041,5.686-1.118,6.762-3.609a9.825,9.825,0,0,0,.614-2.829l.938-8.225c.179-1.587.483-3.388,1.828-4.257,2.194-1.38,5.106.787,7.666.228a3.747,3.747,0,0,0,2.76-4.319c-.3-1.318-1.3-2.36-1.822-3.616a23.627,23.627,0,0,1-.752-2.946C469.749,230.011,463.463,227,458,227.9c-3.036.5-5.858,1.953-8.9,2.394-2.18.317-4.409.11-6.61.345a16.685,16.685,0,0,0-5.865,1.732,3.409,3.409,0,0,0-1.242.938,5.182,5.182,0,0,0-.621,1.766c-.738,2.76-3.112,4.8-4.83,7.121a16.967,16.967,0,0,0-3.271,9.184,7.362,7.362,0,0,0,.235,2.518c.145.483.373.952.483,1.449.338,1.511-.435,3.022-.814,4.526a9.053,9.053,0,0,0,.483,5.755c2.65,6.093,11.378,8.128,13.193,14.524a14.489,14.489,0,0,0,5.134,1.38,4.952,4.952,0,0,0,4.526-2.311c2.173-4.14-3.015-7.355-4.478-10.64C444.5,266.56,445.53,259.48,449.008,262.378Z" transform="translate(-169.48 -95.224)"/><path class="f" d="M698.284,294.019a25.351,25.351,0,0,0-1.38,9.826c-1.063.9-2.222-1.8-3.45-1.1-3.367,1.946-7.259,6.576-11.426,6.576a22.887,22.887,0,0,1-10.4-2.491,60.475,60.475,0,0,0-4.14-11.24S702.99,280.488,698.284,294.019Z" transform="translate(-244.25 -114.024)"/><path class="r" d="M701.158,273.449A22.949,22.949,0,1,1,678.209,250.5,22.949,22.949,0,0,1,701.158,273.449Z" transform="translate(-240.459 -102.279)"/><path class="u" d="M694.893,332.514s-4.319,4.706-4.906,5.092-13.11,53.129-13.331,53.743-14.911,48.237-14.911,48.237L638.21,451.158l1.966-58.249,17.25-48.037s5.692-6.472,7.452-8.825,23.729-16.477,23.729-16.477l3.754,7.735Z" transform="translate(-235.173 -123.691)"/><path class="f" d="M703.5,329.015,676.435,348.39,676,337.75c1.766-2.353,23.729-16.47,23.729-16.47Z" transform="translate(-246.889 -124.222)"/><path class="u" d="M704.352,327.3,677.291,346.68l-.421-10.633c1.766-2.36,23.729-16.477,23.729-16.477Z" transform="translate(-247.158 -123.691)"/><path class="j" d="M660.583,336.59l.9,4.733-6.051,6.148,4.83-10.812s-10.35,7.21-13.455,9.122-6.21,8.383-6.327,10.15-5,28.386-5,28.386-3.678,9.853-2.643,12.648-5.589,90.9-5.589,90.9a13.11,13.11,0,0,1,8.846-6.783l-2.36-52.067s2.87-34.638,3.015-35.079,6.693-20.52,6.693-20.52Z" transform="translate(-231.776 -128.968)"/><path class="f" d="M663.553,344.3l-.469,9.66s-6.548,20.665-8.749,24.046-8.9,23.536-8.9,23.536l-3.774,35.01-6.472,2.946L632,433.626l5.3-33.81s10-28.531,11.475-31.477L656.15,352.8Z" transform="translate(-233.248 -131.358)"/><path class="v" d="M662.684,343.45l-.462,9.66s-6.548,20.665-8.756,24.046-8.894,23.536-8.894,23.536l-3.754,35-6.472,2.939-3.236-5.879,5.3-33.81s10-28.538,11.468-31.477l7.431-15.518Z" transform="translate(-232.972 -131.094)"/><path class="r" d="M566.31,448.868l12.648,8.756s8.922-5,3.726-8.238a23.038,23.038,0,0,0-11.475-3.726C569.539,445.66,566.31,448.868,566.31,448.868Z" transform="translate(-212.884 -162.78)"/><path class="r" d="M579.588,426.327a1.945,1.945,0,0,0-.918,1.663c0,2.684.3,9.791,2.553,6.583,2.76-3.926,2.256-7.452,6.472-4.906a24.838,24.838,0,0,1,6.762,6.21l-1.173-8.432S584.618,423.167,579.588,426.327Z" transform="translate(-216.715 -156.426)"/><path class="f" d="M698.672,554.206a18.99,18.99,0,0,0-1.656,5.968c-25.792,7.735-44.663-8.618-44.663-8.618a225.131,225.131,0,0,1-5.589-23.529c-.462-2.719-.359-7.99.069-14.421l46.112-8.087S701.618,549.645,698.672,554.206Z" transform="translate(-237.731 -181.338)"/><path class="j" d="M725.13,364.829c-1.173,3.829-.731,11.619-.731,11.619L713.807,426.46S708.66,465,707.776,470.143s-2.353,27.8-2.353,27.8c-30.008,14.711-53.129-5.292-53.129-5.292a225.493,225.493,0,0,1-5.589-23.536c-1.477-8.735,2.87-43.732,4.927-59.277.614-4.6,1.028-7.5,1.028-7.5l7.721-28.683s9.487-24.2,13.02-31.257,17.719-22.915,17.719-22.915c1.759-1.118,4.575,2.829,6.665,6.424,1.58,2.719,2.76,5.244,2.76,5.244s17.65,7.645,20.293,11.73,2.208,12.5,2.5,12.944S726.31,361.007,725.13,364.829Z" transform="translate(-237.714 -123.605)"/><path class="f" d="M686.133,347.3s1.325,7.8-2.07,10.15c-3.277,2.277-27.675,50.252-29.193,53.247.614-4.609,1.028-7.507,1.028-7.507l7.721-28.676s9.494-24.2,13.02-31.263,17.726-22.915,17.726-22.915c1.76-1.118,4.568,2.829,6.658,6.424C697.87,333.305,691.295,345.684,686.133,347.3Z" transform="translate(-240.338 -123.868)"/><path class="j" d="M685.277,346.448s1.318,7.8-2.07,10.15S655.539,406.843,654,409.838c.614-4.6,1.028-7.5,1.028-7.5l7.721-28.683s9.487-24.2,13.02-31.257,17.719-22.915,17.719-22.915c1.759-1.118,4.575,2.829,6.665,6.424C697.014,332.448,690.432,344.834,685.277,346.448Z" transform="translate(-240.068 -123.605)"/><path class="w" d="M658.613,419.036l-8.3,43.187v.007l-.793,4.133v.007l-1.787,9.294-7.624-1.615-3.553-.752-49.176-10.419-3.615-.766-8.252-1.746,1.615-10.723.669-4.457,5.955-39.536Z" transform="translate(-178.4 -125.737)"/><path class="r" d="M676.4,511.92s-19.561,7.059-15.3,15.442,31.622-6.472,31.622-6.472Z" transform="translate(-242.083 -183.322)"/><path class="f" d="M703.8,599.1c0,.586.738,8.094,3.678,10.736S703.8,599.1,703.8,599.1Z" transform="translate(-255.507 -210.348)"/><path class="f" d="M675.24,637.68s3.526,9.708,17.5,13.683S675.24,637.68,675.24,637.68Z" transform="translate(-246.653 -222.308)"/><path class="f" d="M703.164,273.476a22.942,22.942,0,0,1-11.5,19.892,12.213,12.213,0,0,1-3.45-2.877c-1-1.214-1.78-2.87-1.18-4.319.483-1.166,1.759-1.9,2.07-3.112a4.581,4.581,0,0,0-.11-2.222c-.255-1.138-.5-2.277-.745-3.409-.214-.966-.593-2.1-1.552-2.339s-1.76.566-2.512,1.159c-1.842,1.456-5.375,2.443-7.59,1.249S675,272.31,674.64,270.15a1.283,1.283,0,0,0-.483-.973,2.015,2.015,0,0,0-1-.069,2.881,2.881,0,0,1-2.5-2.215,19.065,19.065,0,0,1-.4-3.553,3.964,3.964,0,0,0-1.587-3.07,4.906,4.906,0,0,0-2.615-.428l-4.326.048a22.949,22.949,0,0,1,41.4,13.607Z" transform="translate(-242.465 -102.306)"/><path class="v" d="M683,273.47c.752-.593,1.58-1.38,2.512-1.152s1.332,1.38,1.546,2.332l.745,3.4a4.624,4.624,0,0,1,.117,2.229c-.352,1.214-1.621,1.946-2.111,3.112-.6,1.449.186,3.1,1.18,4.312a12.42,12.42,0,0,0,7.1,4.243A5.216,5.216,0,0,0,696.3,292c1.642-.38,2.76-1.891,3.643-3.305,4.561-7.107,8.487-14.9,9.287-23.3a14.946,14.946,0,0,0-.235-5.14,17.249,17.249,0,0,0-1.573-3.76,30.357,30.357,0,0,0-4.437-6.714,25.2,25.2,0,0,0-11.923-6.686,40.379,40.379,0,0,0-15.394-1.207c-1.38.159-2.7.386-4.064.476a40.9,40.9,0,0,1-5.12-.083l-10.157-.607c-.58,1.18,0,2.581.69,3.685s1.546,2.249,1.49,3.56-.987,2.346-1.7,3.45-1.263,2.532-.545,3.609,2.18,1.145,3.45,1.132l5.12-.055a4.892,4.892,0,0,1,2.6.448,3.975,3.975,0,0,1,1.587,3.07,20.3,20.3,0,0,0,.4,3.553,2.871,2.871,0,0,0,2.5,2.215,1.863,1.863,0,0,1,1,.076,1.27,1.27,0,0,1,.483.966c.359,2.16-.3,6.148,1.953,7.348S681.153,274.926,683,273.47Z" transform="translate(-240.664 -99.526)"/><path class="f" d="M717.9,353.442A11.247,11.247,0,0,0,706.069,361c-2.76,7.859-7.362,22.038-6.21,27.641,1.621,7.942,3.533,21.183,3.533,21.183s8.383,4.83,4.14,9.7-5.444,11.771-5.444,11.771-5.444,2.353-6.617,7.355-9.122,11.909-9.122,11.909L674.44,462.474s19.706,20.01,23.68,21.031l12.206-14.269,14.414-19.12,12.5-13.11s2.939-6.9,1.47-20.01S731.5,391.4,731.5,391.4l.442-4.416S733.3,355.353,717.9,353.442Z" transform="translate(-246.405 -134.172)"/><path class="j" d="M719.606,353.442A11.247,11.247,0,0,0,707.786,361c-2.76,7.859-7.362,22.038-6.21,27.641,1.615,7.942,3.526,21.183,3.526,21.183s8.383,4.83,4.14,9.7-5.437,11.771-5.437,11.771-5.444,2.353-6.624,7.355-9.115,11.909-9.115,11.909L676.15,462.475s19.706,20.01,23.68,21.031l12.206-14.269,14.379-19.12,12.5-13.11s2.946-6.9,1.47-20.01-7.2-25.592-7.2-25.592l.442-4.416S735,355.353,719.606,353.442Z" transform="translate(-246.935 -134.173)"/><path class="f" d="M721.28,418.34s12.5,15.29,17.8,11.909S721.28,418.34,721.28,418.34Z" transform="translate(-260.926 -154.311)"/><path class="f" d="M728.1,401.28c1.325.442,12.213,15.594,17.8,13.8S728.1,401.28,728.1,401.28Z" transform="translate(-263.04 -149.022)"/><path class="f" d="M732.58,439s.738,8.68,9.708,7.5S732.58,439,732.58,439Z" transform="translate(-264.429 -160.716)"/><path class="f" d="M618.841,301.83l-4.851,10.812,6.058-6.148Z" transform="translate(-190.329 -93.552)"/><path class="u" d="M618.841,300.98l-4.851,10.812,6.058-6.148Z" transform="translate(-190.329 -93.289)"/><path class="x" d="M588.1,480.641l-3.616-.766-6.638-12.468.669-4.457Z" transform="translate(-179.126 -143.501)"/><path class="x" d="M677.738,487.65l-.793,4.133v.007l-9.411,7.68-3.553-.752Z" transform="translate(-205.827 -151.158)"/><path class="f" d="M491.221,419.543c-1.822.3-3.588.58-5.2.787-8.97,1.18-30.3-9.411-30.3-9.411s-26.033-21.769-33.534-42.359,8.97-23.68,8.97-23.68c6.21-3.533,19.713,6.32,21.624,7.942s3.533,5.734,3.381,8.383,4.416,6.031,4.416,6.031,7.8,13.531,9.708,15,2.353,2.794,2.939,5.3,5.734,4.561,7.942,4.409,4.83.738,4.83,1.911c0,.945,2.16,1.414,3.933,1.566C490.448,402.962,490.966,412.843,491.221,419.543Z" transform="translate(-167.595 -131.302)"/><path class="f" d="M491.668,416.333c-1.38.221-2.7.421-3.947.586-8.97,1.18-30.3-9.411-30.3-9.411s-26.033-21.769-33.534-42.359,8.97-23.681,8.97-23.681c6.21-3.533,19.706,6.32,21.617,7.942s3.533,5.734,3.388,8.383,4.409,6.03,4.409,6.03,7.8,13.531,9.708,15,2.353,2.794,2.946,5.3,5.734,4.554,7.942,4.409,4.83.738,4.83,1.911c0,.69,1.228,1.152,2.594,1.38.055.8.1,1.649.166,2.532C490.916,401.139,491.385,409.792,491.668,416.333Z" transform="translate(-168.126 -130.245)"/><path class="f" d="M571.371,428.84l-.559,13.22h-.6l-1.242-.69.152-11.392A20.024,20.024,0,0,1,571.371,428.84Z" transform="translate(-213.708 -157.566)"/><path class="n" d="M431.15,343.17s-16.47,3.091-8.97,23.681,33.534,42.365,33.534,42.365,21.328,10.584,30.3,9.411,22.646-4.264,24.412-3.823,13.683.442,13.683.442l.586-13.8-13.8-.738-7.059-1.47s-2.5-2.07-3.974-1.766-4.554-1.766-4.554-1.766-2.36-1.911-4.14-1.911-5.147-.442-5.147-1.615-2.65-2.07-4.83-1.911-7.39-1.911-8-4.444-1.028-3.823-2.939-5.292-9.708-15.007-9.708-15.007-4.561-3.381-4.416-6.024-1.47-6.769-3.381-8.39S437.319,339.644,431.15,343.17Z" transform="translate(-167.595 -130.773)"/><path class="f" d="M495.224,412.15s-6.327,6.327-4.713,7.5Z" transform="translate(-189.304 -152.392)"/><path class="f" d="M504.382,419.4s-8.239,6.327-6.031,6.769S504.382,419.4,504.382,419.4Z" transform="translate(-191.699 -154.64)"/><path class="f" d="M487,433c1.18.593,18.678,11.04,25.3,10.888Z" transform="translate(-188.297 -158.856)"/><path class="f" d="M476.5,325.023s-3.091,10.15-4.271,10.15c-.925,0-16.449-12.572-22.928-17.857l.283-.235s.587-4.561,2.939-6.9S476.5,325.023,476.5,325.023Z" transform="translate(-176.61 -120.713)"/><path class="n" d="M475.639,323.313s-3.084,10.15-4.264,10.15c-.932,0-16.456-12.572-22.935-17.857l.283-.235s.593-4.561,2.946-6.9S475.639,323.313,475.639,323.313Z" transform="translate(-176.343 -120.183)"/><g class="y" transform="translate(257.642 136.277)"><path d="M427.49,282.54h0c2.07,4.726,7.769,7.017,11.074,10.785C436.6,288.695,430.85,286.425,427.49,282.54Z" transform="translate(-427.49 -248.489)"/><path d="M453.986,296.528a4.959,4.959,0,0,1-4.526,2.311,13.206,13.206,0,0,1-4.54-1.159,8.828,8.828,0,0,1,1.173,2.5,14.419,14.419,0,0,0,5.134,1.38,4.91,4.91,0,0,0,4.526-2.311c1.318-2.518-.055-4.671-1.663-6.707A4.382,4.382,0,0,1,453.986,296.528Z" transform="translate(-432.893 -251.589)"/><path d="M481.516,243.547c-.3-1.325-1.3-2.367-1.822-3.616a22.581,22.581,0,0,1-.752-2.953,9.15,9.15,0,0,0-2.118-3.788,8.8,8.8,0,0,1,.352,1.042,23.76,23.76,0,0,0,.773,2.967c.518,1.249,1.525,2.291,1.822,3.616a3.747,3.747,0,0,1-2.76,4.319c-2.553.559-5.465-1.649-7.659-.228-1.345.863-1.656,2.663-1.835,4.25q-.462,4.14-.938,8.232a9.867,9.867,0,0,1-.607,2.829c-1.083,2.484-4.057,3.65-6.769,3.609a4.064,4.064,0,0,1-2.912-.966,19.225,19.225,0,0,0-1.263-1.6c-3.45-2.9-4.5,4.188-3.588,6.21A12.5,12.5,0,0,0,453.123,270c-.759-2.277.3-8.832,3.671-6.024a17.832,17.832,0,0,1,1.256,1.6,4.092,4.092,0,0,0,2.919.966c2.712.041,5.685-1.125,6.769-3.609a9.867,9.867,0,0,0,.607-2.836q.469-4.14.938-8.225c.179-1.587.49-3.388,1.828-4.25,2.2-1.421,5.113.787,7.666.221A3.74,3.74,0,0,0,481.516,243.547Z" transform="translate(-434.818 -233.19)"/></g><path class="f" d="M697.7,290.19a5.334,5.334,0,0,1-2.215-.055,12.42,12.42,0,0,1-7.093-4.237c-1-1.214-1.787-2.87-1.18-4.319.483-1.166,1.753-1.9,2.07-3.112a4.623,4.623,0,0,0-.117-2.229l-.745-3.4c-.214-.966-.586-2.1-1.546-2.332s-1.759.559-2.512,1.152c-1.842,1.456-5.382,2.449-7.59,1.249s-1.594-5.189-1.953-7.348a1.29,1.29,0,0,0-.483-.966,1.967,1.967,0,0,0-1.007-.076,2.888,2.888,0,0,1-2.5-2.215,19.6,19.6,0,0,1-.393-3.553,3.982,3.982,0,0,0-1.594-3.07,4.961,4.961,0,0,0-2.6-.449l-5.12.055c-1.263,0-2.76-.083-3.45-1.132s-.179-2.539.545-3.609,1.642-2.132,1.7-3.45-.793-2.456-1.49-3.56a6.384,6.384,0,0,1-.869-1.973l-1.47-.09c-.573,1.173,0,2.574.69,3.685s1.552,2.249,1.49,3.553-.98,2.353-1.7,3.45-1.256,2.532-.538,3.609,2.174,1.152,3.45,1.139l5.12-.062a4.954,4.954,0,0,1,2.6.455,3.961,3.961,0,0,1,1.594,3.07,19.06,19.06,0,0,0,.4,3.553,2.856,2.856,0,0,0,2.5,2.208,2.022,2.022,0,0,1,1,.076,1.3,1.3,0,0,1,.483.973c.359,2.153-.3,6.148,1.953,7.348s5.775.207,7.59-1.249c.752-.593,1.587-1.38,2.518-1.159s1.332,1.38,1.539,2.332l.752,3.409a4.616,4.616,0,0,1,.11,2.229c-.345,1.207-1.622,1.946-2.1,3.1-.6,1.449.179,3.112,1.18,4.319a12.42,12.42,0,0,0,7.141,4.237,5.333,5.333,0,0,0,2.215.055,5.2,5.2,0,0,0,2.87-2.18A3.835,3.835,0,0,1,697.7,290.19Z" transform="translate(-240.591 -99.48)"/><ellipse class="a" cx="16.677" cy="2.56" rx="16.677" ry="2.56" transform="translate(123.88 490.319)"/><ellipse class="a" cx="16.677" cy="2.56" rx="16.677" ry="2.56" transform="translate(706.177 423.762)"/><ellipse class="a" cx="48.299" cy="7.411" rx="48.299" ry="7.411" transform="translate(504.534 522.065)"/><ellipse class="a" cx="37.674" cy="5.782" rx="37.674" ry="5.782" transform="translate(652.462 492.299)"/><ellipse class="a" cx="63.886" cy="9.805" rx="63.886" ry="9.805" transform="translate(620.046 545.89)"/><ellipse class="a" cx="48.299" cy="7.411" rx="48.299" ry="7.411" transform="translate(20.878 556.91)"/><path class="w" d="M256.56,631.85s1.891,2.47-.869,6.21-5.037,6.9-4.14,9.2c0,0,4.14-6.9,7.59-7.024S260.293,636.018,256.56,631.85Z" transform="translate(-115.244 -220.501)"/><path class="f" d="M256.615,631.85a2.76,2.76,0,0,1,.386.773c3.312,3.892,5.071,7.514,1.891,7.59-2.96.083-6.513,5.382-7.362,6.721a2.571,2.571,0,0,0,.1.3s4.14-6.9,7.59-7.024S260.348,636.018,256.615,631.85Z" transform="translate(-115.299 -220.501)"/><path class="z" d="M263.8,636.159c0,.869-.1,1.573-.221,1.573s-.221-.69-.221-1.573.124-.455.241-.455S263.8,635.289,263.8,636.159Z" transform="translate(-118.967 -221.663)"/><path class="z" d="M265.072,637.65c-.759.414-1.428.69-1.483.559s.511-.524,1.276-.945.462-.11.517,0S265.838,637.229,265.072,637.65Z" transform="translate(-119.036 -222.113)"/><path class="w" d="M242.535,631.85s-1.891,2.47.869,6.21,5.044,6.9,4.14,9.2c0,0-4.14-6.9-7.555-7.024S238.781,636.018,242.535,631.85Z" transform="translate(-111.196 -220.501)"/><path class="f" d="M242.528,631.85a3.045,3.045,0,0,0-.386.773c-3.312,3.892-5.071,7.514-1.891,7.59,2.96.083,6.514,5.382,7.369,6.721a2.626,2.626,0,0,1-.1.3s-4.14-6.9-7.555-7.024S238.774,636.018,242.528,631.85Z" transform="translate(-111.189 -220.501)"/><path class="z" d="M239.35,636.159c0,.869.1,1.573.214,1.573s.221-.69.221-1.573-.124-.455-.242-.455S239.35,635.289,239.35,636.159Z" transform="translate(-111.523 -221.663)"/><path class="z" d="M237.392,637.65c.766.414,1.428.69,1.49.559s-.517-.524-1.283-.945-.462-.11-.517,0S236.626,637.229,237.392,637.65Z" transform="translate(-110.772 -222.113)"/><ellipse class="a" cx="19.754" cy="3.029" rx="19.754" ry="3.029" transform="translate(116.573 439.597)"/><path class="aa" d="M257.269,648.832l-.1.773-.131,1.09-.055.455-.131,1.09-.062.455-.131,1.09-1.511,12.42c-.131,1.1-1.939,1.966-4.14,1.966h-7.825c-2.18,0-3.988-.862-4.14-1.966l-1.511-12.42-.131-1.09-.055-.455-.138-1.09-.055-.455-.131-1.09-.1-.773c-.076-.628.9-1.152,2.139-1.152h16.07C256.365,647.68,257.345,648.2,257.269,648.832Z" transform="translate(-110.771 -225.408)"/><path class="ab" d="M203.108,614.76l-.131,1.09H183.091l-.131-1.09Z" transform="translate(-56.706 -190.563)"/><path class="ab" d="M203.005,617l-.131,1.09H183.368L183.23,617Z" transform="translate(-56.79 -191.258)"/><path class="ab" d="M202.906,619.24l-.138,1.09H183.641l-.131-1.09Z" transform="translate(-56.877 -191.952)"/><path class="w" d="M1082.568,618s-2.36,10.985,8.135,12.282l.649-1.221S1083.217,621.409,1082.568,618Z" transform="translate(-372.858 -216.207)"/><path class="w" d="M1096.144,626.482,1093.7,627l-.241.055s-6.514-5.285-6.431-17.084a29.125,29.125,0,0,0,3.112,4.92C1092.722,618.305,1095.654,622.859,1096.144,626.482Z" transform="translate(-374.311 -213.718)"/><path class="w" d="M1098.825,625.787a1.532,1.532,0,0,1-1.311.172c-6.265-1.463-4.14-21.88-4.14-21.88.345.159.69,2.76,2.167,6.113C1098.059,616.079,1100.84,624.311,1098.825,625.787Z" transform="translate(-376.17 -211.892)"/><path class="w" d="M1116.743,618s.407,10.985-10.088,12.282L1106,629.04S1116.095,621.409,1116.743,618Z" transform="translate(-380.192 -216.207)"/><path class="w" d="M1112.24,610a20.316,20.316,0,0,1-8.376,17.084l-.248-.055-2.436-.517c.483-3.622,3.45-8.176,6-11.592A26.549,26.549,0,0,1,1112.24,610Z" transform="translate(-378.698 -213.727)"/><path class="w" d="M1102.911,624.728a3.808,3.808,0,0,1-1.38,1.07h0a2.68,2.68,0,0,1-.517.173c-1.539.359-2.07-.752-1.987-2.643.145-3.36,2.256-9.191,4.14-13.558a16.944,16.944,0,0,1,3.933-5.679S1107,619.98,1102.911,624.728Z" transform="translate(-378.028 -211.895)"/><path class="w" d="M1100.584,593.7s-7,24.84-.973,28.552S1102.129,595.894,1100.584,593.7Z" transform="translate(-377.453 -208.674)"/><path class="f" d="M1082.568,618s-2.36,10.985,8.135,12.282l.649-1.221S1083.217,621.409,1082.568,618Z" transform="translate(-372.858 -216.207)"/><path class="f" d="M1096.144,626.482,1093.7,627l-.241.055s-6.514-5.285-6.431-17.084a29.125,29.125,0,0,0,3.112,4.92C1092.722,618.305,1095.654,622.859,1096.144,626.482Z" transform="translate(-374.311 -213.718)"/><path class="f" d="M1098.825,625.787a1.532,1.532,0,0,1-1.311.172c-6.265-1.463-4.14-21.88-4.14-21.88.345.159.69,2.76,2.167,6.113C1098.059,616.079,1100.84,624.311,1098.825,625.787Z" transform="translate(-376.17 -211.892)"/><path class="f" d="M1116.743,618s.407,10.985-10.088,12.282L1106,629.04S1116.095,621.409,1116.743,618Z" transform="translate(-380.192 -216.207)"/><path class="f" d="M1112.24,610a20.316,20.316,0,0,1-8.376,17.084l-.248-.055-2.436-.517c.483-3.622,3.45-8.176,6-11.592A26.549,26.549,0,0,1,1112.24,610Z" transform="translate(-378.698 -213.727)"/><path class="f" d="M1102.911,624.728a3.808,3.808,0,0,1-1.38,1.07h0a2.68,2.68,0,0,1-.517.173c-1.539.359-2.07-.752-1.987-2.643.145-3.36,2.256-9.191,4.14-13.558a16.944,16.944,0,0,1,3.933-5.679S1107,619.98,1102.911,624.728Z" transform="translate(-378.028 -211.895)"/><path class="f" d="M1100.584,593.7s-7,24.84-.973,28.552S1102.129,595.894,1100.584,593.7Z" transform="translate(-377.453 -208.674)"/><path class="w" d="M1082.643,618s-1.38,10.985,9.108,12.282l.648-1.221S1083.292,621.409,1082.643,618Z" transform="translate(-372.933 -216.207)"/><path class="w" d="M1097.108,626.491l-2.443.518-.241.055S1086.938,621.778,1087,610c0,0,1.918,2.07,4.085,4.92C1093.686,618.314,1096.618,622.868,1097.108,626.491Z" transform="translate(-374.302 -213.727)"/><path class="f" d="M1098.953,628.692l-2.443.518c-2.312-2.029-3.229-7.328-3.56-12.109C1095.531,620.516,1098.463,625.069,1098.953,628.692Z" transform="translate(-376.147 -215.928)"/><path class="w" d="M1099.921,625.787a1.546,1.546,0,0,1-1.318.172c-6.265-1.463-5.12-21.88-5.12-21.88.345.159,1.7,2.76,3.139,6.113C1099.155,616.079,1101.929,624.311,1099.921,625.787Z" transform="translate(-376.287 -211.892)"/><path class="w" d="M1117.186,618s1.38,10.985-9.108,12.282l-.648-1.221S1116.538,621.409,1117.186,618Z" transform="translate(-380.636 -216.207)"/><path class="w" d="M1112.678,610c.083,11.8-7.4,17.084-7.4,17.084l-.242-.055-2.443-.517c.483-3.622,3.45-8.176,6-11.592C1110.76,612.07,1112.678,610,1112.678,610Z" transform="translate(-379.135 -213.727)"/><path class="f" d="M1108.593,617.1c-.317,4.457-1.132,9.363-3.112,11.654a3.5,3.5,0,0,1-.449.455l-2.442-.518C1103.073,625.069,1106.012,620.515,1108.593,617.1Z" transform="translate(-379.135 -215.928)"/><path class="w" d="M1104.321,624.728a3.732,3.732,0,0,1-1.38,1.069h0a2.769,2.769,0,0,1-.511.173c-1.546.359-2.07-.752-1.994-2.643.152-3.36,2.263-9.191,4.14-13.558,1.38-3.139,2.629-5.52,2.96-5.679C1107.537,604.083,1108.413,619.98,1104.321,624.728Z" transform="translate(-378.465 -211.895)"/><path class="f" d="M1101.2,628.534a1.656,1.656,0,0,1-.994-.317c-2.946-1.835-3.008-8.721-2.3-15.276C1100.436,618.826,1103.209,627.057,1101.2,628.534Z" transform="translate(-377.567 -214.639)"/><path class="f" d="M1104.325,627.279c-.338.738-.794,1.125-1.38,1.069h0a1.855,1.855,0,0,1-.835-.317,4.457,4.457,0,0,1-1.67-2.153c.152-3.36,2.263-9.191,4.14-13.558C1105.256,618.371,1105.484,624.788,1104.325,627.279Z" transform="translate(-378.469 -214.446)"/><path class="w" d="M1100.919,593.7s-6.017,24.84,0,28.552S1102.464,595.894,1100.919,593.7Z" transform="translate(-377.788 -208.674)"/><path class="ac" d="M1053.494,597.61H1028.44v4.147h3.823l.1.49,1.532,8.052h14.566l1.532-8.052.09-.49h3.415Z" transform="translate(-318.813 -185.247)"/><path class="f" d="M1053.494,597.61H1028.44v4.147h3.823l.1.49,1.532,8.052h14.566l1.532-8.052.09-.49h3.415Z" transform="translate(-318.813 -185.247)"/><path class="ac" d="M1053.391,601.14l-.421,2.2-1.532,8.052h-14.566l-1.532-8.052-.421-2.2Z" transform="translate(-320.821 -186.341)"/><path class="f" d="M1053.391,601.14l-.421,2.2h-17.629l-.421-2.2Z" transform="translate(-320.821 -186.341)"/><rect class="ac" width="25.054" height="4.147" transform="translate(710.6 412.363)"/><path class="w" d="M174.156,733.853a12.034,12.034,0,0,0-1.573,2.967c-.1.255-.193.552-.29.835a3.006,3.006,0,0,0-.545-.193,7.588,7.588,0,0,0-2.463-.207c0-.324.041-.69.048-1.014.1-3.636-.324-8.7-3.795-6.555-3.326,2.07-.952,5.52,1.194,7.728.186.193.373.373.552.545-1.96,1.38-2.332,4.644-2.656,8.031s-3.2,7.093-5.113,9.2c-.193.214-.366.407-.538.586a7,7,0,0,0-5.554-1.428c-.076-.3-.166-.607-.255-.931-1.546-5.582-4.754-15.249-8.846-17.367l.538-.69c1.739-2.27,3.7-5.651.807-6.514s-3.153,2.926-2.995,5.768q.041.538.083,1.014a4.23,4.23,0,0,0-3.022,1.477l-.449-.531c-2.346-2.76-6.645-7.155-7.949-3.836-1.214,3.091,2.574,7.107,5.237,9.432l.166.145c-1.787,7.252,6.017,13.165,10.219,15.753l.545.331c-5.8,6.831-9.377,19.637-9.377,19.637l16.229,2.9s10.764-9.287,9.384-18.009h.11c10.757-2.153,13.2-13.62,11.523-20.431l.193-.076a12.179,12.179,0,0,0,4.982-3.767C183.554,734.474,177.261,729.755,174.156,733.853Z" transform="translate(-77.965 -250.531)"/><path class="f" d="M174.156,733.853a12.034,12.034,0,0,0-1.573,2.967c-.1.255-.193.552-.29.835a3.006,3.006,0,0,0-.545-.193,7.588,7.588,0,0,0-2.463-.207c0-.324.041-.69.048-1.014.1-3.636-.324-8.7-3.795-6.555-3.326,2.07-.952,5.52,1.194,7.728.186.193.373.373.552.545-1.96,1.38-2.332,4.644-2.656,8.031s-3.2,7.093-5.113,9.2c-.193.214-.366.407-.538.586a7,7,0,0,0-5.554-1.428c-.076-.3-.166-.607-.255-.931-1.546-5.582-4.754-15.249-8.846-17.367l.538-.69c1.739-2.27,3.7-5.651.807-6.514s-3.153,2.926-2.995,5.768q.041.538.083,1.014a4.23,4.23,0,0,0-3.022,1.477l-.449-.531c-2.346-2.76-6.645-7.155-7.949-3.836-1.214,3.091,2.574,7.107,5.237,9.432l.166.145c-1.787,7.252,6.017,13.165,10.219,15.753l.545.331c-5.8,6.831-9.377,19.637-9.377,19.637l16.229,2.9s10.764-9.287,9.384-18.009h.11c10.757-2.153,13.2-13.62,11.523-20.431l.193-.076a12.179,12.179,0,0,0,4.982-3.767C183.554,734.474,177.261,729.755,174.156,733.853Z" transform="translate(-77.965 -250.531)"/><path class="w" d="M142.3,739.845l-1.9,5.52s-1.056-.745-2.387-1.918c-2.663-2.325-6.451-6.341-5.237-9.432,1.3-3.319,5.6,1.063,7.949,3.836C141.669,738.955,142.3,739.845,142.3,739.845Z" transform="translate(-78.412 -251.804)"/><path class="w" d="M151.482,735.369a26.286,26.286,0,0,1-1.849,2.18,29.122,29.122,0,0,1-.338-2.926c-.159-2.843.145-6.617,2.995-5.768S153.221,733.1,151.482,735.369Z" transform="translate(-83.595 -250.536)"/><path class="w" d="M185.552,736.444c-.055,1.829-.235,3.291-.235,3.291a24.076,24.076,0,0,1-2.367-2.118c-2.146-2.229-4.519-5.665-1.194-7.728C185.194,727.736,185.621,732.807,185.552,736.444Z" transform="translate(-93.157 -250.734)"/><path class="w" d="M200.207,740.234A12.179,12.179,0,0,1,195.225,744a14.907,14.907,0,0,1-1.67.607l-2.236-3.139a22.2,22.2,0,0,1,.925-3.05,12.034,12.034,0,0,1,1.573-2.967C196.909,731.353,203.215,736.073,200.207,740.234Z" transform="translate(-96.633 -252.13)"/><path class="f" d="M143.182,740.11c.945,1.1,1.573,1.96,1.573,1.96l-1.9,5.52s-1.056-.745-2.387-1.918a10.833,10.833,0,0,1,2.139-4.878C142.8,740.565,143,740.331,143.182,740.11Z" transform="translate(-80.87 -254.062)"/><path class="f" d="M151.5,738.015a26.3,26.3,0,0,1-1.849,2.18,29.121,29.121,0,0,1-.338-2.926A3.815,3.815,0,0,1,151.5,738.015Z" transform="translate(-83.61 -253.182)"/><path class="w" d="M158.035,760.514l-4.72,2.07s-1.028-.5-2.512-1.421c-4.961-3.05-14.931-10.729-8.28-19.782s12.261,7.183,14.49,15.125C157.683,758.92,158.035,760.514,158.035,760.514Z" transform="translate(-80.819 -253.629)"/><path class="f" d="M184.18,740.793a3.878,3.878,0,0,1,2.6-1.173c-.055,1.829-.235,3.291-.235,3.291A24.09,24.09,0,0,1,184.18,740.793Z" transform="translate(-94.42 -253.911)"/><path class="f" d="M195.245,746.042a14.881,14.881,0,0,1-1.67.607l-2.236-3.139a22.2,22.2,0,0,1,.925-3.05C193.693,741.3,194.755,743.4,195.245,746.042Z" transform="translate(-96.64 -254.171)"/><path class="w" d="M175.737,766.725c-.255.055-.524.1-.793.145-15.821,2.4-5.216-6.134-5.216-6.134s.69-.69,1.677-1.732c1.911-2.1,4.782-5.789,5.113-9.2.5-5.127,1.069-9.936,7.121-8.528C189.578,742.672,190.716,763.724,175.737,766.725Z" transform="translate(-88.861 -254.348)"/><rect class="ad" width="30.229" height="7.949" transform="translate(56.351 551.769)"/><rect class="ad" width="39.495" height="27.738" transform="translate(51.548 525.936)"/><rect class="f" width="30.229" height="7.949" transform="translate(56.351 551.769)"/><rect class="f" width="39.495" height="27.738" transform="translate(51.548 525.936)"/><rect class="ad" width="30.229" height="7.949" transform="translate(58.338 551.769)"/><path class="f" d="M161.73,764.51c.69,2.374,1.021,4,1.021,4l-4.72,2.07s-1.028-.5-2.512-1.421C157.369,766.821,159.453,765.055,161.73,764.51Z" transform="translate(-85.535 -261.627)"/><path class="f" d="M175.737,774.8c-.255.055-.524.1-.793.145-15.821,2.4-5.216-6.134-5.216-6.134s.69-.69,1.677-1.732A10.477,10.477,0,0,1,175.737,774.8Z" transform="translate(-88.861 -262.423)"/><path class="w" d="M142.72,789.5s8.859-31.74,21.286-21.949-5.058,24.84-5.058,24.84Z" transform="translate(-81.567 -261.987)"/><circle class="f" cx="0.994" cy="0.994" r="0.994" transform="translate(64.63 491.733)"/><circle class="f" cx="0.994" cy="0.994" r="0.994" transform="translate(64.548 496.37)"/><circle class="f" cx="0.994" cy="0.994" r="0.994" transform="translate(93.369 492.644)"/><circle class="f" cx="0.994" cy="0.994" r="0.994" transform="translate(70.185 516.414)"/><circle class="f" cx="0.994" cy="0.994" r="0.994" transform="translate(91.299 500.344)"/><circle class="f" cx="0.994" cy="0.994" r="0.994" transform="translate(81.032 510.618)"/><circle class="f" cx="0.994" cy="0.994" r="0.994" transform="translate(68.025 493.72)"/><circle class="f" cx="0.994" cy="0.994" r="0.994" transform="translate(90.636 495.625)"/><circle class="f" cx="0.994" cy="0.994" r="0.994" transform="translate(87.241 503.325)"/><circle class="f" cx="0.994" cy="0.994" r="0.994" transform="translate(76.809 515.669)"/><circle class="f" cx="0.994" cy="0.994" r="0.994" transform="translate(74.656 510.784)"/><circle class="f" cx="0.994" cy="0.994" r="0.994" transform="translate(69.516 499.765)"/><rect class="f" width="30.229" height="2.905" transform="translate(58.338 551.769)"/><rect class="ad" width="39.495" height="27.738" transform="translate(53.535 525.936)"/><circle class="f" cx="0.994" cy="0.994" r="0.994" transform="translate(78.134 520.14)"/><circle class="f" cx="0.994" cy="0.994" r="0.994" transform="translate(72.172 521.382)"/><circle class="a" cx="7.217" cy="7.217" r="7.217" transform="translate(27.295 28.68)"/><circle class="a" cx="9.66" cy="9.66" r="9.66" transform="translate(717.997 253.307)"/><circle class="a" cx="7.052" cy="7.052" r="7.052" transform="translate(739.228 235.215)"/><circle class="a" cx="9.5" cy="9.5" r="9.5" transform="translate(37.291 0.792)"/><circle class="a" cx="9.5" cy="9.5" r="9.5" transform="translate(0.291 43.792)"/></g></svg>