<?xml version="1.0" encoding="UTF-8"?>
<svg width="2369px" height="439px" viewBox="0 0 2369 439" version="1.1" xmlns="http://www.w3.org/2000/svg" xmlns:xlink="http://www.w3.org/1999/xlink">
    <!-- Generator: Sketch 63 (92445) - https://sketch.com -->
    <title>lockup</title>
    <desc>Created with Sketch.</desc>
    <defs>
        <polygon id="path-1" points="187.303146 107.118694 0 0.596493535 0 438.33616 74.9212583 395.061517 74.9212583 271.895222 131.528431 304.351205 130.695973 220.298532 74.9212583 187.842549 74.9212583 138.742472 187.303146 204.486643"></polygon>
        <linearGradient x1="0%" y1="50%" x2="100%" y2="50%" id="linearGradient-3">
            <stop stop-color="#FF6F00" offset="0%"></stop>
            <stop stop-color="#FFA800" offset="100%"></stop>
        </linearGradient>
        <polygon id="path-4" points="0.697347427 107.118694 188.133028 0.596493535 188.133028 438.33616 113.158755 395.061517 113.158755 138.742472 0.697347427 204.486643"></polygon>
        <linearGradient x1="0%" y1="50%" x2="100%" y2="50%" id="linearGradient-6">
            <stop stop-color="#FF6F00" offset="0%"></stop>
            <stop stop-color="#FFA800" offset="100%"></stop>
        </linearGradient>
    </defs>
    <g id="website-UI" stroke="none" stroke-width="1" fill="none" fill-rule="evenodd">
        <g id="lockup">
            <g id="Clipped" transform="translate(204.000000, 0.000000)">
                <mask id="mask-2" fill="white">
                    <use xlink:href="#path-1"></use>
                </mask>
                <g id="SVGID_1_"></g>
                <polygon id="Path" fill="url(#linearGradient-3)" fill-rule="nonzero" mask="url(#mask-2)" points="-221.433941 -1.06791584 238.08311 -1.06791584 238.08311 439.168365 -221.433941 439.168365"></polygon>
            </g>
            <g id="Clipped">
                <mask id="mask-5" fill="white">
                    <use xlink:href="#path-4"></use>
                </mask>
                <g id="SVGID_4_"></g>
                <polygon id="Path" fill="url(#linearGradient-6)" fill-rule="nonzero" mask="url(#mask-5)" points="-19.2957918 -1.06791584 440.54641 -1.06791584 440.54641 439.168365 -19.2957918 439.168365"></polygon>
            </g>
            <polygon id="Path" fill="#425066" fill-rule="nonzero" points="731 135.453416 647.796875 135.453416 647.796875 366 601.203125 366 601.203125 135.453416 518 135.453416 518 98 731 98 731 135.453416"></polygon>
            <path d="M785.728805,370.077879 C757.426376,370.077879 734.118493,360.925412 716.637581,343.452521 C699.156668,325.979629 690,301.850399 690,271.896871 L690,266.072574 C690,247.76764 693.329698,229.462706 701.653941,212.821857 C709.145761,197.845093 719.967278,185.364457 734.118493,176.21199 C748.269707,167.059523 764.085771,162.899311 780.734259,162.899311 C808.204264,162.899311 829.014874,171.219735 843.998513,188.692626 C858.982152,206.165518 866.473971,230.294748 866.473971,261.912361 L866.473971,280.217295 L735.783342,280.217295 C736.615766,295.194059 742.442737,308.506738 752.431829,319.32329 C762.420922,329.307799 774.907288,334.300054 789.058503,333.468011 C809.036688,334.300054 827.350025,324.315545 839.003966,308.506738 L863.144274,331.803927 C854.82003,343.452521 843.998513,353.43703 831.512147,359.261327 C816.528508,367.581752 801.544869,370.909921 785.728805,370.077879 L785.728805,370.077879 Z M780.734259,199.509178 C769.080317,198.677136 758.2588,203.66939 750.766981,211.989815 C742.442737,221.974324 737.44819,234.454961 736.615766,247.76764 L822.355478,247.76764 L822.355478,244.43947 C821.523054,229.462706 817.360932,217.814112 810.701537,210.32573 C802.377293,203.66939 791.555776,198.677136 780.734259,199.509178 L780.734259,199.509178 Z M942.224591,167.059523 L943.88944,190.356711 C958.040654,172.88382 979.683689,162.899311 1002.15915,163.731353 C1043.78037,163.731353 1064.59098,187.860584 1065.4234,235.287003 L1065.4234,366.749709 L1020.47248,366.749709 L1020.47248,237.78313 C1020.47248,225.302494 1017.97521,216.150027 1012.14824,209.493687 C1006.32127,203.66939 997.997025,200.341221 985.510659,200.341221 C968.029747,199.509178 952.213684,209.493687 944.721864,224.470451 L944.721864,365.917667 L899.770947,365.917667 L899.770947,166.22748 L942.224591,167.059523 L942.224591,167.059523 Z M1210.26525,312.66695 C1210.26525,305.178568 1206.93555,298.522229 1200.27615,294.362017 C1190.28706,288.537719 1178.63312,285.20955 1167.8116,283.545465 C1154.49281,281.049338 1142.00645,276.889125 1129.52008,271.064828 C1107.04462,260.248276 1096.2231,244.43947 1096.2231,224.470451 C1096.2231,207.829603 1104.54735,191.188754 1117.86614,181.204244 C1132.01735,169.55565 1151.16311,163.731353 1172.80615,163.731353 C1196.94646,163.731353 1216.09222,169.55565 1230.24343,181.204244 C1244.39465,192.020796 1252.71889,209.493687 1251.88647,226.966579 L1206.93555,226.966579 C1206.93555,218.646154 1203.60585,211.157772 1196.94646,205.333475 C1189.45464,199.509178 1181.13039,196.181008 1171.1413,197.013051 C1162.81706,197.013051 1154.49281,198.677136 1147.00099,203.66939 C1141.17402,207.829603 1137.84432,214.485942 1137.84432,221.974324 C1137.84432,228.630664 1141.17402,234.454961 1146.16857,237.78313 C1151.99554,241.943343 1163.64948,245.271512 1181.13039,249.431725 C1195.28161,251.927852 1209.43282,256.920107 1222.75161,263.576446 C1231.90828,267.736658 1239.4001,274.392998 1245.22707,282.713422 C1250.22162,291.033847 1252.71889,300.186314 1252.71889,310.170823 C1252.71889,327.643714 1244.39465,343.452521 1230.24343,353.43703 C1215.25979,364.253582 1196.11403,370.077879 1171.97372,370.077879 C1156.99008,370.077879 1142.00645,367.581752 1128.68765,360.925412 C1117.03371,355.933157 1106.2122,347.612733 1098.72038,336.796181 C1092.06098,326.811672 1087.89886,315.163078 1087.89886,303.514483 L1131.18493,303.514483 C1131.18493,312.66695 1135.34705,321.819417 1142.83887,327.643714 C1151.16311,333.468011 1161.98463,336.796181 1171.97372,335.964139 C1183.62766,335.964139 1192.78433,333.468011 1198.6113,329.307799 C1206.93555,325.979629 1210.26525,319.32329 1210.26525,312.66695 L1210.26525,312.66695 Z M1277.69162,265.240531 C1277.69162,246.935597 1281.02132,228.630664 1289.34556,212.821857 C1296.83738,197.845093 1307.6589,185.364457 1321.81011,177.044032 C1336.79375,168.723608 1353.44224,163.731353 1370.09073,164.563395 C1396.72831,164.563395 1419.20377,172.88382 1435.85226,190.356711 C1452.50074,207.829603 1461.65741,230.294748 1463.32226,259.416234 L1463.32226,270.232786 C1463.32226,288.537719 1459.99256,306.010611 1451.66832,322.65146 C1445.00892,337.628224 1433.35498,350.10886 1419.20377,358.429285 C1404.22013,366.749709 1387.57164,371.741964 1370.09073,370.909921 C1341.7883,370.909921 1319.31284,361.757455 1302.66435,342.620478 C1286.01587,324.315545 1277.69162,299.354271 1276.8592,267.736658 L1277.69162,265.240531 L1277.69162,265.240531 Z M1321.81011,269.400743 C1321.81011,290.201804 1325.97224,306.010611 1334.29648,317.659205 C1349.28012,336.796181 1376.75012,340.956393 1396.72831,325.979629 C1400.05801,323.483502 1402.55528,320.987375 1405.05255,317.659205 C1413.3768,306.010611 1417.53892,288.537719 1417.53892,266.072574 C1417.53892,246.103555 1413.3768,230.294748 1404.22013,217.814112 C1390.06891,198.677136 1362.59891,194.516923 1342.62072,208.661645 C1339.29103,211.157772 1335.96133,214.485942 1333.46406,216.982069 C1326.80466,228.630664 1321.81011,246.103555 1321.81011,269.400743 L1321.81011,269.400743 Z M1597.34259,208.661645 C1591.51562,207.829603 1584.85622,206.99756 1579.02925,206.99756 C1558.21864,206.99756 1544.89985,214.485942 1537.40803,230.294748 L1537.40803,366.749709 L1492.45711,366.749709 L1492.45711,167.059523 L1534.91076,167.059523 L1535.74318,189.524669 C1546.5647,172.051777 1561.54834,163.731353 1580.6941,163.731353 C1585.68865,163.731353 1591.51562,164.563395 1596.51016,166.22748 L1597.34259,208.661645 Z M1784.63808,252.759894 L1676.42291,252.759894 L1676.42291,366.749709 L1629.80714,366.749709 L1629.80714,98.8320424 L1800.45414,98.8320424 L1800.45414,136.273952 L1676.42291,136.273952 L1676.42291,216.150027 L1784.63808,216.150027 L1784.63808,252.759894 Z M1873.70749,366.749709 L1828.75657,366.749709 L1828.75657,98 L1873.70749,98 L1873.70749,366.749709 Z M1906.17204,265.240531 C1906.17204,246.935597 1909.50174,228.630664 1917.82598,212.821857 C1925.3178,197.845093 1936.13932,185.364457 1950.29053,177.044032 C1965.27417,168.723608 1981.92266,163.731353 1998.57115,164.563395 C2025.20873,164.563395 2047.68418,172.88382 2064.33267,190.356711 C2080.98116,207.829603 2090.13783,230.294748 2091.80268,259.416234 L2091.80268,270.232786 C2091.80268,288.537719 2088.47298,306.010611 2080.98116,322.65146 C2074.32176,337.628224 2062.66782,350.10886 2048.51661,358.429285 C2033.53297,366.749709 2016.88448,371.741964 1999.40357,370.909921 C1971.10114,370.909921 1948.62568,361.757455 1931.97719,342.620478 C1915.32871,324.315545 1906.17204,299.354271 1906.17204,267.736658 L1906.17204,265.240531 L1906.17204,265.240531 Z M1951.12295,269.400743 C1951.12295,290.201804 1955.28508,306.010611 1963.60932,317.659205 C1971.93356,329.307799 1985.25235,335.964139 1999.40357,335.132096 C2013.55478,335.964139 2026.87357,329.307799 2034.36539,317.659205 C2042.68964,306.010611 2046.85176,288.537719 2046.85176,266.072574 C2046.85176,246.103555 2042.68964,230.294748 2033.53297,217.814112 C2019.38176,198.677136 1991.91175,194.516923 1971.93356,208.661645 C1968.60387,211.157772 1965.27417,214.485942 1962.7769,216.982069 C1955.28508,228.630664 1951.12295,246.103555 1951.12295,269.400743 L1951.12295,269.400743 Z M2294.0818,305.178568 L2325.71393,167.891565 L2369,167.891565 L2314.89241,367.581752 L2278.26574,367.581752 L2235.8121,230.294748 L2193.35845,367.581752 L2156.73178,367.581752 L2101.79177,167.891565 L2145.91026,167.891565 L2178.37481,304.346526 L2219.16361,167.891565 L2253.29301,167.891565 L2294.0818,305.178568 L2294.0818,305.178568 Z" id="Shape" fill="#425066" fill-rule="nonzero"></path>
        </g>
    </g>
</svg>